<mxfile host="app.diagrams.net" agent="Mozilla/5.0 (Windows NT 10.0; Win64; x64) AppleWebKit/537.36 (KHTML, like Gecko) Chrome/131.0.0.0 Safari/537.36 Edg/131.0.0.0" version="25.0.1">
  <diagram name="Page-1" id="7a6c530e-6e37-e111-ec74-82921da8cc10">
    <mxGraphModel dx="1489" dy="896" grid="1" gridSize="10" guides="1" tooltips="1" connect="1" arrows="1" fold="1" page="1" pageScale="1.5" pageWidth="1169" pageHeight="826" background="#184380" math="0" shadow="0">
      <root>
        <mxCell id="0" style=";html=1;" />
        <mxCell id="1" style=";html=1;" parent="0" />
        <mxCell id="23046e2b9bb16c14-116" value="" style="whiteSpace=wrap;html=1;rounded=1;shadow=0;strokeColor=none;strokeWidth=2;fillColor=#009BFF;fontSize=20;fontColor=#FFFFFF;align=left;arcSize=3;verticalAlign=top;spacingTop=4;" parent="1" vertex="1">
          <mxGeometry x="275" y="181" width="1200" height="556" as="geometry" />
        </mxCell>
        <mxCell id="23046e2b9bb16c14-27" value="" style="rounded=1;whiteSpace=wrap;html=1;shadow=0;strokeWidth=2;fillColor=#0000CC;fontSize=12;fontColor=#000000;align=center;strokeColor=none;arcSize=3;" parent="1" vertex="1">
          <mxGeometry x="350" y="231" width="1090" height="484" as="geometry" />
        </mxCell>
        <mxCell id="23046e2b9bb16c14-113" value="Smart Saver Architecture MVP1" style="text;strokeColor=none;fillColor=none;html=1;fontSize=24;fontStyle=1;verticalAlign=middle;align=center;rounded=0;shadow=0;fontColor=#FFFFFF;" parent="1" vertex="1">
          <mxGeometry x="120" y="40" width="1510" height="40" as="geometry" />
        </mxCell>
        <mxCell id="fgljEo-mVfY3IKVKuqTN-1" value="" style="shape=image;verticalLabelPosition=bottom;labelBackgroundColor=#ffffff;verticalAlign=top;aspect=fixed;imageAspect=0;image=data:image/svg+xml,PHN2ZyB4bWxuczpkYz0iaHR0cDovL3B1cmwub3JnL2RjL2VsZW1lbnRzLzEuMS8iIHhtbG5zOmNjPSJodHRwOi8vY3JlYXRpdmVjb21tb25zLm9yZy9ucyMiIHhtbG5zOnJkZj0iaHR0cDovL3d3dy53My5vcmcvMTk5OS8wMi8yMi1yZGYtc3ludGF4LW5zIyIgeG1sbnM6c3ZnPSJodHRwOi8vd3d3LnczLm9yZy8yMDAwL3N2ZyIgeG1sbnM9Imh0dHA6Ly93d3cudzMub3JnLzIwMDAvc3ZnIiB4bWxuczpzb2RpcG9kaT0iaHR0cDovL3NvZGlwb2RpLnNvdXJjZWZvcmdlLm5ldC9EVEQvc29kaXBvZGktMC5kdGQiIHhtbG5zOmlua3NjYXBlPSJodHRwOi8vd3d3Lmlua3NjYXBlLm9yZy9uYW1lc3BhY2VzL2lua3NjYXBlIiB2ZXJzaW9uPSIxLjEiIGlkPSJzdmc2OTc1IiBpbmtzY2FwZTp2ZXJzaW9uPSIwLjkyLjMgKDI0MDU1NDYsIDIwMTgtMDMtMTEpIiBzb2RpcG9kaTpkb2NuYW1lPSJtYWNoaW5lX2xlYXJuaW5nLnN2ZyIgeD0iMHB4IiB5PSIwcHgiIHZpZXdCb3g9IjAgMCAyMy4xNCAyNC41NCIgc3R5bGU9ImVuYWJsZS1iYWNrZ3JvdW5kOm5ldyAwIDAgMjMuMTQgMjQuNTQ7IiB4bWw6c3BhY2U9InByZXNlcnZlIj48bWV0YWRhdGEgaWQ9Im1ldGFkYXRhMTA3MiI+PHJkZjpSREY+PGNjOldvcmsgcmRmOmFib3V0PSIiPjxkYzpmb3JtYXQ+aW1hZ2Uvc3ZnK3htbDwvZGM6Zm9ybWF0PjxkYzp0eXBlIHJkZjpyZXNvdXJjZT0iaHR0cDovL3B1cmwub3JnL2RjL2RjbWl0eXBlL1N0aWxsSW1hZ2UiLz48ZGM6dGl0bGUvPjwvY2M6V29yaz48L3JkZjpSREY+PC9tZXRhZGF0YT48ZGVmcyBpZD0iZGVmczEwNzAiLz4mI3hhOzxzb2RpcG9kaTpuYW1lZHZpZXcgYm9yZGVyY29sb3I9IiM2NjY2NjYiIGJvcmRlcm9wYWNpdHk9IjEiIGZpdC1tYXJnaW4tYm90dG9tPSIwIiBmaXQtbWFyZ2luLWxlZnQ9IjAiIGZpdC1tYXJnaW4tcmlnaHQ9IjAiIGZpdC1tYXJnaW4tdG9wPSIwIiBncmlkdG9sZXJhbmNlPSIxMCIgZ3VpZGV0b2xlcmFuY2U9IjEwIiBpZD0ibmFtZWR2aWV3Njk3NyIgaW5rc2NhcGU6Y3VycmVudC1sYXllcj0ic3ZnNjk3NSIgaW5rc2NhcGU6Y3g9IjE1Ljg4ODI2NiIgaW5rc2NhcGU6Y3k9IjIuODYyNTMzMyIgaW5rc2NhcGU6cGFnZW9wYWNpdHk9IjAiIGlua3NjYXBlOnBhZ2VzaGFkb3c9IjIiIGlua3NjYXBlOndpbmRvdy1oZWlnaHQ9IjEwMTciIGlua3NjYXBlOndpbmRvdy1tYXhpbWl6ZWQ9IjEiIGlua3NjYXBlOndpbmRvdy13aWR0aD0iMTkyMCIgaW5rc2NhcGU6d2luZG93LXg9Ii04IiBpbmtzY2FwZTp3aW5kb3cteT0iLTgiIGlua3NjYXBlOnpvb209IjEzLjc2MTkwNSIgb2JqZWN0dG9sZXJhbmNlPSIxMCIgcGFnZWNvbG9yPSIjZmZmZmZmIiBzaG93Z3JpZD0iZmFsc2UiPiYjeGE7CTwvc29kaXBvZGk6bmFtZWR2aWV3PiYjeGE7JiN4YTs8cGF0aCBpZD0icGF0aDY5NzAiIGlua3NjYXBlOmNvbm5lY3Rvci1jdXJ2YXR1cmU9IjAiIHN0eWxlPSJmaWxsOiMzRjU3NjU7IiBkPSJNMTYuMTMsNy4wMVYyLjhoMS40VjBINS42MXYyLjhoMS40djQuMjFMMCwyMS4wMyAgbDIuMSwzLjUxaDE4Ljk0bDIuMS0zLjUxTDE2LjEzLDcuMDF6IE0xMC41MiwxMC41MUw0LjkxLDIxLjczSDMuNTdsLTAuNzctMC43TDkuODIsNy43MVYyLjhoMy41djQuOTFsMS40MSwyLjhIMTAuNTJ6Ii8+JiN4YTs8L3N2Zz4=;" vertex="1" parent="1">
          <mxGeometry x="640" y="353.3" width="103" height="111.96" as="geometry" />
        </mxCell>
        <mxCell id="fgljEo-mVfY3IKVKuqTN-5" value="&lt;font color=&quot;#ffffff&quot; style=&quot;font-size: 20px;&quot;&gt;&lt;b&gt;Azure Container&lt;/b&gt;&lt;/font&gt;" style="text;html=1;align=center;verticalAlign=middle;whiteSpace=wrap;rounded=0;" vertex="1" parent="1">
          <mxGeometry x="340" y="240" width="195" height="30" as="geometry" />
        </mxCell>
        <mxCell id="0KorNPI6NSOoegdMhirZ-1" value="" style="rounded=1;whiteSpace=wrap;html=1;fontColor=#2f2867;labelBackgroundColor=#3333FF;fillColor=#99CCFF;" vertex="1" parent="1">
          <mxGeometry x="400" y="280" width="1010" height="410" as="geometry" />
        </mxCell>
        <mxCell id="0KorNPI6NSOoegdMhirZ-3" value="" style="image;sketch=0;aspect=fixed;html=1;points=[];align=center;fontSize=12;image=img/lib/mscae/Docker.svg;" vertex="1" parent="1">
          <mxGeometry x="440" y="300" width="65" height="53.3" as="geometry" />
        </mxCell>
        <mxCell id="0KorNPI6NSOoegdMhirZ-4" value="&amp;lt;/&amp;gt;" style="rounded=1;arcSize=5;fillColor=#0065FF;strokeColor=none;fontColor=#ffffff;align=center;verticalAlign=middle;whiteSpace=wrap;fontSize=14;fontStyle=1;html=1;sketch=0;" vertex="1" parent="1">
          <mxGeometry x="530" y="235" width="40" height="40" as="geometry" />
        </mxCell>
        <mxCell id="0KorNPI6NSOoegdMhirZ-5" value="" style="verticalLabelPosition=bottom;html=1;verticalAlign=top;align=center;strokeColor=none;fillColor=#00BEF2;shape=mxgraph.azure.azure_website;pointerEvents=1;" vertex="1" parent="1">
          <mxGeometry x="290" y="190" width="50" height="50" as="geometry" />
        </mxCell>
        <mxCell id="0KorNPI6NSOoegdMhirZ-6" value="&lt;font color=&quot;#ffffff&quot; style=&quot;font-size: 20px;&quot;&gt;&lt;b&gt;Azure&lt;/b&gt;&lt;/font&gt;" style="text;html=1;align=center;verticalAlign=middle;whiteSpace=wrap;rounded=0;" vertex="1" parent="1">
          <mxGeometry x="350" y="181" width="60" height="50" as="geometry" />
        </mxCell>
        <mxCell id="0KorNPI6NSOoegdMhirZ-7" value="" style="rounded=1;whiteSpace=wrap;html=1;fillColor=#FFFFFF;" vertex="1" parent="1">
          <mxGeometry x="535" y="325" width="300" height="320" as="geometry" />
        </mxCell>
        <mxCell id="0KorNPI6NSOoegdMhirZ-8" value="" style="rounded=1;whiteSpace=wrap;html=1;fillColor=#FFFFFF;" vertex="1" parent="1">
          <mxGeometry x="1020" y="325" width="300" height="320" as="geometry" />
        </mxCell>
        <mxCell id="0KorNPI6NSOoegdMhirZ-9" value="" style="aspect=fixed;sketch=0;html=1;dashed=0;whitespace=wrap;verticalLabelPosition=bottom;verticalAlign=top;fillColor=#2875E2;strokeColor=#ffffff;points=[[0.005,0.63,0],[0.1,0.2,0],[0.9,0.2,0],[0.5,0,0],[0.995,0.63,0],[0.72,0.99,0],[0.5,1,0],[0.28,0.99,0]];shape=mxgraph.kubernetes.icon2;kubernetesLabel=1;prIcon=api" vertex="1" parent="1">
          <mxGeometry x="890" y="442.76" width="71" height="69.32" as="geometry" />
        </mxCell>
        <mxCell id="0KorNPI6NSOoegdMhirZ-10" value="" style="endArrow=none;dashed=1;html=1;dashPattern=1 3;strokeWidth=3;rounded=0;exitX=0.005;exitY=0.63;exitDx=0;exitDy=0;exitPerimeter=0;entryX=1;entryY=0.5;entryDx=0;entryDy=0;" edge="1" parent="1" source="0KorNPI6NSOoegdMhirZ-9" target="0KorNPI6NSOoegdMhirZ-7">
          <mxGeometry width="50" height="50" relative="1" as="geometry">
            <mxPoint x="790" y="560" as="sourcePoint" />
            <mxPoint x="840" y="510" as="targetPoint" />
          </mxGeometry>
        </mxCell>
        <mxCell id="0KorNPI6NSOoegdMhirZ-11" value="" style="endArrow=none;dashed=1;html=1;dashPattern=1 3;strokeWidth=3;rounded=0;exitX=0.995;exitY=0.63;exitDx=0;exitDy=0;exitPerimeter=0;entryX=0;entryY=0.5;entryDx=0;entryDy=0;" edge="1" parent="1" source="0KorNPI6NSOoegdMhirZ-9" target="0KorNPI6NSOoegdMhirZ-8">
          <mxGeometry width="50" height="50" relative="1" as="geometry">
            <mxPoint x="900" y="491" as="sourcePoint" />
            <mxPoint x="845" y="495" as="targetPoint" />
          </mxGeometry>
        </mxCell>
        <mxCell id="0KorNPI6NSOoegdMhirZ-12" value="Back End" style="text;html=1;align=center;verticalAlign=middle;whiteSpace=wrap;rounded=0;fontSize=16;fontStyle=1;fontColor=#1A1A1A;" vertex="1" parent="1">
          <mxGeometry x="620" y="340" width="110" height="30" as="geometry" />
        </mxCell>
        <mxCell id="0KorNPI6NSOoegdMhirZ-13" value="Front End" style="text;html=1;align=center;verticalAlign=middle;whiteSpace=wrap;rounded=0;fontSize=16;fontStyle=1;fontColor=#1A1A1A;" vertex="1" parent="1">
          <mxGeometry x="1115" y="340" width="110" height="30" as="geometry" />
        </mxCell>
        <mxCell id="0KorNPI6NSOoegdMhirZ-14" value="" style="shape=image;verticalLabelPosition=bottom;labelBackgroundColor=default;verticalAlign=top;aspect=fixed;imageAspect=0;image=data:image/png,iVBORw0KGgoAAAANSUhEUgAAAL8AAAETCAYAAABnQ9cnAAAAAXNSR0IArs4c6QAAAARnQU1BAACxjwv8YQUAAAAJcEhZcwAAEnQAABJ0Ad5mH3gAAHDXSURBVHhe7Z13YBzF+fe/e/2kU+/FVrElF7lb7g2wTbFpppMfIRhTQk0INcTBoUOAhOJQQkJoIUBCeU23jQFj3BuWJUu2ZEuyej+V67vz/nE369F4b+9OzbKtj1l0O/PMM8/MPDM7uzu7KzgcDoIhhjgN0fABQwxxujDk/EOctgw5/xCnLUPOP8Rpy5DzD3HactI6PyH+L1LxcYH2lcLU9pV+C4Ighw0GePv5MD6eEHJcGIXG+YvnCVaOpSdplAhFjxDKpc5QFFMCOQUhRJbpiX4WJT2CIMgNR3/zNlF5NpyVZ+Htpb/ZfHiUwpRQys8fSjawcUrhSmFKBCOjBF9/avgrK1supXAKHw8/aVXrqSfOT//yyoKFN9JfRQRCqUAUSZK65cNXCI3nywQAHo8Hbrdb3jweD/R6PaKioiBJElwuFwghEEWx21+dToeIiAgYjUZZF0UQBL/lZO2jcmqwOmj+7e3tcDqdEAQBOp0OGo0GgiBAo9FAp9NBp9NBFEW0trbK8Xq9Xt74fDWaY5MC3h6lfbW28FfuUGHb0x9KefmzLyTnB9cBeGW9gdfFF4CHdwD+L/vb6XTC6XTCbrcjMjISWq0WbrcbLpcL4eHhMJlM3Rpf8HUOSZIgiiJEUYRWq4XJZJKdjebB5iUIAkwmE3Q6nWwbDVeDLUsoshRJkuBwOCCKIuBzXFoewdcBNBqNLEfDtVqtLCtJEsB0pq6uLhBCYDAY4Ha74XA4oNVqERYWBoPBIHcOvt6U7Gfj4acM/hA4Z1bSjyDqkCj4a0jOzza0GnwmFNYA3hiqV6PR+M2HDae/CSGw2Wyw2WwwGo0wGo3ySK3X6wFmFPN4PDAajXJji6IIg8EArVbbzRa2YZXsCIZQ0vqrExqmhJp+tTgWVo51fkII3G43CCHQarUQRREejweCr8N4PB5ZlnYKSZJgtVoRHh6O8PBwucPRfPz95csLBT+hUHv5NEryanVKCcn5wRmjpjgQrJGsTn46QhvF5XKhra0NJpMJ4eHhcLlcchqTyQQA0Ol0ckPQyhd8Ix9b4Wx+aijJ8mHsPt84fFp/qDWUPx28HFTq1B+8Dn/l4uMlSZJ/005BCIHL5YJOp4PT6ZQHIJquvr4eMTExCAsLg8AclagNrC28XWwYbxOFj1erU0pIzk/8jMg8fEGU0lCnBqOX+Eac1tZWWCwWhIeHw+12o6urC2azWZ6e6HS6bjrpNIMvpNK+ki3+4CuUhvnbp7+V0qmh1lD+dPByGADnpyjJUdsFQZCPGux5g8PhgEajQUdHBzQaDcxmMzweDzo6OqDT6WCxWGR5pSkVRcmuQG3A66CE5PxQ6QCBMqNpaHpJkuDxeNDZ2SnPkzs6OhAVFQWdTge9Xg+tVgvi6xB0VKeVqtQAPKwd1C76l49jUapAPk5pX63caqjVnb/0vBz6wfn5ON4+pfz8lYWmZ89L6L7D4YDdbodOp4MgCHA4HNDr9fJRgu1E7FGchbfFnx0sITk/WwH8XxrPVzxNwxaU+BzaYDDAYrFAr9dD4zshY0/C1GDzgEJjqaFWIeDilWT5MH/yvI2B4PNBiDr49KGmZeWV2tYffFoeNl7pN724QMNEUYTNZpOPIB6PByaTST5fozZptVrAN4ug/kPjlGzi66dXzk+h+2xlsQVyOBxwuVwQBAEWiwVms1mWpXPz3sIXTA3WTiX4Rudl+TB/8nzlB4Kv11Dh7eRR0y0wl39DJZDdbDz/Gwp2UV8ivo5BCJEv5ep0OphMJmi12m4XKuiAyU6nef182frE+Wkc+9vlcqGzsxMAEBUVBbPZDPiMpM7uz6ieEIoOWgZ/sPFKsnyYP3m+jgLB54MQdSilV4PVzbZpqPYr+QMLrztQPkr7tBMIgoD29nZ5ikw7AbhLvEp6+PrpU+cXRVG+JkwvecGXqZJB7NydNyxUQklPy+APNl5Jlg/zJ8/XUSCU6jUUlOwMlt7kHSgtG8//hh87+TBarwIzurvdbtTW1sJischHAyoDJi82LUuPnB+c4ZIkwe12o729HTqdDgkJCfLcva/gK4OvcL5ganFgKpP+DYWepKEoOYES/hxDLV9elkUtHYVPH0waCp+W4q+OleR7WmabzYbGxkbExsZC8E2laUdQypsSkvODMYxwV21sNhssFgssFoss25/Oz8MXkJXn43ASOD/8yKjly8uyqKWj8OmDSUPh01L81bGSPJVRi1NCFEUIgoDa2loIgoCIiAgITCfwR4+9k/imOS6XCx0dHUhMTER4eHi3xh2idyg5wemKWl3QDpaSkgKdTofGxkZ5CQp7AswTkvNTA6jjO51O2Gw2pKamdjvzHmhOVL5DDCxqHYASHx+PqKgotLa2yifJ/gh52kNvZzscDnR1dSExMVG+jc06Ifvb32FPTYbf5wn2CBNITzAEm1cwsI1B9VEb/cXx+8HaodTwPdETDIH0sfH+ZJXqgaLmG/y+KIpoa2uDx+Ppts6IzzPkkV/w3b52Op0wGo3yXTk1AsUPoQ7fEQYKmt9A59tbBN+832azweVy+T0ChOT8gu8yk8fjgcPhQFxcnBym5OBKGZ6sKJWvv+FHyyGCQ/CtPo2Li4Pdbu+2BJ0lJOcnzNUd9gGIvryq09cIzLVepQoIhkCO3xvdPIHyGkioLQNlU1/mo/E9xNPW1tbtBlk3mW57ARB86y7cbjfA3VFjK0qp0tQckO6zf3lDedh8AsHaGEwa3r5AsLrVyknh7WDrS6ku2DRsHjxKYf7Kze/3lkD62LIhwIDB2uzPdr5+lNDpdAgLC5NHfl5PSM5PfCN/V1cX4uPj+eh+ha0stQKfbAQqF9tgSvH9iZpd/UmgOgkErTPiW2bj8XgU5/0hOb/gm9+73e7jetEQ/c/pUue9LSfbcSRmgSVPSM4PZvTvrYEswehSOwwOZvjRhidQuZRGP3+yCCK/QLDp1ezqK/zp7qu8aXmU6iUk5+cVsT2MleH3KcEURslIqIT7g7UtmI3HXxmCIVA51fKFn/Rq8jxKskr7oWw8/sL8paH79K9SGSm8Hl4XmE6jpIcPU0qPUJ1/iFMLdnRVciY+LhChyg8E/hwfQ85/4uhPJ+kL3b1NfyJRc3iWXjt/TyqapgnWSPSgMZRGITZMKT5Ygjkcs79Z+WDy5HWz8mrTATXdvC1KqKWHQjl4eLvYv3ydB1OOQPYEA6+bpdfO3xeoGegPvvIC6ehJJbI6/ekPRkaNYNP0xP5ABFt3CNJONYcN1FZKYT1FKX8lBoXz9wS1iu5rlPLh9weKvix3X+oKxEDmFSwnrfOrjSIDwYnMt6/K3Ze6AjGQeQVLr51fqVBs76a/lXo8G8dvPIEqTSkNhY/jdfHxNEwpnKZVslVJnoetL6qL/8vC6+c3HlavUjyLmh4ePl8lW1lYvXxaflOCryM1lOo0GHrt/P4IxYiewFasEmoO1RP6Sk9/0tc29rU+f/BtOFD59pvzDzHEYGfI+Yc4bekX5yd+rgOrEWi+pqQv0NQHKnFq+SmlCSYvir/5J5uW1edPN78PBbv95cWH0zZhNz4NleP/8rqgYJs/OaV4pX1eXyjw5QqWfnH+0xmlhqeoxfWEvtY3EKg550CXZ9A4f6i9doiBh7ZPT510sLXvoHH+UxW+wdn9njoRpaeH+55wqjk+euv8gSo/1Ipi54M87BxRKV6JYGT9xSvZoqSP31eqE6V94PhPMBHmXElQeFyR/mYdUclOpbyUUIoLlI7VzcOXU41QZHn4Oqf1wIcHolfOP5CwlRVMhanJhqqLEorsqUBP6qiv6EneocjiZHL+Ewk/qg7Rv/SkjnuSZtA6P3soU9rUCCQbKF6JYOVOJUKto74i1PbpieOjt86vZiTpwbV+Ks8e8pQ2+F5JJ/k+CN3Z2Qm73Q632y0/rMzLsyjpY2Ft9yenVGY2XC1eCRrO582itM/LsjL+flN4W/h9f2VXIhgZFqV6YsugljcfpqQrGHrl/KHCNjCPUpgaoiiiqakJP/74I9566y2888472Lx5s/ySoiEGHrX27U8CdRZ/DJjzB1MhwchQqqqqcP/992PVqlWIi4tDUlISXnvtNaxcuRKVlZW8+BD9TChtFyyhjuShMmDOH2yPZEcPf4cyj8eDwsJCbNu2Db/97W+xYMECzJo1C5dceikOHjyIr7/+upt8f+PPTj5OKT7UUSsYGUqgvAPRm7Q8PbEllLL2hF45v1rD8ftsmKBwDZuG0zgl3VSe/tXr9Thw4AAefvhhPP3MM/jq669QU1cLa3t7N1k+n0Ao2c7C2xbK1hOCtZ/XH0zerG5eJlBaHiqnJM/bwm/+2onXpSTTU3rl/GxP7kujAqHX65GVlYXk5GT861//wj/feAPPP/9XvPXWW75XKcbxSU4YgeolUDxLKLJDBKZXzt8bQhlRlMjMzMSKFSsQGRkJg8Hg/TKMRoPhw4djxMiRvPgJJZDTBopHkDJDhEa/OX9/HxXCwsJw3nnnYdWqVZgyZQoAQPB9lVsjeItFBtH77QPlrxSvFNaf8G2mtoVKb9P3FLUBVrty5co/8YFqOJ1OdHZ2yp8bVUIpQ6UwWgn8UUBJFgpzSr1ej4yMDLg9bnz19dcQfJ9LAghEj4ijR4+irKwMBw4cQFFREWpqauQvwCvp7SmE62T8b3/lU4oXmHMeFr7sSrBOxefhT2egMN42Pl4N3gZ2U7KVledhZZTKwkLTi6KI1tZWmEwmGAwG6HS6bnIhfZOL+D4DX1tbizFjxsjf4uLhC8fCGk9l1AriD3otv7a2Fn/561/wwosv+SoW0Gq0yM7KwqhRo9De3o7Dhw+js7MTSUlJuOuuu3DZZZchMjKSV9ljlBye/x1Ilo2HQh2G0uisDFvXammhYBsUHNgfrK0UXpc/eL3+5EO1xel0oqysDNHR0fKHqln6bdrTnxBC4PF4cPjwYfzjH//Af//7X2g0vhEFgEQkREVFYdiwYQCAlpYWtLW1obi4GLt27UJXVxevclCi1sBKCCGMyoMVf47fH5wQ56cNFEpDEWa+6HA4sG3bdjz19J/x8suvoLa2Ht4ZPwACCIIG7R0d2F9YhLLDh+F0uuRPJ8XFxUGv18uVzOpl84K8ycFBwZbJX/n8NbC/cH96gsWfXh4+H34/WD2hwOcxkPSb87MOzm48SmFKUAe12+3YuHEjHn3scbz3n/fR2maFIGgAIgBEgAANRFFCycFSbNm6FbV1DZDIseUOW7duxRdffIHy8nI4nc5uzk+/3kEk7waJeHsTh1KHUUNN3l84fHF8Z2LlWb1sGBunhlJ6ilq78On8pVWKY+NZqKxSHDidgWB1qMn3+wmvv8KECi1Ea2srXnvtNfzv44+9o7zGp184tgmCAJPJiPPPPx+LFy9CTHQ0urq64HA4cPjwYRw4cAAHDhzAzz//jOLiYtTW1aGuvh4GvR4REREgONYIglcha0o3ZLkAMnRjw3gZpX0+nKIU3pM0Sggq5whKYTyBZALZqQQvy+8rIYoiWlpaYDabFU94TzrnJ4Sgrq4O3/+wER7RI4dpBA0E5p9Gq8GVV16FG2+4EdOm5WPSxImIi4tDdXU1qqqqUFBQgB07dmDnzp3YuWsXNv20Cdu370BNTQ3GjBkDo8EAb09SL0MwDak0+vDygfZ5lOID2eIvnEdNj1IYTyAZwc8sQA1ent9XIpDz92raQwvBGxLoEOYP1sF5qC6LxYL5CxYgOzubmZEIkAiBKImIjonGrNmzMHnyZBQVFqKxsRGTJ03GlVdeiYyMDISHh0On00Gj0cDj8aChoQGFhYXYunU7Pvzvf/HMs8/h448/8VaNIAA49qghWy623IHKycorpWP/KtUnu8+n59PwcXx6Fj59MGnYtuHTsekDxfNtzMsoybM+xbcJuwVLr5yfhS10T6E6lHSx31I1Ggzy9AQAYmNjMH/ePFx88cW4+KKLceYZZ+LCCy+CR/Tgv//7L8oryiEIAux2u/JHiYngPXIIGjQ0NuLf7/0Hu/fsgd3uAFGo6IGCrQelOhlIeIfsC3sGsi6V6NV1foPBcFw8SygVRNMKfuab9Lq+KIrYsmULrrjqarS0tEAQBCQkJCItNRU2u827zEEQYNAb0NzcDLfHjblzZmPB/PlYt24ddu/ejZEjR2LMmDEYMWIEPv30U2zeth0e0QNBAiAAlnALxo4di+HDhmHJeefh/AuWdrsv0Jcf3VYqKwsbH0hWCZqmJ2l7Q6D82PYOBOtXtCxqUBmn04nS0lLExMQoXucfNM6PAA0lSRJEUcSBAwewatUqfP7lV7KMTqeDVqOF0+UE8Q7V8lFBo9Fg9KhcLFq4EBMmTEBqaiqSkpKg0WgQExODSy65BD8XFkKSCATivbRJ4L3aY9DpkZGZgblzZ+OWW27B5MmTgR6USw2lsrIMOf9J6PzBFIqFryx5RiIR7Nq9G4VFhSgpKcH69etRXFwCh9PhvRIDr7NSDAYjsrIyMX7ceEyePBljxo5BYkICDpUexLhx4zBm9BjodTp0dHRg06ZN+Pe//41P13wGl8sNQfBe3SHwTm/oGqEwsxGTJk3ClVdeiWXLliE5OVkuq+TraILgPdGG9+ARtMMFqjPe+dVQSh8Itc7RUweFQho+noWX5VGyTQ2a1wl1ft7oQBXNhtEnEX//wO/xxRefo8PWBZvNBqvVysgQ6HRaJCUlIS8vDykpKTCbzXA6nHC73QgPD8eIESMwf8E8/OMfr6OhsRGPPfooxowaDVEUsWLFCsTHx+Odd99DW1sbiM9xAe8P+gFjreBdMBcXF4esrCyMGTMGM2bMwIIFC5CZlQWNli6k855EseXgy8nD1xlPIOdXShMKgdoETB5qsoHgbVdKz5eV5gU/8v6gaU5q5//f//6HW2+9Fe3t7YDGm877oidAEIBhw4Zh4cKFaGhoQElJCaxWKzQaDURRhMvlBkCg1xsQFxeLrq4OtLW14c7f/Aa333orwsPCsWDBAlRXV6OppRXwrRTNzsrG2LyxiIyMQmxsDFJTU5GSlIiIiAjAN43SarWorq7GunXrYA4Lw/kXnI8ZM2YgKirKd8n1WJkCnR/wdcbDOwSLknyohNImarKBCMZ2vqw0L/iR9wdNc1I7/z333IOX//Y3SIRA0GowcuRIZGVl48eNG2F32KHT6REeHgZRFGG3O+DxeCBf/yTe0durk0AQvFOUyMhIXHLxMmg1GlRWViIrKwsTJkzE2LF5SE5OhsFggNFo9J5HaLVobW3Fhx++j5SUFFx99dWyffX19XjhhRfw+j9ehyUyElmZmVi8+GxcfdWVGDlipFwWvpw8fJ3x8A7BoiQfKmptwhOKLE8wtvNlpXnBjzyF103pV+f3t6oTfoxVMpLKSZLEFVaDTz75FNdffz1SklNw1uKFsNls+Prrr9HS0iLLyTqZu71yNoTI0xdCJGRkDMeiRYtx3jnnYNKkSbBYLNDr9fKSV3rTzisPWK1tWL16NTIzM3HWWWchLS0NxHe5s6KiAk8//TT+9ea/QCBAq9XCZDYhMT4Bl15yCW6++WYMHz7cV5ZjDqNULyy8Yynt8yg5iT+5UODzZglGP03P20bjlGDl2TA1lORJECe8/XKHFwoG8wZCoTJIt2mC4L1D19yMkoMHsXXbNhQVFR1bkelTR08yAe/JMQEgCN5LooCAcePG4brrfoXHHnsUixYvhiiKOHy4DLt27UJFRQUmT54Mi8WiOD3xeDxwuVw4//zzER0d3S1u06ZN+Pvf/442q9V7VJEkuF0uWNusOFxWhvXr1yMmJgYZGRny5Vco1IsSvAy/z4f5+x2IYGSpI/GygsI1f16GD+N/8+mVwpV08viT79c7vL2BNZI6PnyjrtPpxAMPPIC5c+fifx99hPr6ejidLricLnnRGYHvKo9PDfGN8uHhYZg3bx6efvpp7NixHRs3bsRZZ52F5557Dp+t+QwRERFob++A3W5HamrqcVM3WReA8PBwnH322TAajbK9giDgp59+wmOPPYYjR45AFD3ey6Ry5QNz5szB448/jp9//hk//vgjnE6nnLa/CEa3PycZLAy0TQM67VGCdXqNRoO6ujr84he/wLZtO+B2u6HRaLxxOh3TSYhvwRmQmJiIiRMnYurUqViwYAGm5U+DOSxMPjR4lzG4AQHQarxLFgTpWJEFQThu1KcjHdspBUFAY2Mj/vGPf+C9997DggUL8Itf/ALW9nb8sHEjvvrqK5SUFEP0eCBAQGJiIh5//HH8+OOPuOuuu5CXl8cd2ZThR1mlfTD1y8bzvwMRqI3YeghWVimMt3kgIEFMe+BwOEiwm91uJ/X19WTv3r3E6XQSHlEUiSRJRJIkQgjp9jsQoiiSrq4ucu655xKz2Uz0ej0xmUzEYDAQg8FATCYTMRqNcviiRYtIbW0t8Xg8cj6iKBKPx0PWrFlDJk+eTBYtWkS2bNlCPB7PcXL0N7+JokjcbjdxuVyks7OT7N69mzz88MNkxowZxGg0EqPRSK699lpis9nk/ERRJC6Xi2zbto3cc889ZMyYMcRisZDo6GgSExNDPvroI2K321Xzlbg6C3Vj0yrp8RcWLKw8r4ffWJlg5JU2Pq9QkSSJ2O12UlBQQKqqqkhbW9tx/tyrkZ+fMvgbbYLp8aIo4qmnnsJzzz2Hjo4O+WpLREQEZs2ahWnTpiElJQX33HMPOjo6YDabcfbZZ+N3v/sdpk+fDgAoLi7Ghg0bEBcXB4fDgaqqKlxwwQWYMGEC4Du6sGuE6D7d7HY7SkpKsHv3bhQUFOC7775DVVUVdDodDAYDiO9q0R133IF7771Xtl1phGtoaEBLSwuSkpK8l0B97+JXqwtWR6jw+fN6/IUFC2s7r4cnkC3BwOcViq0IcuTvU+enV2x6YnhDQwPmz5+PI0eOQKvVIj09Hb/+9a9x6aWXwmw2IywsDC0tLZg8eTI6Ojqg0WiQn5+PZ555BtOnT0dXVxdef/11PPnkkwgPD8dvfvMb3HDDDQgPD4fD4YDNZsPRo0dx4MABtLS0QBRFNDc3o7W1FQcOHEBhYaF8n4A6u963vn/hwoVYvnw5SkpK8PLLL2P58uVYsWKF30bmnZz+plM7f/TUURCEw/kLC5Yh5w/g/EqFDNboTz/9FHfccQfq6+uRn5+PN954A5WVlXjuuefQ2tqKW2+9FcuWLcNrr72Gl156CV1dXTCbzVi+fDl+c+dvEBMbA5fLheLiYrz66qtoamrCzTffjMzMTHz11Vd47733UFRUJD+9BZ9t1D6z2Yy0tDScddZZmDBhAiZMmICcnBz5cigAVFRU4I033kBcXBzuvPNOWQeLUmMphSmhFK9Up0oEcjh/YT2B18MTyJZg4fWEQr87f29OeAk3Oj7//PN4+umn0draiq+//hqTJk3ClClTUF1djTVr1mDx4sUghMDtdmPv3r1Ys2YNtm7dipSUFPz2t3dh6tR8r16JoKGxAXv27MGPP/6ILz7/HCUHS+C90XUsP0mSEBkZCYvFAofDgfHjx+P5559HTk6OYqcmhMBqteLjjz9GbW0tHnzwQVlfoLKy8I3JOwZtcKWG5+uMDVOSVYJNr6Svp7D59UQnaz9vO18nwegnQTi//2NwH8AXQg2tVgtCCKKjozFmzBhs374dNTU1EHzv4nG73YDvXT3jxo3DFVdcgUcffRSLFy/G0aNH4bDbUV9fj4L9BfjPe+9h5cqVeOGFF1By8KD8FKJOp0NkZCRMJhMiIyNx3XXX4fXXX8fKlSuRkJCARx55BK2t3qUOShiNRlgsFnR0dAB97DynG+QEPB/B068jPz8asfCO88UXX+CWW25Bc3Mztm3bhvXr1+Pee++FTqfD8OHD8corr2D8+PGIjo7G1q1bcdFFF6GjowOCIODMM87Etb+6Dls2b8aG775DaWnpMd3Ee/1fEIDIyEhcfPHFALy/b7zxRowc6V2KIAiCb3mEt4NRCCFobW1FVVUVsrOz8eGHH2Lr1q149dVXgR6s7efrhG98fpTjZfm6VJNVgk2vpK+nsPkFo5OXZ+1Xsz1Ym8mJGvlZ4/wZyofPnDkT6enpEEURH3z4IURJguC7QnKkvBzXXHMNXnzxJXz51VfYsOE7dHXZIGg00Gi0+H7jRlx33a/w99f/jtKyUnmkP1aJ3uvr8fHxuOGGG/Daa6/hmWeeQW5uLjQajWyLTqc77i6gw+HA559/jttuuw3Nzc1oa2uDzWaDMEhuFFEbBoMtoUDrL1S7Q5VXo1fOzxagp4WhxMbG4tJLL0VYWBjeefcdNDY1A4IGEgRA0KCxuQVPPPUULrn0cjzy2OMgvnAJ3ju9glYDaARAINDqtUhKSsDw4elITUvB6NGjcc455+Cpp57C2LFjj7OX3whzOG5tbcWXX34JQRDwww8/oKGhAR6PB1KQX3+huujG15FS3jSelwWnj4fXy6MUxsLr9JePP5TspbB6gtHL14s/vb2hV9Me/sSQh23IQEiShLq6OixZsgRFxQeQlTkCZYfLvNMKAkBgD/EAXb2m0+uh12shSSLcbjdESULGsOG44vLLkZWVBZfLhYyMDMyYMQPx8fFAEFMVtmHKyspw7bXXYvz48dBqtbDZbOjs7MRbb72F8PDwbumU4Bs5UH3wdcanZwlGFwsvr5QXv0/h0/LwaXnYeKqXz4uNV9MVDORETXt6SnJyMhYuXAiD3oDDR454e7zvySqALmITQJ/dEgQBRqMBI0aMxOKzz8YvfvELnHnGmcjLy8PChQtx44034rbbbsPSpUsRGxsbUqXSBrLb7aipqQEhBDabDYcOHYLD4fA+/KLimJRg8/OH0I8j32DiRJSvX50/1AIRQrBs2TKYw8zHHghh1+cD0Om0GDZsGMaPH4eo6CiIHhHRUVFYsmQJ7rrrLtx2+23QajUoKSmB3W6XdXd0dKCpqUm+zk83NahMV1cXjhw5gkWLFiE1NRV2u112/kA6EKID8zJqtiqFUdTi/MGPxDSMt0mJYGRY1OTV4vqSPnF+toH8NVagffgKPWnSJGRmZkHQ+J6JJd2XLev1ekyYMAHLli1DbGwsHE4nyg6X4fvvvsP777+Pr7/6Cnv27MW6detw8ODBbvq3bNmCo0ePwuPxBLSVhsXHx+Oqq67C3LlzcdFFF+Haa6+FwWDo9jglD6+b1e8vLz5ciUBOEUiXUriaPEVJJtS8WNsDlYOH19VX9Ml6fn+F4cOD2dfr9SgtK8XOnbu7vWPTJwDBN2d3OpwoLimB2+WC3W5DfUMDSoqLsWXLFrS1taGlpQW5ubmYMGECNBoNTCYT1q9fj++++w5ut7vbcmZ+dBNFUd43m82YMmUKpk2bhpiYGDQ2NqKwsBCjRo3qdpmUhYb5a3D+Ny/rDyUZpTA1gs2bDfcngwD5q8WFSk909et6frZH9sQ4FraizznnHGh9D4V7A31XdAC4PW4cOHAAn3/xOdrbrZCIBI9HRGNDg/dml9MJSfI6L39im5KSgjVr1uC1115DY2NjtzgWQfA+SFNZWQlRFJGSkoLExEQIggCTyQSLxQKXy8UnGzSoOWtfMRB59De9cn6lwtNK4eMEhZsX/D5NNy1/GmKiY7xv3fRevQSI97373jTMqOSbEmkEAelp6Tj37LNx2WWX484778SCBQug0+ngcruxb38BIiIjcP0NK2A0GlFSUiI/ZMJD7WCfVGPL5HK5YLfbjysjRWlKQPf5NHwd8Pirz2Bg0wajg7Wb30KFz6u3+nqT1h+9cv6eEqgAUZGRmDl9utetyTF5AQIMBiNyckZiWPow79VOAQAhyM3JxT13342H//QwVj30EFasWIGsrCwUFhbizTf/hQ0bvkNVdQ1EUcTo0aMRHx9/rAMpdFStVou0tDT5KS4q43a70dzcjM7Ozm5pKEplC9b5oJBezWmU9CmF+YPXFyo0fU/08Gn4fSWCrcNgOSHOHwzTpk0DkY69OArwOrogCIiOjsHS88/H9OnTAAgwm82YNWsWrrjiCkyZMgWjRo2C2+3Gnj17YLPZsGv3brz33nvYsOFbREREInvECJSXl8Nut/utdNoB+Mp2OByor69HR0eH37QsfPqTgcFmc187PWXQOv+ZZ50FgZnr+y7vw+124dChg9i8+SfU1tYiPDwM559/Pm655RZER0fLI6TH48G2bdvw0UcfIT09Hbm5OSgtLcOGDd9Cq9EgOzu727O5Sig5N30uoL29nY86pWCPVmp1NFAotUVv6XPnVzo8+4OtVDYNIQR5eXmI8d2Yoot16DX/1tY2/Lz3Z1RWVsLt9sASEYHRo0dD43thldVqxcGDB+F0OtHa2opNP27CiBEjcP/992HatOkoLilGTEyM7PzUZsJ8nUXJJrfbDYvFgszMTLS3t6s6BXUaVje/+SOQjFq+LIHyU9KjFOYPKquURilvtiMppWFRStvX9LnzU5QqmyVQYcwmI6ZOnQoAIL4nxAABRCLeviB4XyvudruwY/t2rFmzBoWFhSgoKMCmTZvwww8/oLCwEIWFhRg5ciRyc3MxffoMXH/9cvzyl9ciISFBdk4KX+E0jP7V+I4Ys2fPhtVq9bu+J1DZQiGQs7D29TVqupXC+or+1M3Sb87fW4hv3i9JkjzyazTeNzbA6/uAb03QoUOH8Ic//AG//OUvceONN+LTTz9FW1sbduzYgX379iEmJgYzZ85EfHwc4uPjMWb06G7rcqjDC4IAt9stdwre4QRBQHh4OKKiouRHI4c4eRm0zg8A55x9NjMKCPLCNNkpfSfAbrcbjY2NGD9+PO699175iszIkSO9D7BERSIhIQE6nR6A0O0aPT/6f/HFF4BvOcTLL7/c7XJoc3MzduzYgY6ODlitVtV7BUMMHOwRO5SjRp87v9AHJ0nUISdOmojwcDP0ei1iYqKwYsX1vpdE+b6aSLzv05eIhNlz5uD+3z+ACy++CNf+6lfQarU488wz8eWXX+Lqq66GJSwcGgACIfJbGaqrq7u9G4j45vySJKGrqwt///vfUVxcLMc1NTVh/fr1KC0tRVNTE8rLy4+rcKVys3WiVD9qDUfD+Di+0waTrxKsfn8yNC92Y8P84S9fpTA11PKAn3LSNGp59bnz9xUajXfF5owZM6DX6/Hkk0+gy9aFyy6/7FjBfCs+p0+bjgf/8CBycnLhdDpRXFyMnTt3ym94sISHdxvB7XY7fvjhByxfvhxbt26Fx+ORH2o599xzAd8of+jQIfz+97/Hpk2boNFooNfrkZeXh+uvvx6TJ0/2e62/Nyg15ImCzX8g7GIdtr/zwmB2fvoalBkzZsDj8UCn08Nus+HaX17rHXlAv5SoQXFJCd58800cOXIYlZVHsXHjRlRXV8Pj8eDFF1/E22+/DavVKlfuhAkTsG7dOmRkZOC2225DYWGhHBcWFgbB90ijy+VCUVERKioqQAiRl1ybTCa0tLSgtra2140zUA3dGwKNvP0Be5TpLwat8wu+w+pVV10Ft9uNt99+C8uXL0draysWLFjgfVcnIQAIOjs78O9//xt33303jh49Kp8btLe3Y/fu3XC73YiIiJBH98zMTHR2diIjIwMNDQ249tprUVdX1+29Q3FxcfKLqiIiIrwdzvc01/XXX4+ffvpJXufPwjYaH6dEqPL9CW8L3U5EpxyIAaFfnZ9vTFoQpQJRZwfXCDk5OUhISMCuXbtx6FApUlJSMG/ePBAiyUsfiO+m1tq1a/HDD99j/vz5yMnJQWxsLMLCwhAfH4+wsDAcOnQIzz77LMrKynDOOefgs88+g9FoxKFDh7BixYpu9oaFhWHBggVoaWnBe++9B8H3rs7Dhw9jxYoVuPrqq30v0HV2Kw/baErl5OuEoiRL8aeLRUkv78RKMmyb8Bsbz0M7BRvPth8bzsspoRTP2uzPfiiUE4w+f2nQ387fG9gKu+SSS2C32/Dqq68gKirS+w1eeUEb/VKLgAkTJ2LevHm46OKL8NZbb2Hp0qUICwuDXq9HVVUV/vCHP2DVqlX4/e9/j/z8fNhsNjQ0NECSJHz33XeoqKiQ87RYLLj77rsRExMjL2VwOp0YPnw47rrrLqSlpaG+vh5VVVXd7B6i71DqEEqwHTbYNOir9fwsfOb8fiD4HqvxvVn53++9B7vDgdlz5uCbr9dif0GB/DEKbxqCxoYG7N9fiMSEROz7+Wfcfffd+Omnn1BfX4/XX38d27dvhyiKKC4uRnZ2NkaPHo19+/YhPz8fy5cvx/nnn38sTwAJCQlISkrCjBkzMG7cOOj1esTHxyMxMRGVlZXYtm0b8vLyMGLECNl+Jfg64PfZMLW4YPb5OJ5A8Txq8kpxauUIBkHhIX4+Plj6dT1/fyL4erEkSZg7Zw5SkpNht9mwft163HTTjYiKivLeCSPeO8Dey5FAUVEhnnjiCRiNRixevBharRY//fQTDh48CMG3WE2n0+GJJ57AsmXL8I9//AOff/45Fi5cKFe8JEnQarWwWCxYvnw5Lr/8chDf3N971AHS09ORkpKC6upq3vR+JZTGP5lRm670Fb1yfqW5ltK8Swm+cHxvp5tOp4PJZML1y5fD3mXDd99+C71Wg6VLlgDEu+hNEARoNXoI0ECAFoVFxSg5eAi33no7br7pFu8aIY2AmbNnY0p+PlLTUhETEwNJkrBkyRKYzWbMmDEDGt/H5uiJMf2ttEVHR0OSJJSUlMDlch1XF3RTqgO+zii08/HhFF4XrSM2TilvPh2VCwZ/9ijpVMuPh68ncOl5HWwYn5bfgqVXzj9Q6PV6XH755TAajWhubsYnn3yCuXPmMBXSvaI0GgEFBfvR3NSEBx64HytuuAGxMTHYvn0bLl52MT7/7HPs3LkT48aNO66SgyU5ORnDhw9HZWUlqquruzUgu51IQnEEJU60/f7g65jfguWkcH5BEJCWloYzzzwTXV1d+OGHHxAbF4cU38eg+QILEFBWVobCwkK0tbUhMyMDiYmJAIA1a9bg3XffRVNTk3xpM1QIIYiKikJubi6am5vlB+X5Eag3ztfb9Cw91dPTdCcLJ4Xzw/cg+f/93//BaDQCELB+/XosOOMM34Nc3VdXEhDU1tTgq6+/xlNPPYUnn3wKBw4cgN1ux7KLl2Hr1q14/vnn0djYKC9dCAXB93xwdnY2TCYT9u/fL7/n81Qj1NGUEsogoKQ/2LS9oVfO7+9wo1SYUFAqtMFgwNy5c5GXl4eIiAiEh4UhPDwckVFRx017AMBgNCAtNRX506bhzLPOxLhx4xDtm/rkjhqFzz//HPv374fb7ZbX89BNreFomCAIGD58OBISElBUVISGhga53Gyd8On5eLqvFq+kA34cjE2rtFGobf50Q8EuNXg9/spGUbKJhbeb6ufz6Q29cn41+tJISmRkJK644gpUlJcjIzMTu3buRGRkpILrA6JHhEajxeJFi7D6pZfw/PPP49ZbbsXs2bMxblweBEFAaWlpt9eUhGIzIQQpKSkYN24cKioqUFRUFFL6IU48fe78gUaTniII3md1zzjjDIRbLCjYtw9z5s71e6nRI3rw9Tdf45u1a2F3ODBnzhw89NBDuPXWWzF//gJER0ejo6Oj27zfZrN1G/nVaG9vR1VVFaKjo2Gz2VBQUCB/Q+B0IJg6Guz0200uf4czFl4mmH2DwYCWllZs274NS5cuwc6dO9He0QH56RYQ34tsvWvyGxsb0dHRAYfDjvDwMJjNZsTGxqKxsRElJSUYMWIEWtvaIIoe7Nq1C5u3bPE+LCkI3nVCCd51QiyEENTU1OCbb75BU3MzGhsb0dnVhSlTJiM6Ogbe5N2nGCy93Q9ET+UDObO/Mqm1uVpcqAgq0yQlAt3k6hfn92cgYdaB83/BVRSvg8oYDAaYzSasW7cOWq0W8fHx2L9/f/fG8P2PEOBoVRW+//577Ny5E/X1DRBFCbFxsZg9axYqKiqwdu1afL12LdrarNj44494/InHUVVVjZjYGHz51VfIHpGNGO7r6/B9SaawsBDWditSUlOwc/cuZGePwKhRucc5Bl9OGq4EDefrxF8YrSs+jMr7ywcK9czq4uNY+HC6z9vqT47G0zAlWZZA8f44Ic6vBl9RrLxaWloBgm/609DQgC1btmDq1KnYv78QDodvvb7g3ejLrLxLIAgaGxuxdetWFBTsQ31dHUwGI2bNmoWPPvoI69avR0VFOY4ePYqWllZUVFRAp9MjPDwMP/74I8aOGYNorgOYTCbo9Xro9Qa0d7Tju+++g8ViwaRJk2FhHpEMtZxK8jyBdAWKpwTTGZXgZf3ZHGifDVOKYwkUr8Qp4/xgGstoNMJk8o7+Op0O6WnpOFBcDPje8OaVo7q8cyBB8K7ZaWxswrbt21F84AAaGhpQX1+P6ppqNDU1obm5GYIASJKItrY2/OIXV2P16tVw2B2YPn36ce93j42Nxf7CQrz88ssoLy9HZ2cnxo4dixHZ2ceVj/8LlWkGK8tufDz/WylMKZ4nGBkWXl6pbMHss2FKcSyB4pUI5Py9OuElCpfa+HgWvqDs32AKR+V0Oh1yc3OxYMEC7Nu3DyNGjsDkSZNBiHd9j6xXIS8AACGoqKiQ1/wcu0ZP1/YQtLQ0Y/PmLfB4PPjkk0+wceNGOTm1Q5Ik6PV6JCcnIyoqGsXFJVi7di1qa2sVR1W+jHz56T5Nq1avSuG8/kAEU+9KMjRvPo73Bd5OPp6FD/Mn15f0+8jPV45SeDCwDiIIAoxGI4xGI3744Qd4PB7MmTsXlRWVaG/3vjpc8P2PPvEFCPQV/4iMjMKCBQtwxeWXY+HChZgwcSIiIiKh02nR3NwMAJAIwZHDh9HR0QlJFJGUlISzzjoLhJl+CYKAlNRUjJswHi6XC4cPH0ZF+RHkjMzByJEjFd/4pgQrQ38HClPapwgK51F9hZot/jY1eBnWdrrP/qX1HwyBRv4Bdf5gKyQYBEGQPwv67YYNGJuXh7Fjx+JA8QHvB+N8Ti+/7Nb7qn8kJyfjnHPPwYrrr8fs2bMxe/Zs5E/LR1NTMyorK1BVVeWzz/umZq1Wg7FjxuCSSy7BmDFjujWGRqPxfrw6PR1pqamwWttQXl6B9vZ2jBs3DklJSUGVVUmGrzclggn3J9NT2PIHi5JssH7AywWThhLI+Xs17QkVtcNeT4iJicHZZ5+N9LR0/PDDDxgxcgQuvOBCmE3mbnI0T8H3rk2NRoPcnBykpKRAq9XC5XJj48aNKC4u8dnm7TA5OSPxyCOP4JFHHsHChQsBhcagZcnLG4dLL71U/pzqf//7X9TV1clyfQXNPxQnGIz0xA9ClQ9Er5w/UEPw4YHkQ0HwLTkePXo0LrlkGQ6XlWLb1i0466wzMG1aPkAIBALfuh/BV1QNrNZ27Nq5C0ePVsHjEQEI2L+/ADZbl2/K5LXNO+9vQ011LcaOy0NkVBSIbzrEdmKq2WjQI3/KVFx91VVYsWIFioqKsGnTJnR2dnZbNqEEPyjQ+ulpXbH58LpDwV9agVkaoRSvBNv2/vxAKSyUPEKlz6Y9bIMNBLSiDAYDYmJiUFlZiW+//RajR41CfFw8du/eDUkUfR9t9FW2719HRycs4RbvFRyjGTqDHjU1Nfhx0yZoBAEg3qfHujq7cPDQQdTUVGN4RgaSU5J9F4+6zzup7rCwMPldnlqtFt988w2GDRuG5ORkvw3OEyieBJjzquWjFKYGr+u4Mqvk1ROC0aMkw3cMKhNo2tNnzk9RMq6/iYiIgFarlb+5lZ+fj9jYWJSXl8PldMH7lvNjdklEQmZGBn7++WeMzBmJ9GHpyMrKQktLCwoKCiAI3o9fC4IAh8OBgwdLsGPnDmzdug3V1VVISkzyPknmg3UO+n6f4cOHY/fu3di+fTsmTBiveOdXiUDxCFJGiZ6mo/Q2fSCC0a8kQzsg3SinhfNrfF9X7+zsxJdffomIiAhcccUVEAQBpYdK4VZYbiwAmDp1KnJzchATF4vY2FgMG5aOzz77zPt1dwgQNN7LmW63C7U1NSg5eBC7du7EkcNHkJ2djaSkJK8upsy005hMJiQlJeH9999HdXU1Jk+eLL8TSI1A8VCR4UdAHn/pgqW36QMRjH4lGb7cVKZfnZ8+6M2iZFwwBDqcK8GmMRqNiI6OxuHDh/H99z9gVO5onH32YpSWluJIefmxy52EgBDA2taGsrIy7N27F0aTAbm5uUhMTER+/jR8881adNm6YDaH+U6Iva8nkUQRHe0dKD9yBB6PB9OmTZMdmm4UQRAQGxsLm82G999/HxqNRn4Inp3HsmmDKb+ajJIudp+vY36fDeMdCkze/tKx8PE8avJq5VBCSR797fyhjvxsxSrJKYUFguqD744rAOzYsQPV1dWYM3cuIAjYv38/HE6HVx7wXvaUJLS1tuLo0Sp8v/EH/PTTJuTn52PcuDz898P/oam5CcnJSVi5ciXy8saisbERLS0t0Gg0cLlccDgcyM7OxpgxY2Q72L/E90rz3Nxc7NixAx999BFGjRqFrKwsaHzPCFP5npQ7WHjdgfb9hUHBQdUIFM8TSD5QvBKDyvmh4CRKcaFA0xBCoNPpMGzYMLS3t+Prb75BXFwcsrOzUVxcjPqGBvnGF/FdpREEAW6PBx2dHaisrMTHH3+CtrY2LFl6PrZs2YzmpmYUFx9A1ohs/OpXv8KwYcNQVFQIh8MBSZIwatQozJo1CwLjwHREByA/KjlmzBisX78eX3zxBaZPn47k5GT5QXi2DP0BrzvQvlKYUpvxMjyB4nkCyQeKVyKQ8wsOh+P445sfCCFob29HbW0txowZA71ez4uoGqk28iuFBYLVRx2OEIIDB4rx0B9X4eChg7j3nnvw6Zo1+Ozzz7p934vmJAgCJIi+tEBYeBji4xJgNBpRWloKAQJMYUYkxMdj3rx5mDp1KlqbW6DX67Fw4ULk5+fLemj+9LLmvn378J///AfLly9HSUkJbrvtNiQlJeHjjz/GsGHDIPhOkNly03JQQq0TFr5OA+2zYawdfJv5S8fCx/OEIq+UXyCI7yVjpaWliImJgcViOW5tVq9Gfp1OB8HPfEsJGq8kpxSmBlsh9C8dTeNi42Aym7Bl808QJQ+iY6JRebQCXbZOaDSCd/2PRgPJ1wASIb7XnnhfUNve3gFrm9X7TiAQeNwutLd3oLi4GFu2bIUkSTjn7LMxc+ZM6HQ6uSHpX1oXsbGxeP/991FUVIRLL70UiYmJWLNmDbZu3YrLLrsMJpMJRPDdO/B95UWuS98/5iKVnAdbV6yzKtUhG8bH8/tsmL+//G82jN3YuoCC3bx8KAQrH2jk75XzK017BhK+EtiGysnJgd1hx0cffYTF55yNmJgYHDx4EC6XC4LgfR8/tV+SJMybNw8XXHABJElCXV0t3B63/A0wr4wIjyjC6XCgrKwMn61Zg3Xr1sFkMmH48OEwmUzHNa5Wq0V6ejpefvllzJ49G+effz5iY2PxzjvvoKSkBBdddNGxt875TsZ5Z2BtoKiVm0cpLBSEACe/geDrpCfQOuHrJhCnpfPDdxQYNWoUSktL8d333+Oee+7FqlWroNfrceBAMRyO7i+Y/ctzf8Htd9yO66+/Hg/c/wCm5k+F3W5HUVERIiMjsXTpEiw8ayEqKyswc8ZM3HP33bBYLHjttdfw7rvvwmKxICsry/d2CS+EEKSlpWHkyJEAgNTUVEyfPh02mw1vvPEGSkpKcMmll3jtZUZv3mH4hvdXbj7cX1gosLp5OwLBy/H7/U0g5z/+WmUIkBBvcQ800dHRuO+++xAXE4t33noL9i4b7r37HowbO9ZbcMm7BEKr0eLqX1yNTz75xHuNXyNg6ZKl+PDDD1FbW4s/PvRHHDpUClH04L///R8SEhLwxBNPQBRFPPnkk7jzzjuxadMmLF++HB988AHa29u7PRu8cOFCzJ8/H2azGYJvnq/RaPDxxx/jyiuvgs3m/R6wknMMljoO1Q6lsgw2ejXy83N+fw0YDEoVyuqSmDmxv3xoGGtTbGwskpOT8e9//xtarRYTJ05EdHQMdu7YgfaODvlmliiK+Oh/H+Gl1S/BZrOjs7MTTc3NqKo6iqqqo9ixYwc2bdqEgwcP4v9+8QvcdONN+Pnnn/Hww4/go48+wc97f8bBQ6X4f/9vDYqKDiArKxuJCYnQaLWy7dTu4cOH4+2334bT6cTBQwexadNPWLRw4bGP5BHv55aAY59hpfDlZsusVIcUPl0wsDrZOlXKK5B+Pl4tPR8HhfTBEGjkh8PhIMFudrud1NfXk7179xKn00l4JEnig3oMr4vf51GLlySJPP/88yQvL4+88cYbpK3NSh58cCXJyswmlvBIojeaiE5vJHqjieiNJqLR6YlGpydanYEIWh3R6LREbzQSg8lINHodCbdYSGpqKklMTCSRUVHedIZjm85gJFkjRpI3/vUWaW5uIW63m4iiSCRJIqIoEo/HQ958800SFRVFtAY90Rn0ZNKkSWTTpk2kq6uLSJJEJI9IJFHkixISkiTJW0/pbfqewNrd0/wlSSJ2u50UFBSQqqoq0tbWdpw/92rkV5rz96SH+oPVxY8MSvkohVGmTJmC6upqvPXWW4iPT8Dy5cuxZMkSHDlyBBUVlRAlEVqtFqIoypcfNYIGgkbwXSGid2Q1sFjCcc7ZZ+Oqq66C0+FEdU0NREn0nZp6bbNarfhx04+IiY7GyJEjYTZ7l1nT6dCkSZMgSRL27SuAy+WEVqPFBx98gJiYGGRlZsJk8p47CAp30XuCWt0EQ2/T95ae5B9o5D9pnJ86PHsY5lEKgy+tRqPB1KlTcfjwYbz11tswmYyYMmUKtFoN9uzZg472dhCfDtbxfc9FyroFAfB4RJSUlGDDhg2ob2iE2+P9QqRWq0F6ejoSExNhNJrQ1dmJrdu2ICkxETm5OTAajN3qbN68eYhPiEfh/kLk5OTg4MGD3i9FVlcjOysbFosFBuYEOhBK0wWKv7ph4QcVXl8wOoIlVN2B4pXoV+fvzdoevqKVYOOPOd/x5xfB6IJv/c/kyZNx+HAZ3nzzX2hvt+LCCy/AiBHZ2LlzB2xdXSCSBI2gBejX1QkAeB8F0wgagAiIj4vHuPHjYTCaYbPZYLfbQQgQHR2Fhx56CCtXrkRSUjIOHixBbW0Ntm3fjsysbGSPyIaBuTEoCALyxo7FzJkzsXnzZrS3t6O9vd37FfmfNsESYUFcXJx8okyPPmx6flAIBqV6I76bc+w+nyaYOlYbnFhbqb5g9QYjw9Ovzh9o5A/klGpxCDE+kCx8MhaLBbNmzUJDQwM++OAD7N+/H9dddx1SU1NhtVqh1+vR1toGQeNd1qzRaI75v++mU1hYGObMmYPzly6FoNGgvr5O/iJ7eHg48vLyUFZ2GKWlpXC6nOjq7MTu3bswdmweMjKGe48q9Aij0SA1NRUXXnghkpOTYbVaIYoiKioqsGHDBlRUVCA6OhoRERF+V4UqhQWCpuH/+oPaG4hA+gLF+yNUeZxo51cLg0o4JZT4QLIUQfA+dDJz5kw4HA58++23KC0txfLly3HHHXcgIyMDdfUNaGhogCh6lz14E3qdX4AAm82G3bt2Y/ee3d4rNARoaWmFAODgoYOoqKhA3tg8ZGVlITo6ChEREYiKigIhBLk5ObBYLMfZbjQaMWHCBFxwwQUYNmyYfCXtwIED+Pbbb2G1WmGxWBAeHg6z2dxthA227ErQtA6HA6WlpSgsLERFRQVcLhcsFovsMIHyYQc6NblgZJQIVR6Dwfn5fYq/cJZAMqFUJG08KhsWFob58+dDp9Nh3bp1KCoqQnZ2NubOnYtFixajsrISBw8e9DqZT73g++g1PSLYbXaUV5SjuaXZOz8SvCe0Rw4fwZdffYXS0lKYw81IS0tDWloaNBoNDpcdxpQpU6DX67stbKPOYzabMWHCBCxduhTz5s3D8OHDodPpsHnzZnz11Vew2+3Q6/UwmUwwmUzdpp6BjrQshHi/ZUwIQWNjE77++hv89a9/xXPPPYcPPvgQXV025OdPlTsqW3dqBJIJpc1YQpVHfzs/f51fyUClsFCg6fmGDaSXH4mUNq1Wi5kzZyIxMRHfffcdvvjiC28cNBiZMxLr1q6D0+X0uT2TN/tbOLYOR/7nm850dHSgrKwMP//8M3bu3ImfftqMMLMZF110kbzISvBzZ1en0yEhIQFTpkzBueeei/R070P6n3zyCXbv3o22tja4XC4YDAaYzWZotVr5aED1KkHzIoRAJEBtbS3+8Y9/4oknnsSevT/D7fY++JOTm4tFixYiIiLiONv8oSbDtx84efZIRv+yW0/oV+dXGvl5emo4hU0fqq5g5ceMGYO8vDwUFRXh1VdfxZYtW3CkvBwVlRXKb14WmI3rDMfh+0o8dbgV16/AjBkzoNPpuo38/qBHmdTUVMTFxaGsrAwFBQXYuHEjdu7ciepq79vmHA6H3BHopVo1CCGoq6/Ha3//O1588UW0trZC0AgQBA1ycnNw/fXLMWP6dIBxxEAEkuHj1fb5uJ5wUjs/n5bfD0Sw8oQQpKamYs6cOfB4PCjYV4Ddu3fLH5pT0uPvSMCj1WpgNBoACCBEgkGvx8SJExEfH4+WlhYYDAbZWdlRmc/TYDAgMzMTaWlpaG9vR0tLC6qrq7Fr1y78+OOP2L9/P8rLy1FTU4Ouri5otVr5iEAh3LMGr/3973jppZfQ1dXl66QCUlNTceMNN+LKK6+E0WCQ0/L2KBFIho9Xc3Z+vyecUOfvTQH4tPx+MASbhjqbxWLB3LlzYbFEoKW5CbW1td5lz4IArVaDqOhoWCzhsrPIQz8E75yf0CBvdyAgMBj0iIiIAOD9YIa1vR2VRytRXVOLL7/8EjW1tcgbNw46nRaEADa7HQX7CxAZGYXOri6UlZWhvr4ehEiIjIpEbm4u8vLyEBMbg7CwMPkj2y6XCz/88AM2bNiAgoIClJSU4OChQ6itq0drSysgAOHhFmgEDdqs7XjllVexevVqdHZ2yOWIi4vF1VdfjZtvvgnRMdHeg5tCHdIOyu7zv9kOzHY6Xk4JtbhQCOT8vXqYxeAbGfiCUdhC8KOZ0j5PbypBbRSl8SysDHWk999/H2vXrkVjcxMSEhIxYuQIJCUmQpIk+VFJQdAc6wTU/31Xhgi8T5cZjUZ43B643N4jiSRJMJnMcDocSElNwurVf8P55y9FV1cX1q9fj8bGRmi1Wt9oXgFCJCQlJSEjIwMjR47EpEmTkJCQgMqKClRWVKKzsxMA8Oqrr2LHjh3yu0d1eiOGDR+O1NQUZGZmIjMzE/HxCairq8Wrr7yKNmuLt6P6zM8bNw7PPvMMFixYAFuXDXW+d44mJSUhIiLiuJNr2jHHjx+PyMjIbnHgOgLbDkKQ0yiKvzZUgwTxMEufOD+N4+GdO9A+T6gFZgnk/Cy8jCiKIISguroaX3zxBf7fZ5/h0KGDGDduHCZMmACNVgtrWxsqK49iy5YtaGpqhiBovMuSfYscqPN7//MeEgT5DdJevHlKyM/PxwMPPIDy8nJ89NFHSE1Nxd69e1FaWgqJEMRER2P69OkwGIyorKxEbm4Opk+fgTmzZ2HsmLEIDw+Hy+XC2rVrsWHDBhQXF6OwsBD1jd7HKGkZtVotYmJiYLfbYeuyAUL3D/klJiXh7MWLkZKSApvNhvraOkiShJSUFGRlZWHkyJHIyMiA2WxGeXk5PvzwQxw6dAj5+fkYM2YMYmJivFfB7HbYbDZZb1xcHObPny+/7uWUcH69Xq/qwHxcoH2eUAvM0lvnp/tOlwu7du3C2rVrsWvXLrhcLqSnp2Ps2DGwWtvRZbMd6wSNTV4FzMjv6wsAfJ3A2w+8+glAIEEQNBg/fjxaWppRV1cPnVYLh9MB4nse4Jpr/g8XX3wxioqK8Mgjj6KiogLxCfGYMG488qdOxZw5c5CTkyOfD1RWVqK0tBTVtXU4dPAQikuKsWP7Dki+r1ZOmjQJc+fMRUJiHASNBu1WK5qbW9Da2oLW1lY0NzejpqYWba1t8Hg80Pg+up2eno7U1FSYTCbU1tagsLAQXV1dMBgMSExMgMUSAbPZBLM5DG6XS552REdH45prrsEdd9wh12ugNmHh2ycY+t352ZGfxqsZycZTZw8kD5+MmrxSvkqdiYW1g0/L3uaHrzO0trZi8+bN2Lhxo/zxudzcXIzMyUVjYxM6OjrQ3NKMn376CUePHpVHeurshBzrCIJG4z0noDYKdA2Rb9fXcaKjo3Hhhefj8ssvR05ODrZu24Y/PPgHHD1a6V3wJhGMys1FWloawsLCEBcXh5ycHEyYMAHjxo1DTGw8tm7bio8//hhvv/02XC4XdDodbr75ZsyYMQNms/c+gcfjgSR5F/RptFrYbDYcOXwE3234Htu2b4PD4fC9+c5nL4HvRWAUAfn5U5GVlQWDwQCtVguXw4GKigrs2rULoihiypQp+OGHH+SpEzuFCgTflnx7KTFonZ8tTCB5+HF+Ni8+jg2j8HFKevzF087g8XhQU1ODrVu3YvPmzSguLobT6cSo0WOQP3UqRowcAZvNhm3btuH77773fqRO9GDYsGFoaWlBa2sbAN+SCbkuvI4gihI0Gu99AkpYeBhGjvS+HCsxMQl1dbXYsWMnZs6cAbfbg5rqauTm5KCgoADl5eUghCAmJga5ublISEhAuCUSLa0tKD9SjsOHD0OUvF+oHDvWe9T2eFwQfN87MBqNMJvDEBbmvUJks9lRXl4h3+2Fr1OyHDuSCcjMzEBCfAIgAG63Gx6XE62trairq4MgCMjPz8d3330HMI7vr014lNo3EORUc35/lRVq5fBp+XR8mOR7GwO1w+12o7q6Gnv27MHmzZtRUFAAm82GOXPm4NJLL0VycjJqa2tRVFSEH37ciMOHDyMnJwfZ2dkoLS1DWVkpiouL0dbWBkn0OoPgWzbNvmHCezfZ+6yxyWyCx+2G2WzG5MmTYbVaUV1VjfCwMDQ0NMjrii699FKUl5dj+/btsDucECWp2yhLy+DdJO/RSaBXp7z/8xZd8Lo7Uw9qzk8fwCe+Jd0aeAcNjUaDrKws3H777bjlllsgMPN9f+3ZF5CT3fmDRcn5e5MHXw560khhO0F9fT1KS0uxc+dO7N27F01NTUhPT8e8efMwY8YMCBoNGhobcfToUfz888/o6OhATEw0hg/PQFJSIvbs2YcNGzZg586dXmdkHMzr/KLsnPDd+TUajXC73d73kMrSQFZWFrKyslBaWoqamhp4RCLP8wVBAJEICAi0Gt/dYIF+ycab/thvr+PTKqTxas4P4tUdGxuHrKxMZAxLR2xsLKZMmYLRo0dj1KhRiIuL67HzB4rnOSHOT1EylHd+f4VXKigfxu/3JbxutlwUthyEEFitVtTW1qKyshIFBQUoLCxEQ0MD0tPTMWnSJIwaPQrhYeFo7+jA5p9+QllZGdrb29Flt6Gzswu7du0CAGh8b3MghOZL64zm7Hu+wCcjQAOfGyI8PBySKMLpdMqvZTn20l2vPNXn9dvu7UCI92VeEARvRyS+fkBlCaDX66DT6+HxeOBxuyFKEuLj4nHeeedh4cKFyMjIQGRkJCyWcBiNRsTGxiIsLIwaL8O3nVqd87LBQE6k80PBaFpAvqBsHP9bKV5pvy9R0s3aDoWyUTweD9ra2tDU1ISqqioUFRWhvLwcRUVFcDqdSEhIQGJiIjQajfeNciNHwO12Y39hIVqam1FVVYXS0jI0NjbA5XLL0xK9To+0NO+VlvLyCnR2dnqXTfhOjuWrSwzs3FqSJO+UytcLfN22W3sQicivUgEhXo2EIC4uDjNnzsTcuXMxevRoxMTEwOPxoKSkBEVFRTjzzDMxceJEJCQkdFuzxBNs+wbyo2AgQ87fM5R0s7ZDoWwUGk8IgSiK6OjogM1mg9VqRWVlJcrLy1FdXY1Dhw6hqKgILtEDAQJiYryXEpOSkhEWZsawYcOQk5ODhIQEeW2QdymEIHeqmpo6uN1uGAzel/RGRkbAaDBCIgSNDQ3YX7gfa79Zi/aOdkgS8X57QIA8ktPyyOc0vmmNIAiIjIzA9Gn5OPfcczFt2jSkpaUhOjoaYWFh0Ple1GW329HV1YXIyEgYjUYQ+vyDQv1RvQhQv/Q3Cy8bDGTI+XuGkm7WdiiUjcLWAftbEAS4XC64XC7Y7XY4HA7Y7Xa0Wa04fPgw6upq0dzcgnarFXV1daiqqoLVaoWg0SAqMhKpaWmIj4tDTEwMwsLDoNXqoNVovTfXNBpotVrY7XZYrVa0tLTg6NGjKCoqQl1dHQj3yhHiu+E1fPhw5OXlITMzE8OHD0dsbCy0Wi2SkpKQnp6OqKgIREZGIiwsTPGkmf4OlmDbl603BJGHkjw5Ec6vZijrQLycUpga/iqL16GkVymsN6jpC+Qkoih6Lw16PL7r7RI8Hg9cvptEoijCZrOhqakJDQ0NaGlpQWdnJzo6OtDR0YHOzk60tLTC4bDDoDcg3GKBIHjfRQRBQFRUFKKiImGxRCA6OhoZGcMxbNhwmExGGAwGGI1G6HR66PU6ea2WVquDTnds3RZtMxY2TKlsSu2jJEdRkmdRS6uEJElwuVwoKytDdHT06eH8YBqmr/IKhJo+tTj4sZ2No5vk+64XXXpBw4hvesWmpxvxjfDUqTW+l2XR5zDY/ALZqQS1XSkdq09NjqIm0xPbhpy/j/IKhJo+tbhgINyiMB6lOMF3gkt/U9h6ouFsHfJ6KP7iqD5/cXz7KMlReBmlNg2FYJw/+HvMJzHUgejWn4SaV7DyNE5Jhk9LOMdj49SciLeFbmpp+guhl09xBUO/Oj/fUPxow8epNTC4hmR1sBXFhrOySvGsDI+SLWz+/lDLCyr5KclS6HQFCk4hcO/45/PnZVl5Nk9enk2jBO0UbDxbZ0q61VCKZ+tbre5pHCtD9flLg/52/hMJ34h9QV/qGsI/vAMHgm3rYNPgVHb+voQdPUKp3CF6TqgdoCecss7PHwZ7i5qe/mwgnoHMa6AZ6LL1yvmV5lr+9gNBmHmiWiUIvnMDfuNhD4NKsvS3v7xYW0I5nPJ58en4fRbWViX4tKxd9C+ftz/7/eXBw9cZ/cvrA1dngeDriUXJXjaMT8tvwdIr5z+RqDXsQMNXvJpdPW2onkLz6EleauXoLb1pPz4tvwXLSev8gwUlp+oL5+5tevixbaAIZP9ADwJKnLTOz1cev7GEMhoEg798lFCza7DD203rsa/rM5C+QPE9pU+cnz3c8IegYA9FvIySs/CVH6r+YGUDwZdNSTcfHmjzp5+HrROl+uHTsn9ZfUq6eXhdavizJVB8MLp5eF1KvhIMfeL8/UVPKmaI05Oe+MqgdX61UWOIIVh66it96vw96X2B8FeY3uTVm7SBoLr92R0I3ja1fT7udMFfuUOt8147vz9DQsWf4ey8kMoEIxsIXjaQ7v6it/mxdveFLn5Tg5ULVO+B4tUIZAdFyVfU6JXz96ZApyrUEQSFB0BONWg5lfwglE7UHyjZxNMr56ecqAIORqjTBzMansqwHWOw1kOfOL+/AobSIfj0bFr6m8rwskrwHVJtFOIdVUkmFPzVB4W3hd9n5Xj4MLZOaMdjUdLrDyVnDSU9Ww5+4wkmvr/plfPzBRgIg9VQy1+pYYNBTWdP4PXxdvHx/D4bphRHUYsLhmDqSa3t2XIFq0vpd3/SK+cPVDh/4UMoE0x9qdX3QBOo/XuLUqfqS3rl/P56PU+geCXYCu2vyqUMdF797TR9RSA72fY/mcpF6ZXzB1tgtbhgUTvEUvh8+H346YhKYRRBZR6tZos/QkmrVK98Gn6fyrN/6W9etjfwugKViw9T8xs2Tim+r+iV86vBF3YgUaq0vrSHbxiqO5g8+rJh2fTB5B2IUHT0VzkGkn5z/tOFgW64gc7vVKZXzh/oUNeX9OVIcyowEHUeCidj+/TK+SlKhe7rCgimo/EyvDz/lw+jG287v6+kWymO3+fl+bShwNsEhbz4MKU0/uB18VsglGR5HezG26aUvq/pE+cfDCh1QKU4pfj+gObTn3nz+vi8+C1U+PQ90UVlQ00fimxPOWWcn6U/K0wJPj9+/3RlsNfDKen8CHHkCHVU4mEPzT1J31P6c0rQWwLVQ2/rvC/olfP31nDaeME2IltZfBq1+aHa/FLJfjVdUGg4qoO3S0kHn7eabVCwnYfPW0mGohZHCaSDwsrxNqptVJ7/y8bzcf5k/BGsXMjOH4oRAw3vOBQlRw1EsHKBYOtLqc4C2RYovi8JNS8qw6dT2nh5Nfh6UtIVLGryITu/0jdUBwOsPXzlhUpf6hpoBlu79ITeloHtZGrtF/L7+a1WK5qampCUlCR/9GAwQRSmDj2lL3UNBgZreaiD9qVthBB4PB40Njb6fT9/SM4vCAJaWlpQWVmJCy+8UP4y9xBDDEYiIiJw7bXX4rbbbkNYWBiMRmO3+JCcHwDa29tRXV2NmTNnwul08tFDDDEoEHzfI7vtttvwm9/8BgaDAWazuds0KKQ5P3vixn6db4ghBhN0ru9vo4TkwezJLqtkiCEGE0qDM3sSTAnJ+XESXv0Y4vTEn5/2eOQfYohTiSHnH+K0Zcj5hzhtGXL+IU5bhpx/iNOWIecf4rRlyPmHOG0Zcv4hTluGnH+I05Yh5x/itGXI+QMgCEK3NU10O5WhZdZoNKd0eYecPwjoehCdTofs7GycccYZSExM5MVOetiOrtFokJeXh2uuuQYTJ07kRU8JhpxfBXYlYFxcHG644Qa8/vrr+OMf/4hFixbJI+OpRlJSEm666Sa88MILeOihh3DWWWdBp9PxYic9Q86vAHuoj46OxlVXXYV//vOfeOCBBzB//nyMGTMGw4YNA1RWD55saDQaJCcn45e//CVeeuklPPDAA5g3bx6ys7MRGxt73BLhU4GQnuQSBAGtra2ora3FrFmz4HA4eJF+QaPRYNKkSVi6dClqamogSRIcDgfa2trgdrvlhmEfVmBHZEEQEBMTIz/GptVq5UN8REQE3G433n33XbS3t0OSJAi+p4BuueUWLF68GFlZWUhKSpLT19bW4rnnnsPzzz9/0ju/RqNBXFwcfvnLX2LZsmUYPnw4EhISuj3v+sQTT+Dhhx+G2+3ulnYwIwgCIiMj5Se5jEYjTCYTCPMc80nh/Hq9Hr/+9a+xatUq+dFJSZLg8XgAzumh8OACIQQ6nQ5arfa4zqHT6SBJEkaPHg2r1QpBEKDT6bBkyRK8/vrriI6OPu5B/ZqaGvz5z3/G6tWrT2rnp3Uwfvx4fPrppxg2bJji2zlOVec/KY5lHo8HH330Ef72t7/Jh+e0tDRkZGQgMzPT75aRkSHLpKenIzk5GampqUhJSUFycjJSUlKQkJAAq9UKj8cDwfeEmsfjwbZt2/DPf/4T1dXV3ToMlTmZnZ6FEILy8nL87ne/w4cffgi73S6X8VTnpHB+Qghqa2vx7LPP4pJLLsHu3btlB6SNtHfvXlx33XUYM2YMMjMzkZ2djfHjx2PatGnIz8/HWWedhcsvvxwPPPAA9uzZI795QpIkFBcXy/loNBoQQtDQ0ICnnnoKV111FXbs2CHHE0LgdDrR0dHBWHhyQkfBrq4ufPXVV7jnnnvw+9//Hq2trbzoKclJ4fyUjo4O7N69G6tWreo2UgNARUUF1q1bh0OHDqGyshLl5eUoKirCnj17sHfvXvz444/47LPP8OKLL2Lp0qX4/PPP5VGuvLwcHo+n27RIkiRYrVbs2rULDz30EERR7BYnimI3205WCCEQRRFOpxN1dXXYsGEDNmzY0G3ac6py0jg/dTyn04mysjL8/PPP3Q7NoijC4/F0CyOEQJIk2VndbjccDgfq6+vxxz/+EQ0NDQAAl8sFQRDkk10Wj8eDqqoqHDx48JS84sFCCEFTUxMOHz7MR52SnDStSefbAGCz2XDkyJFuYaEgCAIOHjyIDz74ADabTQ5nR34Wl8uF+vp6PviUxOPxyEfEU52TxvnpfJtOdZxOJyRJUnTWQNAjwptvvomdO3di//79EEXR71SG5t2TvE4mqMOfDo6Pk8n5KWwn6OnITykuLsaZZ56Jt99+G263W9XB2TxPVU6XTk456Zx/MEA7wOniJKcqQ87fA/R6PcLCwk7po8DpwGnl/IIgICIiAiaTqVeOq9PpYDQah0b+k5zTwvnpXD0mJga//OUvsXjxYoSHh/doDt8TeXZjV4Lyl07Z+GBso/LBri7VaDTyuqaewpeH1aWmly/bYOCkdn5aicFUJiEEZ555Jn7729/ijjvuQGJiIoQBuo3PnqRLkgT43h2flJQkL8FIS0tDVFQU0INzCqo7IiICqampyMzMRFZWlrwNGzYMCQkJ0Ov1ss5g6kwNrVYrd162E/tzbraugy1Xf3NSO38oCIKAESNGICIiAjU1NXA6nQPWCNQhzGYzRo4ciTPPPBPXXnst7r//fjzxxBN48sknsWrVKixfvhzTpk1DWFiYnC4QhBDExMRg6tSpuOaaa7By5Uo8/fTTePbZZ/HnP/8Zf/7zn/Hoo4/ijjvuwGWXXYasrKyg9KoRHh6OuXPn4pxzzsHixYsxf/58zJs3D3PmzEF+fj6mTp2K/Px8eZs0aRLMZnNIg9WA4HA4SLCb0+kkdXV1ZM+ePcRkMhEAJ2RLS0sj77zzDhFFkUiSRCRJIp9++inJzs4mkZGRJDY2liQmJpK0tDSSnZ1NcnNzycSJE8maNWuIw+Egf/nLX0hCQgIRBOE43UpbdnY2WbduHZEkiRBCyNGjR8kdd9xxnBy/Uf1Go5GMGzeOXH/99eSDDz4gnZ2dxOl0EpfLRURRlMvh8XhIUVERueyyy4herw9onyAIZPjw4eS3v/0tKSgoIC6Xi7jdbtLR0UGsVitxOBzd6kiSJLJ69Wqi0Wj86o6NjSV/+tOfCCFETvPYY48RvV4v55mdnU2+/PJL4nQ6iSRJpLW1ldTX15O6ujpy4MABsm/fPlJQUEAKCgrIvn37yKZNm0heXh4RBIEIgkA0Gs1x+fb1JggCiYqKIg8++CCpr68nbW1txOFwELvdLvvzST3ys9OD7OxsXHfddbjppptw22234a677sJ9992HP/7xj3j44Yfx3HPPYfbs2dDr9aipqYHL5erRyE+nGGrQkV4QBKSmpuLiiy/G448/jpdeegmXX345mpqa8P777+Pdd9/FunXr5GUWGo0Gubm5uPfee5GRkcGrBbhpRVxcHFasWIF7770XY8aMweHDh/Hpp5/ijTfewGuvvYb33nsPP/74I6xWqzzdWrhwIeArR09paWnBmjVr8N5772HHjh0wGAyIj49HQkICcnNzMWbMGMTExAAA7HY7mpubodPpBt2056Qe+dkRTW2joyvdrrvuOhIWFuZ39OM3duSXJIlUVVX5HfnZ0S0lJYX88Y9/JJWVlcTj8RBCCGlvbyd33nknMZlMRKPRkMzMTPLYY4+Rrq4ueZSuqqoiN998s1/ddP+KK64ghYWFxOPxkKNHj5JbbrmFxMbGyiO7TqcjkyZNIs888wypqqoioiiSrq4uEh8ff5xuuvkb+Q0GQ7eyUf0333wzqa6uJqIoErfbTYqLi8n7779Pfvvb35KLLrqIzJ8/n2RlZQ3IaM9up/zIz1JdXY0vv/wSn376KT799FOsWbMGX331Fb777jsUFhais7NTlu3o6JCXMgQaxXsKIQTTpk3D//3f/yE1NVVeKr127Vq8+eab8jlHRUUFXnjhBezdu1dOazKZkJ6e3k0ffDrpkcdkMmHWrFkYMWIEAKCgoAAbN25Ea2urPMp7PB7s3bsXjzzyCF599VXYbDZotVpMmTKF0xwc9KhDR+6xY8di5syZCAsLQ2trKz755BM88cQTuP322/HCCy/g//2//4eNGzeivLx88Iz2DKeM8+/btw8PPfQQ7r77btx999245557cO+99+L+++/Hn/70J3z//ffo6uqS5Xvj9ME0JCEEBoNBvrxHCMHWrVvxwgsvdFtMB19n3LJli2yTVquFwWDoJsMTFRWFuLg46PV6CL4H7CMiIrpNBeErZ0dHB1avXo0PP/wQP//8s+p9Dn/hYDqfVqvF7Nmzcf/992PZsmVoamrCK6+8ggceeADvvvsumpub5TS8PYOJU8L5BUGAzWZDZWUljhw5giNHjqC0tBRFRUXYuXMnPvnkE6xevfq4pbpqDd1bBEHA7t278cYbb+Bf//oX/vKXv2DVqlXYvn27vPSajuLU/mBgR14wDklfMzJhwgS549DyCYKAtrY2PP7443j44Yflh3P8oVYvYWFhOO+88/DQQw/hwgsvRHl5Of7617/iueeew+HDh+XFhtRG9vdg45Rw/kAIgoCffvoJRUVFcLvdMBgMxzlRX0MIwZEjR/DSSy9h5cqVWLlyJdavX3/c51tpB9Dr9d3C/UHlrVYrGhsb5WcRwsLCcM011+Dhhx/Gr3/9a0ycOFHWSctZXl6Or776CnV1dUGXnZWLi4vDlVdeiZUrV2L+/Pmorq7GCy+8gHfffRdtbW3d0p0MnBbOTwiB3W7Hpk2bcODAAdhsNnle3Nfwo7LNZkNdXZ3qB7sFQUBycjIf7BfiW9K9bds2+WhGCEFERATOP/98PPDAA3j88cfl148YjUb5CIMAIzsPTZednY1f//rXuO+++zBlyhQYDAbYbDbs3r272/nUycRJ7/zBNCQ99H7++ef4wx/+gF27dgVcwtxblJyNhgmCgOjoaEyZMgVLly7Ffffdh3nz5oVkCyEE33//Pf7zn/+gurq6W1xycjLOO+883HXXXXjsscfwyCOPYPbs2XKHp0cPf/AdePHixXjyySdxyy23ICcnR36bxciRIzF37lz5XIMt88nASe/8oVBZWYkvv/wSVVVV/Tbyg3MelrS0NFx44YV49NFH8corr+DZZ5/FI488gjvuuAPZ2dmynCiKsNvt3dIq0djYiLfffhtPP/00tm3bJr9KhnbqiIgIzJ49G7fccgueeuop3HvvvYiOjgZUBg1qO9VBCMGUKVNwwQUXIC4uTn6ICL47vTfccAPy8vLkE2+o6B5snFbOP5DQ0VUQBEyYMAEPPvggVq9ejUceeQS33norli5dCqfTid27d+PZZ5/F9u3b5bSiKAb1TiRCCI4ePYp///vfuO+++/Dcc8/J5zXsYrfw8HDMmTMHv/vd77Bq1apua3yCpaysDM888wwee+wxHDx4UC7buHHjcPvttyMpKQngjniDnSHn7weoA0REROCmm27Cc889hzvvvBNLlixBbGws3nzzTVxzzTW4//778fjjj+P111/Ht99+281xQnFOq9WKLVu24G9/+xtuvvlmPPbYY9izZ0+3N1wQQpCQkIBrrrkGS5Ys4VWosnfvXjz99NNYvXo1XnvtNaxduxbt7e2Ar6znnXceli9fjoiICD7poOakd37asAOJWp7Uec1mM26//XbcfffdmD9/PhISElBQUICbbroJzz77LD7//HPs27cPR44ckW+6sXrVRlAax3eWhoYGbN68Ga+88gpuvPFGrFy5EmVlZXIa+O4P/OpXv+qmj+Ivv23btuHzzz9HfX09Wlpa8Pbbb6OgoEB+20VkZCRuvvlmLFy4sNtVK6rPn94TzUnv/AhxlOwtArOGXo1Fixbh8ssvR1ZWlvxWiCeffBLffvut/L5RiuBb8UlHaah0MOpImZmZyM3Nld+pyco3Nzdj9+7deP3113HNNddg27ZtEEVRtj0/P19RN+FOhGnnamtrg9VqlWUKCwvxxhtvoLy8XJZJSUnBo48+ikmTJsn1Q5iXgA1G1FtwkKLT6RAVFdVtlMQAdoJg7sAuWrQII0aMkB3aarVi3759iu+7ZJ2O7QBqXHbZZXjjjTewYMECPkqGvnTrD3/4g3x1S/AtjQgEW7cWiwXh4eHyeYTb7cYnn3yCr7/+GlarVZYdNWoUXnzxRWRlZXW7s812qMHESen8JpMJmZmZ3UY7DODhVavVBrwplZCQ0G1dvsViUU3DOr3BYEBMTIxieahMbGwspk2bhptvvhkTJ06UR2AeURTl1zMKggBRFFFTU6MoC6Zs1B7iW6ZhMBjkvGlnfu6557B161a5Q2s0GkyePBmvv/46MjIyunXowchJ5/w6nQ7Dhw/HyJEj5QYnvgc6hg8fDoF7VLAnUB3wNajRaER8fDyI730/kZGRyMnJQWRkpGwD73xVVVXySSHVc9NNNyEyMrJbmNFoxPnnn48LL7xQDrdYLLj00kvxxBNP4LHHHsM777yDFStWHJeXVqvF2WefjYcffhjTpk3r9ogi+3fmzJnyFR5RFPHxxx8r2iz4Xs0+fPjwboNKamqqfBOOla+srMSf/vQnlJaWytM4nU6H2bNn49NPP8WsWbPkOuPzGgxoV65c+Sc+0B+CIMDhcKCzsxP//Oc/5VeEDwTUGTMzM/HYY49h1KhR3SozKSkJmZmZcDgcsNlscDgciq8fDBaazmKxYNmyZbjmmmvkBtT43hSdkJCAmpoatLW1dXvhFSEEYWFhmDFjBuLj42Vd48ePx5IlS5Ceno78/Hxcc801+POf/4yrrroKSUlJEHwdWaPRICoqClOnTsWMGTOQkZGB0tJSfP/997JtCxcuxJw5c6DVapGVlYUlS5YgJydHXrRmMpkwYsQIXHLJJXjsscdkO0pLS3HnnXfKd2XptESr1cJisWDp0qVYvnw5LBaLbHdsbCz0ej2am5vR0dHR7W51XV0d6uvrMWfOHFgsFhDfwre4uDgsW7ZMPuexWCwwGAzya+D7G0EQYDQaMX36dMycORM6nU7+uoycP79mX207Uev5NRoNmTFjBvnggw9IVVWV/AQUv2bf6XSS9vZ20tLSQo4ePUpefvllMmrUqOP0Bdq0Wi0xGo3koosuIjt27JDX2rObx+MhdrudtLa2krKyMvLkk0+SjIwMec27yWQiL774ImlpaZFtpWve7XY76erqIg6Hg7S2tpLVq1eTCy64QF6bz8pXV1eTVatWkZSUFHktvUajIatWrSJ2u12Wp+Xv7Owk7e3tpK2tjVitVtLV1UU8Hg+RJIns27ePTJgwodszARqNhhgMBrJ48WKyd+/ebs8V0HKKokgcDgexWq2ksbGRrF+/nkybNk0uq8FgIL/5zW9IY2Njt+cnJEkiTqeTWK1WYrVaye7du0l0dPSArO0PZj3/SeH8er2e3HnnncTtdsuNUFVVRXbu3El27txJdu/eTSoqKojVapUfERRFkWzYsIHMnj27W2MHs2k0GhIREUFefPFF4nK5iMfjIR6PhzgcDtLZ2UlaW1tJa2sraWtrI11dXcTlcpGPP/6YTJgwQdYhCAKJiIggDz74IDl69Chxu92yUxBCSElJCXnggQdIcnIy0ev1RK/Xk1mzZpFDhw4RURRJfX09eeGFF8iUKVOITqfrVgZBEEhcXBy58sorydtvv02OHDlCnE6n7OTU8ajdhYWF5LbbbiPh4eGyw1J9giCQmJgYcvfddxO3291tIOno6CCNjY2kpKSE7Nixg+zevZscPXqUHDlyhCxatEiuK0EQiF6vJ08//TTp6Ojo5vwej4d0dXWRzs5O8sUXXxCj0Rhye/RkC8b5T4ovs8D3oqi0tDTU1tYetzKShR7yDQYDHA5Hjx5XpFOb+Ph4pKWlobGxEW1tbejs7DxOF82P+BabKcWHh4dj7NixiI+Ph81mw6FDh1BbW3vcEgvBd8kzNTUVNTU1sNvtx+ljoYdves6Tnp6O+Ph4mM1mAEBrayvKy8tRX18P4ufSKcVsNiMtLQ0ejwdWqxUdHR0hTWsF35QwPz8f0dHRqKqqQmtrK9rb22Gz2VTz7g+EIL7MctI4vxDgEmCg+FCguljnUiMUOVaG34fv3EaSJPn6OB+vBHW8YOXVYMseii5aB+DqIdi66WuCcf6T5moPrTx64svDVy7bGD2BdybqYEp6WRk1eDneZhomMO/3CRYlXaw9gWyjKOnpDWwdDjaUPWmQEspoFKycGrzD+9MZKB6MLnbfH7QDqOljUeqkNJy92RQIPm0oUPlQ0/UnanWMUJ2fvV57Ij5KPFCjCM2H32gcTzB28Tr8yavlEwjeVvjaLFhdfNpQ6U3avobaQp89oLAzh5Ccn/Yki8WC2NhYPnqIIQYF1E+1Wi0iIiK6TSHZDhqy89PD6KRJk/joIYYYNAi+m1yjRo0C8bO+KCTnZw+rZ5111gmZ+gwxRCDoIJ2amoqxY8cqOj5CdX745kwGgwHTp08/bonBEEMMBojvEc4LL7yw27uTeEJ2frrqLyYmBsuXL0dsbGy3qwRDDHGi0el0mD59OpYuXQrBt25JyT9Dcn7iu3Sm1+thNptxxhln4LLLLpNfSjrEECcajW9Z9U033YTo6GgYDAZomW8J9OqEV6vVyg9zREdH47rrrsOyZcuQkpIiyyj1siGG6A9YX9Pr9Zg7dy5uv/125OXlwWg0QqfTdbvcycqHtLwBvocjCCFwOByw2+2w2WxoamrCmjVr8M0336C4uBgulyvkO5RDDBEK/ACbmJiIM844A1dddRVGjRoFk8kkL6OmD+fwqwNCcn72Jojb7YbT6YTT6YTNZoPVasWePXuwYcMG7Ny5ExUVFfLCKCHIO4xDDBEM1PEF3xNykydPxrx583DuueciNjYWJpMJ4eHhsuPTkZ/vMCE5P5g5kyRJ8Hg8cDqdcLvd6Orqgt1uR2NjI3bt2oVdu3Zh3759qKio6PYypSGG6C0ajQaJiYkYO3YsJkyYgFmzZsmjvdlslhex6XS6bld6eu38FOJ7PM3tdssvWaJHAofDgYaGBhQXF6OoqAjFxcUoKSlBY2NjtyeelGCPEtTYoU5zakPbPNAMwWKxYMSIEcjNzUVeXh7GjBmD7OxsmEwm2fHpaM+O+JQ+c374Rn+6dsTj8cDlcsmb0+mEy+WC1WpFdXW1/Orw8vJylJaWyp8GwnFGERDSvUIw1AFOSfg2prCDX3x8PLKyspCdnY2srCxkZGQgMzMTCQkJ8oP1RqMRRqNRdnwN82oZVjefT6+cnxpJjwIej0c+GrjdbrkjuN1u+SGJ+vp6NDQ0oKamBlVVVaisrER1dTWqqqrkh1TYwgczIgxx8sEOavS3VqtFfHw8hg0bhvT0dKSnp2PYsGFITExEUlIS4uPjYTAYoNPpZMen+9Tp6TV93tHRH87POiY9EkiSBFEUIYqi3BHoRj/M4HA40NraKj/t09LSgsbGRtTW1qKqqgqNjY2orq5GR0fHkOOfghiNRiQmJiI1NRVJSUlIS0uTHTwiIgIxMTGIi4uT3xdEb64ajUZotVrZ4amz63Q62enZwZPluP3eOj+4XsxubCcQRREej0f+6/F44Ha75WmTKIqw2WxobW1FR0cH7HY7urq6YLPZUFtbi9raWhw9ehRNTU1oaGjo9rKk/uBUPOrwZWHLCIXBLBT81Zder0dKSgoSEhKQnJyMlJQUpKWlISYmBmFhYQgPD0dYWBiioqIQEREBg+/DIdTB6XV6+puexNIbV9ThecenNrEct99b5+cV0szZv+wRgT0y0GkS3zFoGuI7l+jq6kJ7ezu6urrgcrnkTtHc3IyGhgbU1taioaFBPpJYrdaAz5/yFaWEvwY9WWCdmu4r/WbxF+4PwXe5MTY2Vv5OWGpqKhISEpCWlgaTyYSwsDD5KkxERAQiIiJgMplk56XOHGhj5amzUxuU2on3zeP2e+P8wUAUHgqhjk039uhA40VR7PaXdgr4brR5PB75HT02m02eVtlsNtjtdnR2dqKtrQ1NTU1obm5GW1ubfFRpb2/v9v4ZvrH5SvJXsXy6wQbrFBS2LHwZ2H3BN5UIDw9HREQELBYLoqOjERsbK09JEhISEB4eDrPZjLCwMHlKwoaxUxO60ZGcnphSx6ZOLjDvQ1Ua3dnyUPhyKcGH96nz8xWpFE736Ub3aYfg/8L3SU32iMH+pRt85xw0nL0J53K5uh1laKdxuVwQRREtLS3y0YWGd3R0oK2tDU6nEx0dHfKbIOgJPH0rBO2wgwnqPILvW186nU6+7k1v/kRGRiIsLEx2bIPBII/KUVFRsrzZbIbZbJadWONb1UuvsFD9ND/eealDw3dCy3YEGs/ay240TMmhlcICwcv3qfOroeYgfGeAz5H5OL5zsEcK+tffxupnOxPtKPQ8hD3SCL4HyWlaURThdDrh8V3WpUcgKuf2vQxWo9HA6XQGfPVIqPC6DAYDzGYzNL7LenR+DObxPXplhDozDacOBt+8XPCN9NSZqaOyDgrfDSZBwcn5jernnZ3GsTbw+/R3byDckY3VTRkUzs8jMG8voOlY5wXzbKq/jXd6Xp7uq8nQfFlblHSwsqx9NL4v4RuQOhQbxzoYG6fk+KwD0o11XvY33VdybjYfpY3Pl98n3EjO/u5pHQoK07pu8QPl/H0JdTi+MCysQ/JyNI6vHDaO/lZqBD5cCdJP76ZXsofdpw7F2siWl6JUdrUy+UurloaiJBNMHfYGqp8tI18vg9L5g60YpQZmYeN4fWzl+PvLOm+3SvPFK+llCRTfFyjZpfRbUnhpLxvfE9g6D6SDlUWI8oFk/cHWAd++GKzOP8QQA0FID7MMMcSpxP8HZeFmUiiRekAAAAAASUVORK5CYII=;" vertex="1" parent="1">
          <mxGeometry x="590" y="410" width="91" height="131.02" as="geometry" />
        </mxCell>
        <mxCell id="0KorNPI6NSOoegdMhirZ-15" value="" style="shape=image;verticalLabelPosition=bottom;labelBackgroundColor=#ffffff;verticalAlign=top;aspect=fixed;imageAspect=0;image=data:image/svg+xml,PHN2ZyB4bWxuczpjYz0iaHR0cDovL2NyZWF0aXZlY29tbW9ucy5vcmcvbnMjIiB4bWxuczpkYz0iaHR0cDovL3B1cmwub3JnL2RjL2VsZW1lbnRzLzEuMS8iIHhtbG5zOmlua3NjYXBlPSJodHRwOi8vd3d3Lmlua3NjYXBlLm9yZy9uYW1lc3BhY2VzL2lua3NjYXBlIiB4bWxuczpyZGY9Imh0dHA6Ly93d3cudzMub3JnLzE5OTkvMDIvMjItcmRmLXN5bnRheC1ucyMiIHhtbG5zOnNvZGlwb2RpPSJodHRwOi8vc29kaXBvZGkuc291cmNlZm9yZ2UubmV0L0RURC9zb2RpcG9kaS0wLmR0ZCIgeG1sbnM6c3ZnPSJodHRwOi8vd3d3LnczLm9yZy8yMDAwL3N2ZyIgeG1sbnM9Imh0dHA6Ly93d3cudzMub3JnLzIwMDAvc3ZnIiB4bWxuczp4bGluaz0iaHR0cDovL3d3dy53My5vcmcvMTk5OS94bGluayIgdmVyc2lvbj0iMS4xIiBpZD0ic3ZnMTk2OTUxIiBpbmtzY2FwZTp2ZXJzaW9uPSIwLjkyLjMgKDI0MDU1NDYsIDIwMTgtMDMtMTEpIiBzb2RpcG9kaTpkb2NuYW1lPSJweXRob25fdG9vbHNfYW5kX3Nkay5zdmciIHg9IjBweCIgeT0iMHB4IiB2aWV3Qm94PSIwIDAgNDggNDgiIHN0eWxlPSJlbmFibGUtYmFja2dyb3VuZDpuZXcgMCAwIDQ4IDQ4OyIgeG1sOnNwYWNlPSJwcmVzZXJ2ZSI+JiN4YTs8c29kaXBvZGk6bmFtZWR2aWV3IGJvcmRlcmNvbG9yPSIjNjY2NjY2IiBib3JkZXJvcGFjaXR5PSIxIiBmaXQtbWFyZ2luLWJvdHRvbT0iMCIgZml0LW1hcmdpbi1sZWZ0PSIwIiBmaXQtbWFyZ2luLXJpZ2h0PSIwIiBmaXQtbWFyZ2luLXRvcD0iMCIgZ3JpZHRvbGVyYW5jZT0iMTAiIGd1aWRldG9sZXJhbmNlPSIxMCIgaWQ9Im5hbWVkdmlldzE5Njk1MyIgaW5rc2NhcGU6Y3VycmVudC1sYXllcj0ic3ZnMTk2OTUxIiBpbmtzY2FwZTpjeD0iMzIuMDAwMDE1IiBpbmtzY2FwZTpjeT0iMzIuMDAwNTg2IiBpbmtzY2FwZTpwYWdlb3BhY2l0eT0iMCIgaW5rc2NhcGU6cGFnZXNoYWRvdz0iMiIgaW5rc2NhcGU6d2luZG93LWhlaWdodD0iMTAxNyIgaW5rc2NhcGU6d2luZG93LW1heGltaXplZD0iMSIgaW5rc2NhcGU6d2luZG93LXdpZHRoPSIxOTIwIiBpbmtzY2FwZTp3aW5kb3cteD0iLTgiIGlua3NjYXBlOndpbmRvdy15PSItOCIgaW5rc2NhcGU6em9vbT0iMTAuMjcyOTE3IiBvYmplY3R0b2xlcmFuY2U9IjEwIiBwYWdlY29sb3I9IiNmZmZmZmYiIHNob3dncmlkPSJmYWxzZSI+JiN4YTsJPC9zb2RpcG9kaTpuYW1lZHZpZXc+JiN4YTs8ZyBpZD0iZzE5Njk0OSIgdHJhbnNmb3JtPSJ0cmFuc2xhdGUoLTcuNjUsLTcuNjQ5MjgwNikiPiYjeGE7CTx0aXRsZSBpZD0idGl0bGUxOTY5MDUiPlBhZ2UtMTwvdGl0bGU+JiN4YTsJPGcgaWQ9Imdyb3VwMTE3Ny0xIiB0cmFuc2Zvcm09InRyYW5zbGF0ZSg3LjY1LC03LjYxMzQyKSI+JiN4YTsJCTx0aXRsZSBpZD0idGl0bGUxOTY5MDciPlB5dGhvbiBUb29scyBhbmQgU0RLPC90aXRsZT4mI3hhOwkJPGcgaWQ9Imdyb3VwMTE3OC0yIj4mI3hhOwkJCTx0aXRsZSBpZD0idGl0bGUxOTY5MDkiPlNoZWV0LjExNzg8L3RpdGxlPiYjeGE7CQkJPGcgaWQ9Imdyb3VwMTE3OS0zIiB0cmFuc2Zvcm09InRyYW5zbGF0ZSgwLC0xMi4zMTQ3KSI+JiN4YTsJCQkJPHRpdGxlIGlkPSJ0aXRsZTE5NjkxMSI+U2hlZXQuMTE3OTwvdGl0bGU+JiN4YTsJCQkJPGcgaWQ9InNoYXBlMTE4MC00Ij4mI3hhOwkJCQkJPHRpdGxlIGlkPSJ0aXRsZTE5NjkxMyI+U2hlZXQuMTE4MDwvdGl0bGU+JiN4YTsJCQkJCTxwYXRoIGlkPSJwYXRoMTk2OTE1IiBpbmtzY2FwZTpjb25uZWN0b3ItY3VydmF0dXJlPSIwIiBzdHlsZT0iZmlsbDojMzc3MkE0OyIgZD0iTTAsNTEuMTdjMC4wMi0wLjA2LDAuMDQtMC4xMywwLjA1LTAuMiAgICAgICBjMC4wNC0wLjcsMC4wNC0xLjQsMC4xMS0yLjFjMC4yNC0yLjI2LDAuNzYtNC40NCwyLjE4LTYuMjhjMS4xLTEuNDQsMi41NC0yLjMsNC4zMy0yLjU0YzAuMjUtMC4wMywwLjUxLTAuMDQsMC43Ni0wLjA0ICAgICAgIGM1LjM5LDAsMTAuNzksMCwxNi4xOCwwYzAuMzEsMCwwLjMxLDAsMC4zMi0wLjMyYzAtMC4zNy0wLjAyLTAuNzUsMC0xLjEyYzAuMDEtMC4yMy0wLjA3LTAuMjktMC4yOS0wLjI5ICAgICAgIGMtMi45OCwwLjAxLTUuOTUsMC4wMS04LjkzLDAuMDFjLTAuNywwLTEuMzktMC4wMS0yLjA5LDBjLTAuMTksMC0wLjI2LTAuMDUtMC4yNS0wLjI1YzAtMS44My0wLjAxLTMuNjcsMC01LjUgICAgICAgYzAuMDEtMC44MiwwLjQtMS41MSwwLjkzLTIuMTFjMC43NC0wLjg0LDEuNjktMS4zNiwyLjcxLTEuNzVjMS4yNi0wLjQ4LDIuNTctMC43MywzLjg5LTAuODljMS44My0wLjIzLDMuNjYtMC4yNSw1LjQ5LTAuMTcgICAgICAgYzEuOTcsMC4wOCwzLjkyLDAuMzUsNS43OCwxLjA3YzEuMjYsMC40OSwyLjQsMS4xNiwzLjIzLDIuMjZjMC42OSwwLjkxLDEuMDEsMS45MiwwLjk1LDMuMDhjLTAuMDUsMC45My0wLjAyLDEuODctMC4wMSwyLjgxICAgICAgIGMwLDEuNzMsMC4wMSwzLjQ2LDAuMDEsNS4xOWMwLDEuMDIsMC4wMiwyLjA0LTAuMDUsMy4wNmMtMC4xNCwyLjQtMS4yOSw0LjExLTMuNTEsNS4wNGMtMS4wMSwwLjQyLTIuMDYsMC42MS0zLjE0LDAuNjEgICAgICAgYy0zLjgyLDAtNy42NS0wLjAxLTExLjQ3LDBjLTEuMjIsMC0yLjM5LDAuMjctMy40NSwwLjkxYy0xLjQsMC44NS0yLjIsMi4xNS0yLjY1LDMuN2MtMC4yMiwwLjc3LTAuMzEsMS41Ny0wLjMyLDIuMzcgICAgICAgYzAsMS43MywwLDMuNDYsMCw1LjE5YzAsMC4zNSwwLDAuMzUtMC4zNCwwLjM1Yy0xLjI1LDAtMi40OSwwLjA0LTMuNzQsMC4wMWMtMS4yNy0wLjA0LTIuMzctMC41NC0zLjMyLTEuMzcgICAgICAgYy0xLjEyLTAuOTYtMS44Mi0yLjE5LTIuMzEtMy41NmMtMC40Ni0xLjI1LTAuNzMtMi41NC0wLjg0LTMuODZjLTAuMDgtMC44NC0wLjExLTEuNjgtMC4xNi0yLjUyICAgICAgIEMwLjA0LDUxLjg3LDAuMDIsNTEuNzgsMCw1MS42OUMwLDUxLjUyLDAsNTEuMzUsMCw1MS4xN3oiLz4mI3hhOwkJCQk8L2c+JiN4YTsJCQkJPGcgaWQ9InNoYXBlMTE4MS02IiB0cmFuc2Zvcm09InRyYW5zbGF0ZSgxNS4yMDMzLC0yNy44MzIpIj4mI3hhOwkJCQkJPHRpdGxlIGlkPSJ0aXRsZTE5NjkxOCI+U2hlZXQuMTE4MTwvdGl0bGU+JiN4YTsJCQkJCTxwYXRoIGlkPSJwYXRoMTk2OTIwIiBpbmtzY2FwZTpjb25uZWN0b3ItY3VydmF0dXJlPSIwIiBkPSJNMCw2MS4xNWMwLDEuMTksMC45NCwyLjE1LDIuMTEsMi4xNWMxLjE1LDAsMi4xMS0wLjk3LDIuMTEtMi4xMyAgICAgICBjMC0xLjE5LTAuOTUtMi4xNi0yLjExLTIuMTVDMC45Myw1OS4wMywwLDU5Ljk3LDAsNjEuMTV6Ii8+JiN4YTsJCQkJPC9nPiYjeGE7CQkJCTxnIGlkPSJzaGFwZTExODItOCIgdHJhbnNmb3JtPSJ0cmFuc2xhdGUoMTUuMjAzMywtMjcuODMyKSI+JiN4YTsJCQkJCTx0aXRsZSBpZD0idGl0bGUxOTY5MjMiPlNoZWV0LjExODI8L3RpdGxlPiYjeGE7CQkJCQk8cGF0aCBpZD0icGF0aDE5NjkyNSIgaW5rc2NhcGU6Y29ubmVjdG9yLWN1cnZhdHVyZT0iMCIgc3R5bGU9ImZpbGw6I0ZGRkZGRjsiIGQ9Ik0wLDYxLjE1YzAtMS4xOCwwLjkzLTIuMTIsMi4xMS0yLjEzICAgICAgIGMxLjE2LTAuMDEsMi4xMSwwLjk2LDIuMTEsMi4xNWMwLDEuMTYtMC45NiwyLjEzLTIuMTEsMi4xM0MwLjk0LDYzLjMsMCw2Mi4zNCwwLDYxLjE1eiIvPiYjeGE7CQkJCTwvZz4mI3hhOwkJCTwvZz4mI3hhOwkJCTxnIGlkPSJncm91cDExODMtMTAiIHRyYW5zZm9ybT0idHJhbnNsYXRlKDEyLjU5NCkiPiYjeGE7CQkJCTx0aXRsZSBpZD0idGl0bGUxOTY5MjkiPlNoZWV0LjExODM8L3RpdGxlPiYjeGE7CQkJCTxnIGlkPSJzaGFwZTExODQtMTEiPiYjeGE7CQkJCQk8dGl0bGUgaWQ9InRpdGxlMTk2OTMxIj5TaGVldC4xMTg0PC90aXRsZT4mI3hhOwkJCQkJPHBhdGggaWQ9InBhdGgxOTY5MzMiIGlua3NjYXBlOmNvbm5lY3Rvci1jdXJ2YXR1cmU9IjAiIHN0eWxlPSJmaWxsOiNGRkRBNEI7IiBkPSJNMzUuNDEsMzkuNjZjLTAuMDIsMC4wNy0wLjA1LDAuMTQtMC4wNSwwLjIxICAgICAgIGMtMC4wNCwwLjctMC4wNSwxLjQtMC4xMiwyLjA5Yy0wLjIzLDIuMjctMC43NSw0LjQ1LTIuMTcsNi4yOWMtMS4xLDEuNDQtMi41NCwyLjMtNC4zNCwyLjUzYy0wLjI1LDAuMDQtMC41LDAuMDUtMC43NiwwLjA1ICAgICAgIGMtNS4zOSwwLTEwLjc4LDAtMTYuMTcsMGMtMC4zMiwwLTAuMzIsMC0wLjMyLDAuMzJjMCwwLjM3LDAuMDEsMC43NSwwLDEuMTJjLTAuMDIsMC4yMywwLjA3LDAuMjksMC4yOCwwLjI5ICAgICAgIGMyLjk4LTAuMDEsNS45Ni0wLjAxLDguOTQtMC4wMWMwLjY5LDAsMS4zOSwwLjAxLDIuMDksMGMwLjE5LDAsMC4yNSwwLjA1LDAuMjUsMC4yNWMtMC4wMSwxLjgzLDAuMDEsMy42Ny0wLjAxLDUuNSAgICAgICBjLTAuMDEsMC44Mi0wLjM5LDEuNTEtMC45MywyLjExYy0wLjc0LDAuODMtMS42OCwxLjM2LTIuNywxLjc1Yy0xLjI2LDAuNDgtMi41NywwLjcyLTMuOSwwLjg5Yy0xLjgyLDAuMjMtMy42NSwwLjI1LTUuNDgsMC4xNyAgICAgICBjLTEuOTctMC4wOS0zLjkyLTAuMzUtNS43OC0xLjA3Yy0xLjI2LTAuNDktMi40LTEuMTYtMy4yNC0yLjI3Yy0wLjY4LTAuOS0xLTEuOTItMC45NC0zLjA3YzAuMDUtMC45MywwLjAxLTEuODcsMC4wMS0yLjgxICAgICAgIGMwLTEuNzMtMC4wMS0zLjQ2LTAuMDEtNS4xOWMwLTEuMDItMC4wMi0yLjA0LDAuMDQtMy4wNmMwLjE0LTIuNCwxLjI5LTQuMTEsMy41Mi01LjA0YzEtMC40MywyLjA2LTAuNjEsMy4xNC0wLjYxICAgICAgIGMzLjgyLDAsNy42NCwwLjAxLDExLjQ2LDBjMS4yMywwLDIuNC0wLjI3LDMuNDYtMC45MWMxLjQtMC44NSwyLjItMi4xNSwyLjY0LTMuN2MwLjIyLTAuNzcsMC4zMi0xLjU3LDAuMzItMi4zNyAgICAgICBjMC4wMS0xLjczLDAtMy40NiwwLTUuMmMwLTAuMzQsMC0wLjM0LDAuMzUtMC4zNGMxLjI0LDAsMi40OS0wLjA0LDMuNzMtMC4wMWMxLjI3LDAuMDQsMi4zNywwLjU0LDMuMzMsMS4zNyAgICAgICBjMS4xMSwwLjk2LDEuODEsMi4xOSwyLjMxLDMuNTZjMC40NSwxLjI1LDAuNzIsMi41NCwwLjg0LDMuODZjMC4wNywwLjg0LDAuMTEsMS42OCwwLjE2LDIuNTFjMCwwLjEsMC4wMywwLjE5LDAuMDUsMC4yOCAgICAgICBDMzUuNDEsMzkuMzIsMzUuNDEsMzkuNDksMzUuNDEsMzkuNjZ6Ii8+JiN4YTsJCQkJPC9nPiYjeGE7CQkJCTxnIGlkPSJzaGFwZTExODUtMTMiIHRyYW5zZm9ybT0idHJhbnNsYXRlKDE1Ljk4MTMsLTMuOTEyKSI+JiN4YTsJCQkJCTx0aXRsZSBpZD0idGl0bGUxOTY5MzYiPlNoZWV0LjExODU8L3RpdGxlPiYjeGE7CQkJCQk8cGF0aCBpZD0icGF0aDE5NjkzOCIgaW5rc2NhcGU6Y29ubmVjdG9yLWN1cnZhdHVyZT0iMCIgZD0iTTQuMjIsNjEuMTZjMC0xLjE5LTAuOTQtMi4xNS0yLjExLTIuMTVDMC45Niw1OS4wMiwwLDU5Ljk4LDAsNjEuMTQgICAgICAgYzAsMS4xOSwwLjk1LDIuMTYsMi4xMiwyLjE1UzQuMjIsNjIuMzQsNC4yMiw2MS4xNnoiLz4mI3hhOwkJCQk8L2c+JiN4YTsJCQkJPGcgaWQ9InNoYXBlMTE4Ni0xNSIgdHJhbnNmb3JtPSJ0cmFuc2xhdGUoMTUuOTgwNywtMy45MTIpIj4mI3hhOwkJCQkJPHRpdGxlIGlkPSJ0aXRsZTE5Njk0MSI+U2hlZXQuMTE4NjwvdGl0bGU+JiN4YTsJCQkJCTxwYXRoIGlkPSJwYXRoMTk2OTQzIiBpbmtzY2FwZTpjb25uZWN0b3ItY3VydmF0dXJlPSIwIiBzdHlsZT0iZmlsbDojRkZGRkZGOyIgZD0iTTQuMjIsNjEuMTZjMCwxLjE4LTAuOTMsMi4xMi0yLjEsMi4xMyAgICAgICBDMC45NSw2My4zLDAsNjIuMzMsMCw2MS4xNGMwLTEuMTYsMC45Ni0yLjEyLDIuMTEtMi4xM0MzLjI4LDU5LjAxLDQuMjIsNTkuOTcsNC4yMiw2MS4xNnoiLz4mI3hhOwkJCQk8L2c+JiN4YTsJCQk8L2c+JiN4YTsJCTwvZz4mI3hhOwk8L2c+JiN4YTs8L2c+JiN4YTs8L3N2Zz4=;strokeWidth=3;" vertex="1" parent="1">
          <mxGeometry x="700" y="434.5" width="77" height="77" as="geometry" />
        </mxCell>
        <mxCell id="0KorNPI6NSOoegdMhirZ-16" value="" style="shape=image;verticalLabelPosition=bottom;labelBackgroundColor=default;verticalAlign=top;aspect=fixed;imageAspect=0;image=data:image/png,iVBORw0KGgoAAAANSUhEUgAAAeIAAAC0CAYAAABISS/9AAAAAXNSR0IArs4c6QAAAARnQU1BAACxjwv8YQUAAAAJcEhZcwAAEnQAABJ0Ad5mH3gAAP+lSURBVHhe7P1Xsy1JdueJ/ZaLiNjqiKtvysrM0hAN0QLd0zacoQ1f5ok08o2P80AxNGt+g66vQ2vSSA6b5LDHOBg2WqHRQAEFlM6srKqUV98jtogId198WB77nJtVEF11wSqAe13zu/fZInaEh/v6L73kv/xmUQ50oAMd6EAHOtAvhNxnXzjQgQ50oAMd6ED/v6MDEB/oQAc60IEO9AukAxAf6EAHOtCBDvQLpAMQH+hABzrQgQ70C6QDEB/oQAc60IEO9AukAxAf6EAHOtCBDvQLpAMQH+hABzrQgQ70C6QDEB/oQAc60IEO9AukAxAf6EAHOtCBDvQLpAMQH+hABzrQgQ70C6QDEB/oQAc60IEO9AukAxAf6EAHOtCBDvQLpAMQH+hABzrQgQ70C6QDEB/oQAc60IEO9AukX3og1mvjl4Wun9PPel6fPcbPepwDHehABzrQ32ySl9uPWK4QRdSeyk/CjKhce7TnRkp9C63fnx5FBfnM43WafmH/fT5z6KtX66PYqdmz/cvTV/ZnfO2S9NrzK7JXXP2uU7vkeoX7T6hAEdB6jdP5TcebvuM+8wPTd6e/rt7en7U96tU5THNzNYf7Lx3oQAc60IF+yeilArHoFbgZ8BTUFVQKilawEZwKrvgKqoZGEzipKCpKkUL2kJ2951QIRfB1TIBHBausBnTT0DpeIAEoFaym8xXc/u/6sRfOxx6LQHETmL54bKdKKEIoEAuEAq7Yzyl2DdlBcpA8pHosA2OFCqChQMgGqNNv2PVM4H0lqEwo7hBcse/4IngFX3+7CCSn5F96u8eBDnSgA/3/L71cFj1pgxO0CyiFIhmVhLqESgYKoAaEFUQmMJl0SBUlSyGHQvZKcYo6O6arJ+7VxtX3PgtgnwHmelwDtkl9nL5UT/nao9TX98es4JYdZDFgza6emxQExRUlZKUpSpOVWMHZATKBuDMgngC6VGFjAtkrjXq6oisQtvOHLGrHEAPaUq9F6pyEKhBc6c0HOtCBDnSgX0Z6qUC81zSvAdqEZpOma8+vfeEaGVjKHnCkatEOxaGIGthNB9drAGbAeoWeguJU8aoELYRSCFrwRQlFq0atiNoJT8d5AcDr8afzlGo69mUSAgqOhDAiMoKM4EzgyC6TXaa4THZlf+0i9byKErUQJ9Den9c0cdd+rwJrzNAkiFkNZNVAOTkYvTB4GH0VECYBZH+0Ax3oQAc60C8jvVTTtKsmY/aaY6G4RHHJgLWag50GXAmIOly5+n6Rqi1KrmZtxXmTFVzVfM2sfaXpqUBRJamB3aQ/GogZ4E6PIBRxFaan70vVeOvj/mxelBLMhG7fst9WiiSKH4BcAXMym08IKHZcEdT5/W9Mx9tf096MLSSFcu1zjnoNk/BQTd2jg8ELvYfkhYKZpUOBNhloOwyQTQg40IEOdKAD/TLSXysQlz0QZ5Qy6XhI8TgNe5/yhBNXWmkGKYiAl2BqewXBatzda9gqSkHJJe9hVFSrydr8tl4VV+y3lUDBoTJpjVcm3isTtpEwCQ52Xb5UQUAFQVFJZN/X85308DrkCuzB4cTv/eOmUU/+7ivTehJhJwayKrK/jpghFiVm046zQB+EXYB1hG0UsrMTDwW6ZGDs9QDCBzrQgQ70y04v1TR9na4gaQJa0yUVh4oji5ArGE5jAkKkQnYRQhZ8Enx2SBFUhSxCEmV0hdFlRpcYfSL5RHaJUgPEXvBFI/ji8MVdBX1VAFQKKpniEtmNZD9Q/EBxA4iZnZ0mvBZiKTS50CalzdAkRywOV+xqkxN2QdhEYRNhHYVtFPpg71momEPUIcUenTpQ09STU5JXRq97M7OKacOxCG0SZkmYjQa2oVjA2eS/3s/hgQ50oAMd6G8EvVwg/gkAUNNkq0m6hixRuAKOXIOfrvszzXdrUcAugU/gcrWzFqEopgVTSGSSZNO+r2m1Zt51FDxZAoVIoZrDtQJhTYVCLNhKJdeAshcHZISC04KvWqpXCNkRcyDkiGhEiSQJDN7Te882eHbB03vHKI5snm50Uv3rc5sPE0yKU7IzIWO4BsjZmUATCjTZALlNQpMnrX8KYjP/s52nzeOBDnSgAx3ol5deLhBX83J9dqUR13/opBHLHoT3gVFVE4Zi8FkDq3wCl0D2YAySC+QCOUMpSCk16nryzzpUA1kiSSKDRHoXGVwgiTNYlev+4qtzvjpvCwy7Psz8PAkMDtQjJSK5gdKi2lBoyDQkIrmCv6qv0gFIsUhxCqiaWT2hjM6ixC29ygSL0Rf6UNgFZRdg8JBr6HUo0BShydBm046bBE22KO0m1zSqAxAf6EAHOtAvNb1UIN6Xm7ge8bwPZq5Iq5MP9SodqHClTZvWmYklE0rBZQNjA2Ql5ExINmLKxDHTjGraYRJi9vgSQQ0QBxfZec/WC1sPvTdAG535ZLNciQrmv60BV/t85atzNq3VkZxpuElM41YNUAKqNtCAaMCXQCiekD1hhJDAp4LLBSkZ1UwiM0hmkEQmEYtdu8Mir3ehsG4Kl01h0yi7oCRnExay+YNnI8zrmI3CbDSAnoD4JwwVBzrQgQ50oF8aeqnBWrJPXVJESvW9WrrSBGJZvGmjVbOUalINBYIWoo4EHYmlEJLDD2ZOLijFVT+uJNRlMyWLIiI451E8RQKZWLXhwFjTe0rNO47VjMukvYuCZJQEUkCuB31RTdjT8DithUiu5UAXLG1oCPY4ehMwHEqYfMpjsrzibJo++1xpK/KRBTxKo0J2cN4KF62j96a1N9lxtLMxHx1NNk1+F2AXYaj5yKKmIcdsAWh9sOO/tJt8oAMd6EAHeqn0UoGYCYSr/jgZciefbRZPxlGcmaYnIA5AAzRaiLknpC1+GIhjoSuBeexoZg2hcfioxLbgvDIMhcuLLZv1BlVBJZAk0hPY4lmLZwiR1EakNb1w2IAHvICrxUFEM46Mk4IXLHwrZxBBXJiSiCh7bd58y1GgCzD0sBsLI4oLEBuPl4IMPW63JQ4DS2Cmwtx75l1LN2vwnWm3m6JshgR9Zj56NmPiE+l50CjrWSB3HcE3zHrHfKPMemGpAcbCoEoKQome7M3c7bPiLeScQSYN+kAHOtCBDvTLSC8ZiKsmyVXxDZngeAJiqak2HsYEFKXzwtwrbUq43QXNuGMhhWPnOA6Bm6s5R4uO2AQkQmig8ZB7WJ9vWF+sGbOy6R1nu8LzIXOuwjo27NqOXRMYopWWHFMDasqvZyr4YSPaaSEoqgWcA+co4kgiWNhW1TwdBFEaKWgScgJyJqh5h9s8Mssjs5xYodxoIkfRczILrOYzukWDtqbJbpLSDwm3SYS152w78oNxxw+k52GjrOctpe2IOdBsoe3hWFukz5SsqHcQPcnDUIqBsRecd+Qrh8GBDnSgAx3ol5BeGhArpt5qDWyyIho1WEuhyARojuKAAJutIllZNHAUlKbfwMUzjnzhteMFb5wsud16bq8ic2+m2B4lKTQidECsv58SPDtXPnl6yYPLDU+LcB4iZ97xVDNPxpGdC7RHJ6TsyKNCsmpWDUKDI2DFPwQlBI8KJOqo+b1TWUocoIm82zEPjkV0tCXjthv8es2iJO52La8tF9xbzDltG05njuMOWm+AvgV2as+jWMBVPod1D++nwjeHHd8bN3zoEpfBo64haEMzeubJE0fBq+CcoB56gW3OjIAEIXiHy9M1HehABzrQgX4Z6aUC8VRgg6pp+n01KNON9xqxmFY5joqnMJPCQgfmw5pF3vHKsuWdW0e8ddpx28GsmlYThURBEFo8EcEDmiHtlNgIRZTzrHy4yXz/yTk/PH/Ow7Tj3Hs2zYJdPGJ0M/P3ZovE9sVSpQKCR3A1rqwojGognBxkDyVMjSgKIjs8l8S8ox0H5mPiWJV7IfLafMGbqxWvLGecNo5OhUYgOjOJU4PUJo+0U2v4IL298EmBb/eFb6wHvtWf81EeWYeIxhlBGmQHMXubBxHUwQ7YaGHrQIPQOqEbrBjIIXr6QAc60IF+OemlArFVqTKTtNV0tsCoKYfYgrXMxDsWpeuEAMhuS9NfcNtl3j5d8c6NllcWntMgLEk4HUhSKDgEj6fB40wbzooUZSYOURiSAdLOK89L4tOUeP/sKe89e8aH68RTFmh3QtssCL6BLORB0QQeZ1qkg5QhldrVaWrMEIBgTSMKPSIb2nhJGM7p+p6beN5crPjS6U3ens25FSMzsSC04EBLphQLYPPO413AS40kq6WqpaYnbQQ+Bb4/FP7kYse3L874qGS2bQfNnNQrvgTabLMhIozOosI30QK0GoVlD20+APGBDnSgA/2ykv/Cf/1Pv/bZF39WMsCy0OnJeuum+tDXMoonarzgNeOHLYsy8vqy4yt3l7y1CtzwQqMgouZfxpMI9AQ2ODYII6BOrBSmt0cRCA5iFNroaZvArBFWs0gXI/1mR4OjQYk543Nti4ggzqPOwsymHGecHdM7iFIImoklEdOOmC9ox+fcbJS3j1Z8+fQGXz455e3lkntNw8IJ5ETSDD4wiNCLo3eerTgucuFyUFIWnHP4YCbmUU1jbiJ0jSA4ttuRdT/Qo5QQ0BAoE4hnUK0g7iFH09pdsQjqcEhhOtCBDnSgX1p6eRpxbc2XnEVLx2ItAEM1+4rW0paIaZcechqRccuSkdfmnl+5PeerJ5H7XpjVtKAiyroIZ/3I2ThynhMbMgXH3AWOQ+Q0BG60jlkxLTCIBVONwE4LGxJrgQdD5lufnPF4WzjbJC6HwigN2i4pYc5IoM8wquJDBfbaNMKXgtOBoKmWu9wRZM2i3fLGzSVfOL3JG+2SmziWBToFJ8pYMhsKuxBZo1yWwmZMbPqRfj3iBjhyLadt5HguHC0jZYRWoQ0wCHy4Vf7w0w3/4eyc9xi5mM1heUQuHt9D3IHPgncObWDTwNZZJtYyQXMwTR/oQAc60C8tvVQgTk5JznzEsahVeao+WKdWySrjIIBvlLNn59CveWXV8muvHPNrtwKvObihygxLcTrL8P6F8v3HT/jg+TOejgMbgeI8XWw5inPuzWe8c9pyw0VueMdpA/NYg8RUGUXZSuES5XkOfPBszQ8fPuPTsw2XGsjzE3J3xIbIxVDoC8TW4cXO3QqIDMRxS0tiJoWZyxzPCq/f6Xj1ZMGrseOmOma1VWFw5k/eOnikyrup55PU8/F2y6OLDeuLAbcVuhQ5KjMWCDeO4EtfOuG4hTtEbuLxBc4H+M6zwu+fnfNH63M+FHC376CuoRkc7Q58b0IPAbaNmbZLwUzj5RCsdaADHehAv6z00kzTU/nkXDm+UyHUmsxWB7kaq6V2dBBl3O3oRLl/0vH2jRmvNXAkMM+FTmFAePei8Ecf7Ph37z3gTz5+yruXiQ9Hz0e98OPLkfefXvL+w3N+/GDDemhousBsZsbm7U5ZbwaKKq13LF1gKUIXAtE50yBrlaydWhRz7zzJO1K9HlGQlAhjT5d6jijcbiP3FzPePl7wq7ePeCVGjrOj3ULsoQN8gAvggwH+9KLn9x484F8/eMTvffKQ33/4jG+dD3zURz4dWz66cLz7+IJ31w95frxmnI0sfMuSSFSryBWCcKnCRxdbPjp7zuA9KoEOz6II3QhxgDCCr12agtZ0rAMK/0LpuqR7uBUHOtCBPksvDYinKGB1xmysVKX5iX0N1qLWeE4oQ840Qbi5aLi/arg/89xt4AawFEu9+XST+B++d843Hu340Sbx3Lf0yxP6xTHrMGPjWsYwI/mOi23i8fNLPnn4nEfPevoSmK0i887RNKaJ99mCw2ZeOJpFZl1DEbjcXnK+XbMrZg8OXSAXK/rRArNSWJSBEx252wivH8155+acN08aToPjSIS5WG6zj5AbeAZ8+2ni3/zwMb/3/gf82fNLfrQrPNbI2i9J8Yjsjxjdgp4ZvY+cy44fnb/PbNVwb3bMCS0+2Tk0LZwXz/tPLnjv0wdcZgHfMgsNrThcAnqrwe1E8E7wVq3kWp/mF27XT7w2vf7n/fXXQVMJzqt4gtp/eb9ijP48YUJU9p+zBDer6lZLr/wcw45n1eKufmMf86A1daxWWXuhlOhUk7xmB1w1I5Ga5jdVdZuGfXkSZq0Aju2l6TjTwa8+PjUs2U/FgQ70t4Rqe9zrW+QvGz91H9QKiNNuqZ9RPrvfrrfVnfaU7a/p+1cxTtP7L5deHhCDcYjatMFRECmVcVl5yIyVb8xOUK+UvOWkKXzuKPC5ReAmcCzQirBV+M7Tgf/2uw/54QjPfaRvO8a2ow8NPY7kAhoaNESy86xT4vHFmo+fXfLwcssGKN2M0joGL4zVf9x5mDthEQOzKOAGxnHLoIUiEVxEcLRYLef5MHKcdrzSKO+czHjn1ozXjyO3G2FemfMgsPXw3MN3d/Avf/yM333/EV9/cM6HvXKeI6nM8DqnY0anM6JGnHrLsQ5C9sqQBtgWXpkf8+piwQJLeVIPOy88XO/48aMLzpNn1BalAQISBB9BGkGdkjSRymiNJDy44HA1sK1o3vdvFgfixGC5LsK/eJ39xe/+x5ArQLKSn0EtJzwo5o/PGSkF0YygOC92rmLX4MRSzcI0tFZLcwUnBecUJz/nQPA4PAa6oUzDYhGi1kemXty2UScAtpaWfKal5cQ1rjb9xADse9Z9KzulOIvQV6cgk3BQe1nv74TVbT/Qgf420F6wrgG+k8Apk7COXgUCT8J6Xf8VJusfBuZ16+xh9Ap8i3Xsc5bpU9y0H9V+85rA7dR4lTOO+dey314iEBujsMrIVrPZ2iQITj1KTV0SKN5qWo7bc27FzOePI2/PI8dFWVbT9eMB/uTxln/10RMeh5ZdE0neW9SxWpGNIh4VZ3WsnZC9Y3TCRjNnw8iTTeL5CGs8OXqaWDVXMebZSKGLmbZTQhRUPH0S0ig0EgmDMtuNnObEa53wxZstX7g545VVYOEyLo0EhCSOCwcfjIk/ebLm//PROb/34VO+ebblEZGxWYHMidrR5kiXPG1y5tMtxnSTU3COTuYMTza8ulzx1o0VJ96AOAE5wPM+8+Gzkee9o6dlJJKcQ4NDDJMpomTN5NrFCW9FP6QCQCnZKocJOCc4EVSv9GNb2J9dbdPfn339ZycpoCnj9i4MsWpnVM1YbBcpBakNrHTaVdPmrG0pTSPV2sqy7HtR/3zDggyZmmfUTTm5XPauF+rHwTqLuam9pwmeUw66lUad2MU0j7ZvtNYe33cjqylz5Urd3zOWsGcME2N5effkQAf6RZHV8J/2dX2sAHqFLdN2sOf2bt1N+/+udpgpgnZ85UrYnVJtrXf9lUY8fdDVJkDWCOiqPwHXrVkvkV4aENtkTaY8rQ0UTLpw6gC/b3+o1Q7p045X5463Vy2vNIEjlM4JA/DB5cifPrzkW+c7LkLHGALZ1YCv2sLQakE7isJu6EGEdjZjsVoS24bLzY6HT55ztlbURVat4zg42lpnujCgbGmDsJjPCO2MlIVxO+J6aLYjJ2XgzbnjK3fnfPVex/25Z+YK49izGbb04tk5x4NS+PrDM/7f3/+Q3//wAY8kkI5ukOcreg2oWM3qydRBFR5MYxKSt9fcKLDe8dpyzpvHC242jsYmmAQ87QsfPs887pUhdJQQSE5IpZBSopRi6VbB46O3EpeiFFW0lr8UJ3jncc5BBYEX7uT+z8+utunvz77+s9EEIi+0wnRi2m9w4IUstT+zKEkKSaxtpJXuVIraBrP+1Grvi3WQ/tlH/b4KSe33Si2agrNHnc65Vl6b0t2ma1KZzGJXmzqUqrkXk/p9NTFPWAtT/MSLAoe9Y59z+8/bm6X+1oEO9Dedrjjj1bh676c/pwq/BrLT4yT0XmnDtqemPWog/FnBHpmEbdPGr2vE0zGmPf4TJ/Fz0ksDYrhuTgB1k4QhOGuzUDv82kU4UbrS88aq4c1Vy+3gWIqZ3NYZ3nt6yZ989JgPemUTOoqrVaDlyosn4nBivxlkYm5W1YucScPA0O/oh55+O5J3MA8tjRfLYZaMk0RAmMmM0LRE75Ddjv7RQ275zBdPOr56d8Y7NwM3IwQpZDLZOVIz57kLfG/d8+8/eMh/+PEnvPfskmcE+nbOGDtyjKgPjBTTjmp3piHA4IUhCIN3ZGczF4rC+pw7Lbx53HJv2TKv8zsCz0fho7Xy0eWO3kdGJ4w5M449eRzQXPAu0DSB0DgrSKJKKQWLj7dOVc65ffGQCYdlD8K2JX5yU1xbsT8nKZC9kFthiG4vjOQ6khcGKfSa6Clo48nBkb1QgqBeKF4oHmsi4oXiHcl7sg8U9/OP7D3JCyUKOdbHBlKEMUIfrIDK6Gr507pJBYu2jwWaJHRJmNU2naFI1aZry81qAvMTwFbNWyroXvm4riR74xgT46nJ8wc60N94qimj9vSnkHGiK2H36pFJyavfs8dpn1wDYWfgex2E9zxOBYerrlSHw4pEobbFtNbK+KUH4kmCEGSv/iOYeW8yLFQQ9pqYa89bq5bXFy2nDub1+s6B7z4+508+fsyjEtmFluJMo9Ya8EV1oDscXhzBeYI4NGeG3Y6x7wneMZ8v8DFyeXnJs8ePyfX15TwyCx4BChmr2xVYNQ0rp+jFBe+cLvnqvSVvn0ROo0LqGfLAiCe7hnMVvnm+5V+/92P+4Acf8tF6RFc3CKe32UlgkwpJPK5pGEt+wf83AU+qTSW0+iM7Cch2zU0/8sZxx+unS5YoRTODwPPs+Ogy86NnF2ydJ4kjaSHnhOYRiuJcwIeAeEeuJmeZzKJiAoyxdmzxT/9fA+SfRte/8/OSCga2tXVkqe2wxFVgqWbpyRGUyRQtXP0z83pR04ULSlbI6ikqL2cARTK5jkRh1ExPptdCjzJoYRBQbwxhOnWvlrrXFKsh3mTzKcs1c9kEwpNv+UWfWH28FmwiTByjMheoIPzz348DHegXTvsFfu2pbYI9mNq6/ywIT0LpFUhe7Q2jK2uVHW+i6RNXGrAB8IRj/DSN2gyJL5Ve2iEnDd8XcMUkCgNNKviYLV4wv17II50Wls6aN0itcJWx5gUXJXM2jjXAxcyQ1IlzOuUmm1/RFSijaYIhNqgPDAg7HGNsGGLDpfd80g/8yceP+KOPHvGtx2d8NCQ2RDINgmMO3BH44mrGP3zzDr91/4jPLx03ZaDNPdE5nAtsfeDDBH/48Jz/1zd/wB998pxPUmDTrBjCkpGWQoMSyBnGnMmijE4ZvTJ4a02Yq2AhkxSGR0KDxJbNkLnc7khFDXhKQrUQvTBrHKIjlIyIBVypQFLY5cJln3i+HbnYZsZsC9e7QAgR7wOqSs6Fks2u66SG52IAAFUK/MyYPvOyqKDssgFargFpKopqgpzwWmidMA+eDqXVYjOrmWhdp4mS8ZIJkgiSiTV8Lb6E0QCtKK1kIgnHCJIoLpNDoTRQZg7thDF8JiCrgm3MBsJtsvzyKa/eVz+v1Tk3c7XPUzCYI2YboZjmbNqwMRvzP9soV/LTgQ70t4Pqmp6AdRovxE9c/1uwoMaKE6bpTs+vvrMH4srjXM148OpwpYKvIf1+r73wu/vvv3x6aRqxTNGcFgNUzbDXw8GBmk0cNNOUnpUOvHPccr8JLIoyD87MrwLffX7Jtx+eceFmDL5BxV+T/m1GqvHAQKIoTkzjc846K2SsLeCgBfUBYsM2KethYDPuSFIIbWQeOyKeBkerwkIc95Ydt7vAXAd82gEFiTN2LvDhoHz94SX/6v0H/IcPHnLu57A4ReOKXfLsBgEaQmgQceSc6ylPQQF2QycAdsXhi7MFgSOkHcu85s2jwBfunnLkCmgmi2OD55Nt4tufPGYrnhIbNHhwri5eR1ZHypBLjf51QvAe782vXnKxmteqZqJ2HtREgs/e0xfpL7Qb/UeR1kpsO82o1DaUuRDGhBt6wjAQx5GYM03JhJyIJVuJUc3Ekoml1MdM1EIohabUYjLFvvezj0SjI00ZCGXAl4TTjJAsctNbq0kfLE2sFHO8OBXc3hdcg7mq0Mg1JnJtJb8wm9f1X3tvetx/oDIHg99Jcv/578iBDvSLp/1an9j8Z8B4Asbr2vB1UdRM2+a83Gu+dXMYiO4dm0hV6q5SlGoMzzUr1PXvTumEfx2b7eUCcRHrIMTkC61O8foBp676xxJN6Vnkns+fzLjfReZF6YJjCzwFvn+25juPLlj7jtE34PwVS6p3RDAfcXCeGANpHBnTCOIITQvesR0GdiVD0xIWK0q74Plu5MnZGevNBu88R8sFcx9oxTQPn2HplEYzPvc4TWRxXBD5cCx8/cGGf/ODJ3zj03M23RGpO6b4BSlHcvI4GhrfEX2DU0FLtghymRaBmUJ8cYTiaLIjFgPkUpRIYjle8uYq8uX7N1m5jJNCEc9WPJ9sR7710WPWEsixoXgPzlfz/xUQp5wQCl4UJw4RDyhahFIMGcxMbQvs+vxesf+rZ+wX5ktYiYK1zBQD0TYl2n6g7Xtmu57ZMNANA13f0ww9XU50aaRNI019bFOqjza6NNKlgTb1dGn3cw47RjtuaceeJo00eSTmRCgJX4fLCVLGl4KvufN7k/M0T3XJphpBfV06vz6ufdzGxBAEu2/7z9rzPbuopu0DHehvOk1rf4JWlSswnvbRCx+s2q9Uk51MqbMTGIO9J9jrtSXsFCB5BblXbtU9x6u/9cL+/GvaaC8FiKuwv8+xFMzvl4L5QyeTtCim+ZREmwcWuecLp3Nenbd0KkQvXBZ44gyIv/fogo3rSM404onpsJdaKhB7TxMj45gYxpECSPBICGTnKM4xem/FP+bHrLNj3Q/stj1pLAQXWcwauuiICj4prh/wOVnuaozs8Hzv2YZ/98Mn/NsPzvnOmXLRnDC79Qq7EthtCuTAolmxigtCDjBkJBeiE9Bc86st3SYUIWZHm5x1UMoeKcJQCvMIy3zJ51aRr7xyg5UkHAWVwAbPx5uRb31sQDyGSKrtJVUc1lgyUNShpUAZoOR6p2wJWpBbrXJWo44ttemKob/wqNX5uX/h51+NUs90LoVZGpj3O5b9yM0C90LgfozcC5Hb3nFDhFNRTgSO6+OJ6LXn9vcJhVMZOXUDJzL+7MONdhwSJ5o5QTkR4VjgSJS5ZmY5EYce129xQ08nmFauxgjYm8QsFmCsvvDkq1n5p5i8rkvb1/e9cE2FnvKP6+uTOe3nvyMHOtAvngxQba2/EAX9E2A8Aa+B78RPnBasfFO2qCQp18DZ+O8UBS3VojQNmFI8bTft9+P1/Tmd57XnL4NeSq1prakYMVmpxSJw2cKmTSQ/ghRcsf65FkE6sEgbboxr/ifv3ObXbq2YJatM9WmCHwb473/0gP/umx9zJiv6sAAJxpDUoSqoCiIeqYBStOBCQJ0w5pExj6hTfPSIg1SUQQPSLGhzZrF5yvLiAbfGC750POPvvXmfv/PaDd5YNayAJhV86mv4q+Nxr/yrD57y333/AV8/Czxd3CEfn3KZErkoUT1zFy3YahTGXU8q477qw+AGkkvXTIqOmAMhB2IKOPXsnHDuMrcWyt31j/lP70X+57/9Dq+wJWhilI4HpeHfPdryz/7D9/hYWy7jjJ1vyD7W+YioRiiCzz0hXTLzyqxrmc9mzLqWpvE4AS2Qk5mog59ChSwFjWuLTWrAl8lAk5z5s5Ni0mnURKc73HZN6AdW4rk7X/D68Yq7S8cyWDtNzUqIuu/ulWspVduKV4KgTDaBn/cEKwk2R9RGJUmgV7jMcD4qZ33iYhy5TIln6y09juwiRSJFgg0sh/7FcY25XPstN+UHV616mn+tpujsylWxD1GL8ixTfMGBDvQ3nybuMu0LFQuafFFQ1arZKkKu4FvwqvW5ImrpSYVJQTGBtaqEphOr7Uf71esZORPYX/3mnsdo/f16fi+LXioQN6PQjmZ6W7ewbjOjH0AyXoWYPF2CWRpZjGtuDJf855+7w2/cOeK4ho09LPCxh3/x/qf88z/9iHN/xOgX4KJpcZgKsQdiZ8A8lowPAXUwlsyoCfVCaOy1PmW2CZAZt48jzfOnhAcfcqs/4+/cPuYfvPUav/X6Ma+vPAuFrgD9llJ2lCbwnJY/eLjhv/nGD/l3DwsXp68Sbt/h02dnxKZlHlra4pA+w64gWnABXCOUmNmUNcllipip3qvbg3CTA1ICOwfPZOT2Sri3/ZD/7F7gf/abb3GnrGkpZDfj49Twbz695P/4R9/jU5lx2S7ofUvysRpcAtTgs1gSTdngS49DiSEyn3Us5h1tGysYK1og+L1BBkp9XS2AzolYm0lHDf76y8lSlAVVa9FIzd1GoBRFx5E4XHI0XnIzwp1Zx935jLvzhruz1hp3uNrIQiE25qPJYgF9ny3ZUbeWFQP57Mn8HPTZsiAJA+Nthk0qbEpmnQqPdjsusnA2wrNd4qwfuUiZQRzZBwgtElqKBsakJFVUBBdMUCzZumVNQWI+X1XzoUZ9GhAbGJtAZ0AsByA+0N8SqjD4AiDuNWMqEqpS0kBw0HhHFEXyCOOA5IQr2YAYRZ11/TOU8yyWKxRPP2ZUBRci211GfLDugKp74EeM5+0Zo2KxNNeE5JdFL5Nn1Umrz+v/dg3X9fqrSS1An5ScjUlr7fvbVWaEKhQ1Rr6n65Eu9Q2xIhVjTvTjSCoF8R4fI7iav+wE7z3RK6nfInlgFoTT5Zw37t3hjTvHzKOnpDrfAnjTXnLJuOi4eeOIV+/d5ebxkpBH0nZDEzwi5o8dcmJUtcphwUMMaHAUJ1aE5FoY/d4sWTU8S/cyC3DJCbQGnwGq1c+OdVQaUiblQlEBMf+wiGlexabMfsQ5fGzABcasbPuei82Wi03PZpcYs4GB+Cp17hf71X1ErASmm1KL/ipUvzNZeaQO5+z+CqA548aepY68Not8+fYRv/rKii/dbnltDjcdHKuNE2BVbBwVe+2Iq3H8E0NfyjgClmpjVc/llsIrwFsevtw5fm0e+c2jln9055jfuXfEb91e8tUbc946itybCcchMZMtQS+hrEEGis9kX8hBSQF6r/TecpIHV03YdX0wZXFNlceKZQmYSfrlM4QDHeiXg64vbuN+Zq1T035FCRSCJnweCOPOuuONW7q0Y1EGVjqy0pEjEos80AwbujzS5MECQktmFq3KhbmYJy47oVetwaCK1vHXRS/FR0zFxalAQREYg5J8QV2136vgi6+FDBRfEp2OvLKac2/Rsgw26z2wFfjh2Zp3H12ypSG7BnF+b7+/AgxTs4oYWCIgVnDYkF2uPuOcow2eeRSGJ0+4UQbeOYp85fYxf+fVm3z+RiAkQTN00X7FBQfVpzc4Rw4B2jmjtDxb73h+uaY9mtHnkXEcEISmjYTGM6Jsy8hWRwZJjK6QfU3TkWtmECv2TBaxMohRaGXgOF3w+ePIV+6dsBQrA5lc4Cw53j/r+c6DM9autaIhLlKkVh+eLAWI+SqLBWzJ3odsYJ5VURzirAb1pLlOa805wXnrUDUB8B7k/zKqtaCV/Zq+CnivxyEnVpJ457jhzeOOV5YNt1rPkYe5mjDWAbEKZ86BF7V60mJ1pa1MjNkAAhARAla3eiqV+bMPEyS0nnaodbAbrL50U65GqzCvjT9WUTieBY7nHUfzjln0eM3kYcvY94gLuBDwTUSiI6H0qmSwC3M2Z24yVdffry9Pt7gKSnaXDx7iA/1toRdW8gtxKWCKneJR5k2goUC/hd2amAbmFI68cKOL3Jq33Fq0nHSR01nLPDhcypAS/WbL2A9472m7GYqraaKAN36ISK3cZ8WQJhC2/fjyd9xLAeKJx5rT25jE6JXsi/mHa66WLx5fXO2wM9KSuLdoubtoWAUzryWBHfDh+ZYfPF5zWSLJtVXrM3/wlFWsYozLzAjXGJkDRcmlkPNITpaXGsYd82HDHdlxunvCV08b/ouvvslXTwJNLiyi0AWhHwq7NIIXJExgbwB33Dm6WcswjDy/eE4KMOiIiuKiQHQkL2wls3OZwRfLGw6WQ5xr1OxUpjOLWInKWtQiREcc15zmS7542vLluycsRUELSSJPRscPnu343qMLLl3HGDpyNauYhlQLnYiYeaaMiFMz4SPkUhjGkZQtgEucx3lvQddSwXhCT+p8VtLrQuNfQuKuW0GutOJq5MBp5iQUvnp3xRvHlip25C2nPIgNXxV+i64woa64Us37V8bpybNj4GUpCFer8mcbKnbPR7HfE1GcWGS0UzN9uaL4UohFaRFmIswEVgJHTlhFx8x7YraULMZMzop4j/OOIsqgiUEzuQqRdt8qCE+jnpUxpqvoaQQTvOzdAx3obzzZSq6L+9qyFqkRFlrwZDovuLFH+i1dSdzsGl49WvDqyYrXTla8cWPFGzcX3Duac/d4xo15x8xHPEpJ2aymzuNCS1JzXSY1IGbihZXfGX+h8tW/HjfQSwFi6tRNsnlxmOnNZ5NgiuDU49Qj6k2n1UQrmZtd4O4sctJ43GSuBj697Pnx0y3PRsfoWwvW2muS1cTrjDlNZcsKUyi7aXSC1VcmF1xOtGnHcrxktX3Kr96c8Tufu8uXb8654YW5s6htPKzHnu9+8BHnwwhtxIeGjCNRaMSxaIWu8fRJ+eTsMRqE2AachyGPbPPAIIo2HtpAiUISK2jCpNFgeXBFpo5UBjqtd7j1c25Jz5dvzfnS7WOWdY4H53k8CO8+7fn+kzVr35FiS3bRtFvMf2HZyCAUiibj3xMQqwkoVf6rfhAhRjOxI1gwHFeSoNZoQhED0b/KQhSxRhL23QrEVN8zQqRws1F+9W7HK63nuBZ2CWABF2opX05MmMuSrMKV1diiUH1AthrqmjIx5GWQ1oCwVH9jksT3hVqL5XZbhygbvlgnKY8QndCK0HnH3DmWvqGLDZvtQE5KzplcRrsWV9e1GBAHN5mfp1SoCYgnbdjcGNMNOwDxgf5WUtWIK1uyPahVGE4DbtwxJ3N70fHWrRPeujXjtaOG+7PA3cZxKwg3gnDDC0fRs+gis7YlxpaiwpAyQ1GK8yTV6j40AdysT2LWt9q73v9VXXM/A71UIDamMAFxpkgF4qoNW2BJBVJNNK5w0sDtWeBGG4n1OCPweJv48PnAg60yuBbcBMTGjKw9HKiT2m2okGpXIeeEGDxNCKZZAW3JrMrAjbzm1ZD4B2/d5TdfvcVtD00ZmDnPKMJZhvefnPNvv/MuH12sGbzHdR0+RArGZBcirLqABPj02TPrkKOJnEeSZsaaM1qCQ5qAC56ck2ltn9FwLAjHrscJdAJy/pRX2syv3Dni8zeWzKveN4jnwa7w/cc7fvC8Z+1mjKElOyt24tSkRl87Aglq2uMksNQbZdpUNb/s61AbNMvUdOGaRGhS1oSk1+/3X0Bi5m4wM/VeG6627cbB7QZ+5UbkjhNr91hBmJys/aEo4uwakhQyZsK9HqjFfpNiphAxIJ7Wyc88qrBnd22SiNm3SKyfuBo1iMSCORQvQuNMS155z0kXWTYNu01hHBJj31NywgczVZdJ+haxeuf5GhDX65vObSoKojLB8F96Nw50oL9RNAHhFbJo7bRWiJqRYUenmZtdwxunK966MeOVmeOGF5YCc1UWwBzZtyptgjBrPO0sMBa42I6shxHfdRRvqa7W7MX4rQO8sz4GvpYI/uuil6M+XGMSWSrzr20QXe024ysIUzvbDHh657nImcuc6CtLi9U3eBwiN9qOoFbYgHpz9Hqgk0CR2kvSqdUF1gSa8SgRJaoSS6EphSXK/a7lN964xxdvH3MrOpYUGk2kktgCPzrf8vs/esQfP1rzbz98yr/54AnffLbhsToyprXPUO57+LWbHX//9Vu82cJs85ywec6MgUUrOJdJua9FNWrxjuyIRYjZGgL4YprW1BtTyUgZkTSwaCKrriWALcYajDWkwnqXyPpiekz9lJluJqmx+oYL1kUoA+qt9rVrIuqEIScuthseP3vO8/NLtv1IQWt/Y4cEE35y0T2I/pVIqRqx0QTsk5btnaMLgTnW07kFQt1spmUa2JVq6TDYqxJrTQOqxqI6qutiWovTevlZR91zdnSPtSOp6UdyzUE9lc4K1qBYXMarVf2aqQWP3fHC643nnUXkq6cr3upm3C7C0ZhY5cwCaFVxJUMphucT6E7XshcOatbkZB2qrx/oQH87aALfKwAWpoBFa+jjS8GnkbmDm/OOe6uO240FdS4VZqkwS5lZzlaxMRdmY2FV4EaAezPh9jIy80IatqhmQnTG72rgqgVoXWMIRdFc/to220sDYsDMmU4pLoNMJf9q27divi9VA9zkPKMLrHPmMiVG7D1fg2FWIXLSzfA1OvS6DmZMavotA2EXHS6I+ToplDQy7rYMl5eM6w3sehbO8fa9m/zaO69ye94RxtECe1xgUzKf7gb+7OMn/PsfP+IjWfKDseMbT0f+9PGOH68Lgzo8jqhCp/BKE/lP3rrPl4/n3MwDi2HDkSsct4HOgY4DZbeDIREztFnoRkeXHN1YGwFkW1xm3sy4PBLIHC9mHC/m+P3cOgqwHRMX64E8Fe7YA7GzT9VcOq+W0E5l5tbazywIEnzNuXYkVXbjyNnFBWeXF1xuNuyGkaJqAdnBAt8KSipX0dt/GU3r9wWn8h6cDYhbH+iAWQXiKQgqKgRsrq2IaQXaOuydgK/D/vn6+bp5a7Wdn3VMUB90CgJz+y5iYH2wdaqPHUC9ot6iyyQKzpkpO2DX0ykci/D545YvHa/43HzJbQkshkw7jLSl0GDMZqoBfl0oKFVDf2HAC/viQAf620A/wWNeKMBhWrHLmc45jrvASXslzM9UWaEckVlqYqGZRckcaWGlMFNYAScx0EXH2O/YbtdWd0IMgFwwd51iaYUlKWUslFT+6kEy/5H0coFYCsVlisvoNSC+7uuiajYJ6xy0zZltzgxA1oKbgNh7jtsWP4Gw2q0w5lQbqFdPp5pjFOcFHxzOQUkjw3bDsNkg48jMB+6erviVL9ygc4EZgcY7NuPAxZC4LIH/8L2P+bfvPeBROOb58hXOj9/gQ475s8cD3/jkgk/6wlDTSXyCRYK3gvDrN0741Vs3eL1rWY4DcbdljrLygSYrbjMwG2E+CvNRWAz2OB+hS9Bkq48ctOBLonFwvOhYzVszL2NaZAa2Q+JisyNTuzbJBMJTOotBtqsmUr1uQBWLls7FOhXZ3AniPaGJ5FJYbzc8P7/g7GLLts9kZW+WvtJv/4o0SZX1e2YGtzvoHbReaMVAqi0QsxCz0KgnaC1UkQUp5vu1fwbE07+AtyDA7PAZvJpG6jX9nCNbEFaBrnZRCrW++VS7J4lndI7BCYMogxSG2tgje/MvZwtcR0doRrgT4O1l4O3VnDuhJW526MUlTc4sQqD1Hq2BdEwg/BOj+rEmd8OBDvS3hq5pxFUSNa34KnVpUjQ6JyyjYxHMpdcCCyesgqMLDi8KeSRQmAdh5SCMhi9HM8dq5ihp4Oz5M87Ozthsd+SS8QF8tLMpuViwbynVPP3XQy45i9rddwKqkc9XXWGuAFQnZl7HniFgJrLkhN7byGLHCtk6zsRixRmmikFmenSkJAypamtVa24UFmKTatr0dc1omoraQMEVMok+bSk64F2mcZlOEvMyckzilS7wxZtHfOX2Ma+1nldaiChjcZTQcj4KX//ej/nuh495PjiGMGcMc/zylNF1fPjknG+9/yE/+PSM56mwczCKtSaMCO/cXvGbb97n7dNjmvUl6cljljlzq+s4CgE/9MScrYFBzjQ10nYaoc5NKNb8oBPhqHMsG9O/KEopVkxiOyYudj2j1A5ONZKYWtLNl6nUqAEZtZqMSgXGbNYCTak2yvC0zYzj09s0syW7UXl6vubx83POLjb0w2iFPZxpikqN2r22JKUKJzZs01hJqkkMmOIupg1looOXax+pblZRRUrNgcuCZiHnCcsVcxBUsCwFqRLFlFplwRbVpP1zjCmwrgZsmzWnCpFWrHRKkLI1qaWg9Zrtc1fHcZZSTuttL5w2cGfmORLg8pJ0cUnIyqzxNNHqgE81cacp0n0sgc35tEftXtfm5XWOtEZ6FzGhuDiL11CpVUOotc8rc7t+/z5LlRdeG3u2uB8T45wK5k8lA19wKV0bfxH9tN+YXBJaBfLpd14QzoWfuIfmItuL61fMXGuZw3oy/zHnd50++z0Lopvue3WiVNAIdXjNNRDRlBW7T1pdEC/O4z6epl7LdD3XROs67Az2/8TW4GevRZR9UxJ3bc3UpV7ppx/nzzuerR+71kk1uj4PV9d29f0X+cXVOgHsXolZVG1GxArWqPF/1PZbEGEWPMvoWToD4ViUqMUCKvNA3lySLy7QYQQEVwrstjQ5cxLgpHM4hcuLNU+enXF2sWVIBXFWBsKJZZ1QRrxTmsaUvBfmiJ+coz9vvv4i8q/+k699bazh2tPmjkWIdYP7mh6hMqXdQJ4KVFzNHwWh93DurdduUMdMPfPsmGUhZAsKyiWjmvAu0+aR5Vh4Zdby2qpjniwXU5K19Hs6wreeKGc5korlAocYILhqClSyJBIDqfRI6WkkMyczSzu6zQWrfsfn5h2/ce+I37rf8mYLNxw0ImQVzraZdz95zh+++yHvP9lwUSIjkd1uZ8X9hzVu8xy3O6PVHU0o+ChIsPkYpOCjJ3QWWb3ZjVxc9uRsWpwWi7Bto8OJIiQQ6zikXshOGBFyVvyYWeTEneD4rVeO+Pxxx7xYNDEiPBmEbz3c8u0nF1wuFmwaT+8SWXtER1pVOnW0ucGXhqye3lkbSqH6VzSb5r1nRs5MrQSKejIBFV+BLUFJBJ9po9C24Yo5qqJFkWJQ5Kvi7MDMu2BlR72ZeUoplRHYBlx4uD93fG4GSwdxCoLSYqjtLHlY92tNLY+YAV92SOrRlHEush0cuwTSwljN8An5S8Zf9pmq+dYCL9nD6CyQMFeGaTXDoXpirCXnPnLbrBV6LWR8MicnsRyt7ODpZuC9hw8Y25bSzRhr2dZOHL6AptopSxSis2ptgM+KH5W2CHH/uyaYFlfIEwA7a9tozO2q3rmlglCFnr0U80LfaqgBfTWqe4omVcEi7yu3Ea33v7qWvFpVMMEsLhNmXmMXLzyfXpmAaGJg0/euf3+ysF0XGuz8pqI41mimOAPDeoIVgKl74FoJUVezLrAXFFuDdvjrYsYkTNbfxF6sskDN2oBRM4VkUfRaiNQOYZoJmnCaDIRdsbiWylPNsvWiEgTWwS77bMK2vCiWWB7E/ibAtc5u0/lNx3SYUhP2rp9aIIYpMNMq6eV9j+8JYGwmbD1QgbEKXChO89U1VRDOUmyt15oJ08RN98++W9fZNLcqIEpxI+qSXZ9aa8Kreuo1gEozMffcWbS8dtRxt3UssX72EaWQGcRCa72PuNiCCKUkm6PgSc7xaD3w3oNLnmyVLS2jtJQaBxSc0DpovRKkoDoypsEwr2aaTN3+9nBsuU42V59Z4J/589qqMvKv/pOvfa04m6BQTHONNfbE1cWqta1hrs3crSjF1SFd3RRDgE0rZO9oi7BIwjwJbQbRQhYliS3C4AQ/DMxH5XbTcmfW2mR64xnFwRmO7595nuwKw9DjSiI6cDoiOiAMUHZI3tGIdXSa68Ai7Vj0a1a7S+5J5qs3jvntV4/4lZuBW84i6qKz6Ljn28xHTzc8Xo8k37FcLblxNOM4Cnfnwv2Z4+7McbNTjprMchZYzBvaNuK94CSbiTRYJa+UhM3ljrEfodSAKR2RvEPTFvIWKYPpVc5aFCLgVGnyyHzY8uay4zfurfjcsrHiFhWMPriAP31wyffP1zyfdWzaQG5AfMFrIqSEH8CniC/Wsar3xpidln1TglCDHkRB1ZGKsBuVLBGJHRIbY7ZpoOQeT6YJgg+BrAYu06YyxjtBT7Viixhj0owLDhHIKdlnnUAuzES5v/S8PodFBWJfNTVEwHvwBgLFCakkghQiPa5soYxWoi62PN14Hu+UsRXWIqxxbBA2eDa4nzKESxXWau/b5x0bcWzr8x3CgDAmW/e9sz7ZAzZKLoRUiBmkds4yLcPmxsBhYpWmL2Qxn/IIhFaIbeRZL3zjRz9mEyK70NHjCT7QIfgEJDXG6KzYi3jbmyFBGJWmMiugMvapDGZGfaJ8Rgs25lk1jcoAp+eV5b7AWCaA2ete1TKA8aM9cBuDvALKiSdUo0xlUPWL11jQXhv7jNlvAhO99ly4ai35wucmbdiZIKJ7i4YNu966XietsCK7ra8JbqZfrKAxnafuZSmj/bnZv6oH7uNVcCbaWrCoRfmG8hnA8tfqCTibILMmXAGx7gsjTa4+A2BfsyPc/k5cA+DPgPD0bxI+zH1zxdv3/0k1U1Uwz5qvKkpx7abvbwqIKsFZiuE051YPforst5s+rTNbI3Yu+7ndnwOoFLIfwKV6r6eUV7vRk2DryTRlx+1Z5NVly+3GswJmIjhRBsn0TpA4xzcd4n2tYjTSdNYgZxDHg8uB9x5seDo4dm5OLw1jsb3tRem80kbw3hTIPo9Wz6JmqdiFXZuX+re9tL+6v/QvAP/Of/21r00AfN10PEk01lfYzM6lVrGa7ts+YHSSfoPgZiYdd0OhGQo+2R0s3jM0nqFxlOghOEgFP4zMi+ekabi5FNoA4go5wnNV3jsfeb7bkLfP8cM5bbpgli5Z5g3H2nNUek505F4buRc9dzzcksQtybzRBb58+5hfe+0OX7y14F4Lqwp4Umx3eedpujlHqyNevXuHL75+m6+8ccJXXr3Br792ylfv3+QLt0945+aKt24d8+atE+7M56xcoEWZqdDhaGpBDa19aZdd5GQeWTUwYyCOa+Z5x1JHCyIgMZfMzCVaEjMZmKcN8+GCt44bfuXuktfnjVkIgI3Cu896/vThBT+47HniI0PXEeYNbWu52doP5GFEs8P5YMVFsFQgk8ivoqlt85pGnp0jiaMET3H2btFimkGNFkwpM4yKugjOEWredXCVqSkGOTKVzDQAcd4ZMJdszgVVJCvzAPcXgddnsBRoKYRaKAMsDcm0sBpoppngFKEHRsQHiDMG1/LjZwM/eNbzaQ8f95mPdpmPdoWPt/mnj03ho7U9frwrfLorfLIrfNorD/rCg7HwcCg832X6UdnkwrqC8Sh2BsMw4sZMUxzO+SsLIZOWZQVbpt15fesVZ2b5osLTAd59/IS1C2zFsVVBi6crzixStcIZHpJYDrhkNYuVuzZH+2YQNQLfuJcJR1ozF6pZEhVUHSreRrD9KMFRSg1I0RqtPpX4w3z8YDwoRGf1xycArQrBxKQVA+G9VnQNFKSCzhXDujY/9Ylce371qZqWd43p7X+8PprYc/XPBCPZR9fbjFxp+MnZdVKFClfLubqa0y2TpaeCispVwOFeb6wmXEQIMeJdwEsVkBRULevdvC32u8U5A6oqwsqk/VVXoKjNXQoWd2MA/KKwY9dVb0id42mu2UdVVI24HpNrbhxLBTTgxdm+9cHjQ+2hXhe0TPe+SmMmPNkBJTgIjuIdxft9bWfEsmQmM3hQs7CGCsIYtu7jHkzzL6hLKKXOR0TUxI2pEFIRcCR82XFzHrm/7LgVPXOFtlrkymS1qtUGBSwdkoQL5oodcHy6GfnewzVPBsem9r3PIqgmtCRKGSmaUeegaQhtC5O1sFzVWbB1UytyXd8ndQHb/5+lF1+V/+mfqO3ZajabLnbfps1VHlO/J5N5qGrNL0hvURk7JZdEs8u0I0T14AMpCOsgbKoaNY8QLhKrswte1YFfvz3jH751xKkThDUJ+OHW8c/fe8x3Pjnn/PlzmjJy3DYctZHVvGPWdVbByXkWx0csV0uWc0cXlVmtQ3xa8zg7V5gzcqQgfU/OkH1kdJGdetZJGZ1DqvlvsKZLOIEyZvJuwOvAInq64AhYvqvTgosNOXRsCDzNhU9TYSum+eyATYGSCqmHYZPYrjecX655urnk6WbN492G890G8sDtecvfffsN/kdvv86Xj1bMa7Tz0yT87nvP+X+++4Q/28HF7fs8pjCkNaI7QhCOm5aVb3FjJO+U0if83pxlPkKVbBpT9emPzpPEM6izxhouWpBUUXwyST5qIaA0QVgeLZh3kXnj6Hw1oY0WWShYW2TxMGoh5WTdr0TI40iokrmOmRut5zfutPzjG/Cqg2MybUlILqY2OkuvSjKZmzORhOgF6A5xDT1znueOf/edB/zh+095RsvDXNg5C2T7c6kWNRGqRidipT6ryUnEETRzLIUvrmacNLA4mXFyZ8mtVWQlwkyVo6wcZ2WG1AIfVnxEg5K9IzvzIzvEAufUKqvt6h25VPjm+cD/4Y++z7c3A499ZGgXLOfH3IoLlr6hDYJEC/zaaKaUQpuFOZ7gHIMqSaj+POOSuveoVm1QwVMBuEBWExKS+CqIGQcLYqmDoaq9ijFs3fP2ymi4utx9KEBl9JWn77HhBd4x4eVPsCEjY1/1cPUDE7ZTv+N1Ws8vft5Q5tpre0AyeDa6MnvvqSLUBLZTZTOTYyaJwq5pmo88AatWEKtrCHGUyf+g5aroS3W7TPn07M2Z0zkaEKO1Ol6dp+xgDOZaEC3X+G3179ZrMzCzKn06gfHeV2+8erIi6GTdmO7vhKxOreWrq40O6pkpL5omZLqP1V3UayG5ujYmwWUyseeq3F3Xwut6ymI11Yfq8rF2uRnHgFcllIDLDWj1PlcsQgpd2bLcPeMrp3P+3p1jvjzz3C6wqLczl0ISRYKnVOHNlREpWyQG1kSeEvmDh5f8X/70Ad8+V57HE7bNjCLgZSDIyCwq8zYwW8yYzWe0DeQdlCFTcq1ZIc6EL+/snmWlZEsbvYLi/fJ8gaY1DiD/yz9Q9WqTMQQrPN8H+ztVs5JwdTOnwKLJRLSXtIAsiV52OAetOhqJ4AKDE3YOLjxs6j2bAYvdyMnlObf7C75yGvkff+U+czeiPEdRnuWOP77s+ejJlrLeceQct7uO09hy0s1YNNYasajQzgISrLoVVTJqal5ytHhjoiaOaSFVycE51JlBNNVwpylVZyyZ6IL5UNQ4j9Na69imEXKBbBuNGBh94BI4R0nYIhjrEKx1j47KOGZ2ObHOicuSOS8DWxLb7SUXjx/xq2++xq/evMk9HwlaWI+FJ6nhX3zrU/7Fu094Xzs2t+5z2TYkN6LOtMRQRlxRKB7JnmZ0LIonFszs4wrJFZIvjM6CvZITkghjAeRaWpAGgtaSpBmkFJwkug7mXWDVNSwaTxTz6Vux5Gkzm6kwlREfPE6EPA4ETCLWMXOjcfzGnRn/+Ca86izdwIBYDYglov4KiAtqtc30HGWHSsclHZ/0nv/+j9/nX37rYx7LivHkHrs4MyD+KYt/olLKiy/I/j8AgmaWacOt4RlL2TFbRU7uHvPGKzd55+4NXhPhNnCUCl2yimuiFmiiTsleKM5SnUwjmYA4s81KcYGd87zbJ/6v33nAv3/wlB8Pmb6Zs5gfcywtq9Ayn7XE1pE9bFTJJdNmYYaVJd1qITnjlBOTnIKRfGXCTsUsQJNIJm7vZjJrlzG5CMxzIeZs1pBJy+UastahtcHIHqvqI9fAUCYNdprZa0D859JkWr12HPZMqyCSqqFfr4KaMEYlTAFOBrgq15j4ZwbVqid5MD+nGNucznUPiPUkRGrxG7XiQaYNV03SGQgLwYIJKnhkqf3Y656QyjuMb1pg5aStMolO14QX83lbAIJ9XirfrTyp3nUDNtOwJz++zYXx6ek3tMY65OtzXIMr96l7dR1Z0ZqpC9t0k+3uSV0P2Tl2zhlOuGp6rtfncwXiaVzThG3tVazxhjujU0QKoSRiUXz2uBLtnGugYr4GxIvdc756Mufv3z7mq53jboZFXe9kakyF8Q8cOB2QsoVgQPyMht9/eMH/+Ruf8O0zZb24Td8uSaJQeig9npEmerrFgvlqyXIGfgBn9uu9Nuy9r50Bq3Cq5RoE/3QQnmgCY//3/6uvfS1meyE5k1D6YCNdi9IMFYSbmsoR60bf/5wolIyMAzNxzEIkhgDeMVDYkumxHpEuZ+RyzTIN3CwDJzpwr4W3bx/hZYeyRhlxzjFrZ9yZd7x9vORLN474/OkRbx0teH0+524XuRUjt0LgRnAsMjRjTTkRaKTgZcTR40iA0OPZSaD3ntF7klj5ySyJskcU0yC91KCCarIy4HYUZyYuUY8Xb2Yv58AVlIFSNjSSmFGYlZF5GrnlIjcETp1wMzpOu8CNRcPNZcftZcu9Zcf9447b88jbx6fcDp4ZCTSxHXp22fOjh2c8ONuSiGy2PeRMI4VO1ISNMpLKyECh+Gp2zx6vppklZ1pacq4+tz670/W6kurI1uRAPE6CgaJYccekA0VtwWiV4q8E4soAsReKKs6Zj1hLnjJwkVKYe+H+IvLGHI4EOix9i4LtHDFNWqfgK1WwMAxLC5KWSxoe4fnW4zO+93zH87ikX9xgE5f0oWUIzU8fvqH3kcFHet/Qu2hDIjsJtj7EGjIkHbgsA4+GLR9vLni4XrOTQtt1LEOgq5pUnLpNcVXxzXzpk0nYNDnnDEzBUZxnA3w6OD662PBsGBldwPsAfbaIVAH1DvWO7Kv5sJpcMzA6A+Jpn0KNMq3r02H3KGehTIjgrrpmSOWeztWc6TQQ8oCv68AXc2eEYgF+FuRn+dFBqul8Kmg2CWCiJK2FW8QiU/dgfI32oPdTBrAP+hOwwCTJqBtQdxUy58CCxdTVUTMtroEV1Xe6t/bVRxGldUozZeTvc/BrLAVKFGs8MtUXF7X+t1MDErPMClGEKN5S76plSKNQgjAGYfQWlDmqkAs1Cc/WxqThUqOtszMzbZ609fqZ6fqmeupCrb1f0xgnn6ytgSqUVS3R1USEXkzJKtVy5b0QvLmZoojVeUdxOeFywpdc10Ht+6tXAX8K4H0NXLoC4VqVFsnmhiJbpTlXeYP5xk0oMGUAK/M6gXgtiWyBpFcuUvM9ZxwjIe+4OWt5ZdFxJwjLmm0jFqlpKY9uWjxq2oKOSDVLb/B8eNnz7U+e83CbSc2cEtt6LcV4TSkkVUYCg0RycbhsuRLBOUJwOGcCv5mp689di3e4DsI/bY1PT/zf/a++9jVXzSBDuALiCYRFahBXBWDL95xAuDr2nUlvooWYlZl4GucQUVIe6ccdKQ84ycwdHGniaOh5LTrebDyvNY7XFpHXTxYEGRF6hELEM5fIcQjcbVpux4Zj71kgNNXnMPmovYKMdiOCQOMhuILIpJM6krSciedSPGuxoJw1wiWZNYkdhbFG0w5ikbMDnh4xEzOwrWMQM+9IEjTXCFmnFBlQ3dLISEemLZkuF4400hZnhSsqHzRzWCGQaEgsRbg7W3LTt8wpBMbqq1Cca1jvCuoCq/kClzNtzsRhg+/X+LQjSiFEjzRWrEOKI5aAaCC7wOhCNUUHsnjK3pSkxOpHjjkRSq7BXPau5c2apUBJ1pax2M4WzKTrJqYu1TTmXgRiSg3WUkVyZh4c9xcNb8ytSUJb68haoGstvF2BvVC7RUkh60hGSdJxQcMTF/je8w0/3hT62QnbMKN3gTT5Tn/KSKJmOq9i1wvvV6ZQxLhC7CLMGi6D8Ljf8vDijE2/pek6jmcdq+DpnNBUoc00LvO/U19zE3PC0sDMnmum4TXCo+L50bMzHu96kg/WPWvISK7BMgLFeUo057LD1KaskL0FyCAGSNMdnTREE7nNajSpZPX2mPZT7H64lAjjQJt3NKWvmomtiaY+xmIRwD5nJCWkJKuCNpk396k4Fr4EECvgTGCMLZG/kCatbK+dMamnCXVjTcOq71VgcloD5ioAy8QEr2t/dTpsSpRAZi6FmSaaml4Ua6Rzi9KI0rq6X4vti4hF0UaUKPaZKFNglhCTdZpDsKwIX2NsxNIPS13QEfObTsFLlhpo/v3kbahMlg0TMqZrNUFrmplqnZi04WvXW1fCfu7VwQ4TlHBmLg+1naCvAWUhJ0Ie8eNAyImY6zrAYkxCffRUYC5i4JQVlwsuF1tTZYrqruvNFtyVVcLV7JsKsHrNWmCCq/m3mQR7R73vCc9Ak3fc7lpeW7Tc8cKydkKrcYn2JV+/5xR0sGR+5xgQNgQ+vuz5zifPeLxNjK5BvUfE7q+Q0ZLJRRmLMBTLoPBaaFCir0AsYnUZsgmezgm+ts/9rCb82WW//1vA//r/6mtfK2IAPI0pKtpd04LbOgyE7fYXp2bu9PbcobQqRAUpGR13lHGDpA0zGbkRCncaeL11fGHR8pXjBV9cznh72fHqsuVG62mkSqWYhBkxoIoInkBRYZsLo5pkr1VgUFNYiVFoghAc+zpLWWEgcKEND0fHkyw8zcrjVHiQEg/SyKM08iwpzxM8TfB4LDxJ8DgVHqfCo5R5lAqPk/I4Kc+ScjnA9hK2Oxi9Sb+TRBVRWoUGRyTC4NBigDa62nfWmS7qcDR4ZgTmRGuvh0mfWjIhRGbNjK7puHF8xGs3T3j99Ii7nWcxbonbS8KwoxFoQ7BOSwqawGtAJZDEgDg5A+UiJnF6hahKUwptuWK6fgrW0kKiWHMCybVyWV1h9UHEAhUmszSu+qGw9CVTuq3sqNdJIzYgfn0+BWuZRmyLtwLxtY1oVgnImqwoiWu5IPBYhe88vuRH5z27MCd78y2bqa389EFBS0LENFTnCt6raYVe8B5CsAIxRRTmM8q8Y/COXRpIaaQR4aibcaObcVT9qzVkrgKxnbNMIFQ1eqRY4I96BjxrgScqfP/hEx5te0YfAIfLZk4uqvuC9KkGw0g9lGrltNRc4JoUcn3LT8AjwbQ0cwebpuLHjO8HQt8Td1vafs2SgU4HOk10FDoKMy10dX3EnAg5UXab2oh9gDIimlDqnPqC9xBdDTibwHE6rfpYZQQDrf3zq4hnqeBumnFBXbYhBZhAySMaajOZ6mOdfqL+zgQGBlkm8AVNtLmn7Tc0484sAWWkKYm2ZNp67Z0WWjJuHIhlJJJpNNOQiZoIJZkFIY/4IcEuw6CUXMvCArlqj1I1zgYh7kHnapVfRbybSRvBmuVUUNpbOpA9CBsAX2n7e95f+fcEbq7Od3EF9QakvlglPz8O+GGHH7aEfkcYepo80OZEq4lWs82DFFo1UI4l0RQl9InYZ+KQ8WnEZ0vRcnVv+SC4QM2ZrtUQ94BsggN226tQcuVWsbUz4alZNwM9Tenp0o47XeT12Yy7wbGsVtp9mjXWQcasUwUl2Tr1BsQ9gU8vet795Clnu0Sqgn+UTMTWgisjmrPFBRRBU8IXczr6CriIUApWDQ9wlReiVmv/aidePZ/W6NULIP+Lr5sXaDJLj9VcoGJfmLThNlvBCa+6XzRjrSLUB1tobRKWg9COmVAGm7SQWLTKah44nkeOmsiNGLk/a7nhhGWGeYG2mmAkKIP2ZEbEm9TWqzIyI0nLFrhUC0cJ1HzFrDTJgmYaIFBQzTU60ZME1t7x/nbkf/jRM55JYCiZcdwyph057ywSl1I1BdCstaRiQIiIRtBom14aWgmcaOBV33KzEe7eC9y77ThuM541IW+sqlYv5CHiwgk5OIYG+iAMZkFBq0mnmUo9qpIudsxbTwyZMe3wjUekYSiRQR0jwqCwLYVHm8KPnvZ8/9EZ3332jA+2Ox47x6aZkcMCNb2cJA1ZopX9qPfWCqiPNGVLLGui7gjVrGAh/n5vsh0lohJofNz3nY42M8xCYNZEZq2nbQ3IskLOmRgcXgo69LRY3W+GxM028Ot3lvzDW8L9yUesCZeufMTXNWLM9cYuX7LTkTHMeUDDu1n4v3/rQ/7Ne4/YhiWhW4DzVwzpp5HW/tWVpoAtoPq/7LWsQj8kfBvwM4fKDvoz5sMlb7aBv3/nNv/Jvdv86nHHKdaXGC1ksskSdQW5ghUT0GRJx86RteGSwMcC3+iV/9PXv8efPr1k08wp0tClgM81TzF4pGtgOSN2LXMXmFV30eTXU7uQvX+0XiZUrI41sM6nTEiJJidjtCXRqpobx2VcSJYOJ44g3kzLxTRwa2RmVdmGosbQRC2tqxbzGb0jBwc+2J4ZApJNuJi0tYkR6yQo2MTXM578lFOhCNOqoBa/cCNF1ACpeJwGpMQXtOFq0b2iCuhIMq2ajJNMzANht6YticY5QgjEEAjOW7edydNXG6NQ/bHTOU+NZlK29pZaHGWMJA30zrMNwjZ4+uhJMaI+4LyZrmWsPlSlxhZYytkUw5GcgjpCCdfax5oFYLq2cm0uJ3P7/p7rlTsxVD+xSiE1mewMlHzOhGRFhjotdKpmsUPxJVfTu7NApNrjvUitzqeKFE/MDVo8vSpbKWwks/XQeyGFKZLa1/kxYcJWpONaLzOzQME+1z1mvab0We+C7EeQnqA9Xb/mS6fH/Pad23y5a7idrUKfq6ZpsJqXyUHxGXQHaYtvIhsJnDPj65+e8//44/d57yxxERakZgZBcHWNDDnTF9hJw+Bn4ExRXDSexWzGfDYjxgDVNE2toX/dNI2aAMhngHh6YYoHkP/ymxZsPWmV+89UqcRP9eyL+YaweEFbNL4wegNjgFlyHPeerh9ptWcVC7dWgfsnLXeXgRvRsxChc8LcOWYKrlcz0YgyrDPNwoOYwxtXkDCyK4VL3/FMAo8UPt7BxQh9D8PFjuHZQ9zzh7x1uuTt2yfcO1mxaDvEWyDSuggf7+APPtnxz7/zI564SHI1TJ10FU1cEimPaCnE2FQJO+Aw8y7Zkv+EaGUyB6U5v+T1445f/dItfuWtGa8vlSWZRje0KeNGx+PHO/7wmz+mb1ek41Py6hi36GhmsOzguIUTB6cCNxTGs0TXOVyr9Lm3kqFaiK5BCORcELUCHL3CZVGeppEP+oEfXGa++2zgvWdrPt32bH1L71qSm5HoyKZrm5ClVHP0Djec0zkTnJzPZF/onZnkdy6QXKRIg9PWAroKe1NUUOhiZDmfsVoG2rYCcSrEIJYQfw2IZRi50Qb+zp0Vv3NLuHcNiP0UrIUBMTVORLw99umSnkRqljwi8C7wz7/9Kf/y+0+4dC0+RrOU1HX802iC3Cu6KsW5f0TsersjtikzSo8LAzPpmQ8X3C0Dv3F8xH/62l3+7v0TbmGMQNUAA1HThqcczprHqGmDNA3q52wk8CHwZ6Pyz/7Dd/nTZxu2sxVKS5s8kgz4khRS9OispZ3PWbUdR8FZp658tdEnENZ6efZojMwV096alJiXxJEoN5zjRgzcbCNHjSe2Sm4MybyYz9DcCZVZViAeC4wKmyScD5nn/cjzYcd5GlhrYhC1jmC0SJlPrB1FajbGVUEgSyOqgkQ9+wmILQf/SrTQKV8V9jEaaKiVl65cAG7SoqqwaZXYRjxDrUEw1n7omXtHC1ZNoIuRrmvoGqF1dt1ybWZDXTHT/E78fijKkJWUlDHBxfnAdiisc7GGNqWwQRh8JIcGCQ34gOYpEK6uNzHrYqlBlaYpOlwJuArEk5AxUZWP9j7XiX9L1YItJVVrsFQNJAwDKj1SEjFnWlWWznEUIsdNw1EMzL1jFqp7z0MIgnd2ZyYNPwOuCLPs0AEuBngyFh6PWx7nnmdl5JLMDhidZUGIRKgWDC32OGn2WgFJnTWcbXJmlixw0JeMMKIyoK4n6EDTb/jCjVN+4949vrhYcKpWXcs04mpVic56GEhByg7yltBYHMhaOv700zP+26//gPfPBvpuRY5N1Zx7UhkYcqHHsXMdfViQfMOQEj54FvMFi/mcWdcRQjWi74Papja8k3xpwuQeiO2WvwjE//l3VctkxrgGvr5GoHnFTJTZpAQfhNB6fBQSid2wZSgDvigr9dzMDbdjw52lcncGd1rPzVlkFYWZWnlHO22h8RbCN6VB6FCYdXu7ZpVie1L0fOds4A8eXvDddeFRPObBdsSHFtdvSA/eZ3nxIb/z1l3+8ec/x+snRziBpltaS8UEX/+w53e/+4w/fnrJRegowe8r2xRXq1wJJDUnvdQG0A5HkECQYL4fi+XCqxDHjN9uOW0Kr950/L3PH/E7bx5xApyQWGhBRsdHjzb87h+/y7ceXnC+vMFwcoPcBOYzT8wbbgXl7eWcX7m54tdutMhWKAFSq/RSGCWzTWsWrqVRIaeehZ/hS0TEURzsHDwX+HSADy4zH6y3/PhyzXceX/I0wcXo2YwNIzPULxEfbUEkC8xo6Ans8G6HuAH1mRRgcIVBhFEcSRvQmRnSi5WMc8k6bEURmhhpG0fXCaujDhCiB1cyebej1UIL+DFx2nh+7faCf3jHc9cpKzIzEqFgkSQ6sb5KClDI2pNdYYgdD/G8D/w3337I737vOZdhRgmWxvECzv4UmjRg9tG+nwVjQaVBwhLXONbDmjFvOGoyq7xmcf6EXz9a8l+88zq/88ZNbtea2UymaQqmtxkoBFUkj2h/gTQtxDkbIh8D3y7KP/ujH/AnT7esmxlDCXQ54i2SjuQsh3nrAOdZNh035zNOZoHGsS9I78X6SgdXQTMlch4QHfGaWEbhZhe43XruNHDbO276wGkIrLzgo8WHlKqzhCs32x6ELHCuAnExgfh8TFzkgfOUOBtGnm23PN9sWPfgmxvsRkefFAmBZjZHQ2CXM322XswSA5bOU29IZflWiMOqYtkdAbAgPhCyWrpQ0RosNPkZC/hcqs+zJ6YdTe6ZS2LVOE7nLSezyFGj3FzO6UIgek+IQnS1J/aLqw9/7fnEniYwTkDOloyx3o3sUmGbC5tUuBgK54NyNmTOh8zFWNiooE0LsUFDIDsxvkOxHxVj3loE+IygwbQXrvlbK1tywdxzZEWHRMyFmfO0CC4l8nCJlkvamFl1Dcddx3HbcBI9R8FzHAOr4Jl7Ye4tSM3X2L7r93+6/gDM6yRsEjxTeJYHHuWRxyXzKA08HXouh8xmVHYD5OIJfk7XrkACw6D0o91733jUDZB2NP2O1Vi42UTuLBtWnRBDxrnEjEyTE7dnHa8tltyNDYtydY8KhVHUghynQiJ5QEqP80Jyga1r+Gg98J0Hz3ncZ8bYsBNP1kyDBSpeFOXBZc8nZz0Pt8qzJPShM4HKB5qmoWtbZl1DEyPBV8WhphO4KZixTp4WRavmLFCd5xZT41/93//TryVnS+4Fc8Zk4sGCL0YS2Wc0gjQgPqO5h35DmweOBe4Ez+uLyFuncz5/u+Hto8grXeDECV1RmlJ9jzXmMXnHJcLzrJyNhYthYNcnvHME56AoQqaEhu8/7/mX7z3m995/xrvDjO+fJx6nzPnukt3uGTdmhS+/cYt37pywirUyTOjYIPzwQvnDH1/yrU82jO0RNAvUtRQaMi3Zz9CwROMKmhXarMhuRpI5STqKtKhvwTfgouXsATl43GrBhoGL/gwXR06PZyxjYCGOToyNbTWwbhf8YN3zg3HkR2ng42HHg8s1nz56xrNPn9P08PrxEa/MI1GEwcOlF85EeDBkPh23DD5SQiBJIQTrzzzJXVLv38zBrZnj9ZOGV09nzKWwbJSYemS3waURr2ZwF6zYBs4hsbGALhEGtWC1PEWJi6U5qDqLoFaLFDQDk+VeKkLOmV0/MqRMO2twzuG9raE8WgCYRaAWOifcmgVeXzirrIVatOZ0TXqNFerE+QpO1IIhxLEVxxr4/qeX/PDxQIozsm+q9l7bRP55gzquvaYSUImos4E2pMEzaxvbSDnRiTIrCX95wU3greMlb5ysWNX0H5nMl3tIsddExGR/TeA9KpEBz6XAE+DbD895sMtmfcgOXyOexQUIAfWenRZ2Y6q+f8sjFmd+ZGrP1U6gKYlmTLR5ZEHixBdud/DqUeTtkzmfv9Hx+VXD5+aR+52B8mlQFs6CjtqaXtiplVe159a5ZqaWazx3ttbmEY5ax41Z5Nai5XTesQhCQyYoNKElj4k09FZYJjqcF7JmkiZUwAV/VZO4+teZnmMaA2CdtzQi6lF1mLe/JjNVi6fJYIXoMlF7mrJlUXbcDJlX54F3jju+eHPFl26ueOt4xr0ucCM6joNwJJaLOq/XfP2xq6P9zOMcWGJlWlcejlrP6Sxwa24AcmfecqttOHaOWSmENCLFilZkUbKvhViqO5Dq+/Y1KGuKiJ5omovp8xMQq4A4KwPr1IRrX5L5tUsi5pG29KzcwO2Z47WjOW/eWPHmyYLXVw3354E7reN2I9wIcOxg5azm/+zaNU9jVq97pbBAWQRl2cJRFzidNZzMW1bzhmUTWDRVGBgT9COSC60PBO/IRUi5atgekBFJO9qx5wbKm8dzvnxnwRdutXzupONzqznvrBa8dbTilfmM0+DNTSNYfIFTRl/YeWWsLiarX3DVU9i6qDmaNnL7dMlrt49448aCV2/MePPGgi/dWPGFm0e8euuYW8s5ixjQXFhvtuRg/GVUSCnXks0YD3Wu5mFboCqVN0q1RRsPrVyh1iywwAnBv/FP/unX9Frd3Clp3HwK1VziQVtBWoeGzDCu2V0+R9fnLDRzv2t5c7ng88cLvnxrwStzx0mwohoBuUro9p7izTRwLp5PC3z3vOcH65EfXWz59o8/4YNH5yyXHct5S0mKb5SdKM98x496+P7lyGPf4U9O2Y07xs0zbs+U3/7cTX7zzTucxIGOkVm7YEvkcYHf//GaP3kwcOFb6JYUH0jFUmIylkuMryk6Iqh4xHuLFs5KyomcRnIeycVGKiMjiV4yF/0FTac4SZR+y+duHrFyjqaCVfaOcd4yHp3w7uaSj8YtspzRp4Gj+YxFEd4+XfLbb9/hCDMD7SKcefhwGPn3n3zK988veKqw9Q0jDetihSHGyn2cN+m1QZmjLFCOvePN4xm3li0rp3Ql0ZSEpJE8juQCLnpc69gWYfCBMQQG52vCl7OgLoNbVA1ADH6volOZInSrJqoi5FLTNLzDO+ugFOumIBdaJ9yZR95cOpZOLFhrX/eoAvH18NpCjTYu9XccvTgugO9/suGHTwYG3+0D0q6KAP6swyMaidKSBzuFxptk3aaeZRm5ocors5Z3bp+y8gaETJpKNW9XGK4zVj1izlGI9OI4E/gowTc+esrH64HBN4hvCBqgCFlrRSbnyN7qb1tXKhhTps8JPHTR04ngdj1ysabrd9wKwhvLjndOF3z+5py3j1tenznuebgJHGFulDmJRqyE6HTWHiGoXvMz1hzWyiNaZxpTrPENE2DPnXDUBE7nHafzBV7M79p4wWkmpYGcRnAGwC6Y73jKy1UmEK6TORk3pAZmFUdJ1ghE9aqAjEhdH5oIZWAeCksZOAmZVxaRz99a8ZW7p3zp1pLX5oETlCZlZt4i3qeaA801sGmujet/X3//+usRK9MayXRYY/qlwLETjkLgqI3WVW0xY8gDm3HHetiyyyN4j/fBLmFUq0bl45WgcW0+qkL8wmvOQSmZkhKRwiI42jIi2w1+2HIU4JWjGV+8e8TbN454/XjO/XnDrWAusaM6VlW4aFWtLam12SbWlLXr97zBUr+89dIzv3t9vwMW4ljFwGnbcms+5yg2xAJ5N9Bvd6QMLkRcF9Eo5JonHjVxI3jeOl7x5dsL3lg6bgc4EQP/Tg1bOrEsnlCwleOsznUvhR2FbKIbcYpM31tWZG8Sn3zToa7fFbCg4BlpUU7byOlygW86zrYDj3eJiyJk5y0oFouaLrVFrHOOEMRq7IugWER1zhayJzXv2AeP91bFEMC//b/72tcmf4I1qzfwULFqJ6NXxlgonZBDYixb8rCmGXfcDMI7R0d85eYpXzlZ8M4y8noUVl7xaUSyWr5Vrd5zjvDxAO9u4Jtr5Q+fbvjXnzzgz87OeH99zp/++H0+ev6YO/ducOPWETglxsRaR3Zd4GGG9852PNqNrE6OGC+eMOuf8+t3l/xnn7/PV1ZzFuMFUUdinHGhLd86G/jddz/me2cb+m7Gut+QyfjoCNEhHlIZSWmwBtHeIq7L2OM00fhMF5WuhVmrtI3SxEKIGfGF5BKZnrYtpN1z0vo5b92+yZ2mIVp/B0IjlCjko8D3nz/ig4vnlGgNDBYoNxG+emfFb37uiJMIPirnTvhI4Y+ebfi/fePb/NGDp3z944d86/FTPtgNfLzpWfsOF62IyYCwU2W77dFxy8wljr2yksyd4Hll2XD/qON03uAZ6XeXbMctvUDvI2vxjK0wts5ya7UlaQAiHvNTUcSElqqpmhBqQGOaoI2iyrbvSTkTvMc7K2oRnQUvUUwjvrdo+NzSc1S7p0zwadulausTFaw5KOZ/VWdAfKnwvU8vDYhDy1gjwq+X+vtZhqg1W2zF0292BAez1uHHLW3qOZbCacm8Nu/40v2bLKtJk2u+uqttb+YxEYssLyok8fTO8bzADzbwZx8/4ZPNwBhbfJzji0ezVerJgHpvpWHFme+4H+mHHYMbIWSiU7qcaLZbVkPPfe/4/GrOl087vnAsvNXBKwFuigHwnEJLT6Q33ylWaD+IJ4i3vFiUqEqsGkeY8kxrbfppTAx6AuSlOE685yhGxAdmbUtrm4phtyHnAeccsQk47yw1rfIcZY+8+7thJJa3r856xBaL0K+lCtCcIPWEvKVjYK5bbnXCmycLvnj7iHeOG15tPTfEytzOVZl5LCtDas6wTmlIddRuaEEtd9Rao0wpP1O/afuurd0EWCGIjsQcNW1ZHKsgLBvHsvPM546hZLbjwGboGUrCx4bggtl+R8UXR/DefOp1XV3NRH3cPzFfrqUgjTQk2jLSjDu6PHAaHa8cLXj75pLPn0Zem3vuBM+ps+qDk+b/YrBW7Wl+fUxpTrUcrddk9f61R7VHGRHJNFPBJoQTPKfiuOUcp01k7iKSYBgGa5ARHaUNpCiMJHwNorsZI58/XfLFE8ftCCdVA59TLM0Opam9iS0nzLSe5JSewlDry4UJiGuG3ZUYszefmBtzb90ozBmIZUuL0IojegfR8WwQfnS+4SwLGlvEeXJRhjQypJFSSrUCBmKse71A0UypwaEylcOsfpRqIMZ/4X/7ta9NUu8UKi5AqVVhsi+UUJCg5LRFxg0LMq8sOr508wZfuXnEFxYNrzaOG866J/mqeuMc2Tk2Ag8G+P7TxDc+3fD1Ty/44yeX/PHjM/7s2XM+GHsep4EH58/oy8Cdu3e4dXLK3CteEr0oSSLnGvh0l3j47BmzRgjrp7wx9/yjt1/ht24fccP1LF3Be8eawENt+ZfvfcAfPnjGAwJpPkcdDKln228Yc48PyqKLdI0gece4fk5/9piyPSOkNaFs8XkDaY2mNVJ2OLF2i3jrMtLNIqo9qb8kFssHfuV0xYyAL0KMlne8dfA4jzzeXbDdnnPcBbg44wsnN/jtN+7zxlGglZGBgWci/GCAP3q85o8fXfAsrniYhCcDXBTPg/MNHz0558ePL/jkouc8O4gN88axiI6ZUyIDDDvmXliFwEnbcjLvmM08IcCoI5f9jvN+YIwN2gZKrG0x1aHF4yVaLmj1e5Ta6UZqjuNUy3cPYpVxDGmglLwvHUkpRHEEEUSVefDcXzS8tRSOpzziqo0ZUzZzt5nfpxezeamcohXIzhG+82DN+096+tCSvJVtrFvt+pn9Rw/LT/XkIeEDtA2E0hPShmUZuBM9n7+54kv3TpjVABlq6zf7Z9ewTzqp2yKpVbfqxfGswPfPEt9++JSHu5ExzgjNDJcdmtXq2oqYvyuYSc1qEyRyGXBdoZQtstswHwbueMc7yyVfPl3wxZOGN+fCvQZOvWlnM5SGRKBHtL/qMyVMevC+RvEU8DRZ0K4PK9+oNaCqFrrATKMN0IqjcYIPwqwVuuAJCFqDIaXyCOWKj05muiuLy5WQZ7WHPV6ugpyCs2hwVxQdtvhxzZyRmw2Wo340462jjjc6xy0nLEqm6XviONhaE8vjd1h0rqOadatfegoa27f6K/Vaiw2n07Wbx1jIiCRrSqBKU9QCpnA0UotmBPCh+sWds8AnVcsdV4fUYhZeTOPK1zTfyUdsM3T13FOIorRe6KQQxi2sL5iPPfcWM965fcxbt2a8svTcDcKpSF0LVZMvtZRtSbVDlF3L3gJlOvnVnNRIZsFaj6nLtb5ArsVe6hqoLo2u9hqfO2HVeeaziPMtA5ldGdmSGJ3t66AF3w+ces9bR3Nen8F8hGawtLEgBRm2JgxKNT9Na8dZNbPRzgZwRPxnNOIJiG32FPPhWgXGQsNIIwOBjAhkPD2eS3Wca+DdZ2ueFQdth/PO0gtTYkyJXLt2qRa8D4i7xsMq6INZmu1Mrswb/sv/GwNiX82oUm/8lPOF1FB/zYRhx0ozr847vnhywpeOl7zeBW6JsFK7qVktgm8Qx4UIHw/Kd55s+ONPzvmTD8/55oM1716MfDDAh0PmaQhcBM+aAkFoukjbRI66llvzmZWSkEAiMITAuow8/PgjuHzODd3xG6+e8o/efoU3mkAYNnS+QcOch6PwrWdbfu+9D/lhclx0S/oYkNoIoUjCSSK4ZGk7aU2b16yk5yQmbsTEzbZwFBJN2cBwTurPIW9xkvDezAylCG3Tsus35JxoQ2C43HAyW3HadayiadhaO/fQNvRpy/nzByxdgefP+AdvvMLf+9x9Fq4gZcOGkecu8r3LxB9+suaT3KFHdyntETksyNKx7pWHZxs+eHLJB8+3PN0O7FQheFxjXXqKgBAIzgKzhEz0ynIWOVl0NK1nSAOX260V+XANWTzZMJeA0IijUSWoldqz9nLV6KrsGebEobVqxojUxhGK5ozmTCOO6Cx3eREcry4Cb8/huG5aL7Y1zF9YKwZhFaukmh0t/ccCMTbOc4bwrQeXvPdsxxBjrTBoHWEc+WcfagyaYtKrhIJzI1EGZLgg9mteW874lfu3eON0zqwKsaCmscuVadoxBdrYZhwUkjgGcTwpyjcfb3nv2SWPUyHFFh9nMFp1IJgaSNSa0NQqS0URSbgwUnZnxN0ld5zwpdNj/s7dBV86aXitFW5Wv6dVj8p4yfipk49QQTcgYnpdyo5UqEFQV5p9VmsEsi90X5sjGJhJDZQyJh2qBu0RGoHOQRcMjBsfkMq80mjFaqq9oALwFJg0WRKmgh1V4Ktr04mBcIPixh1hWLNi4G7neWPV8ZXTOW8uWu5Ex4koC1W6qul6qn/uih+/+HTi1defT0xc69jPzIsf9OKwPIvq562WHaHm2tetEsNkEfCULIx9ooyK4Ik+4pyvNcHt6K4C8cSnJ2uEp1YCs2gXmjwQdhtmY8/druULd4744q05r80cpx6O63po9+V/zRIVajOYarCt6uOE/NckgGmy6klZHQfbqyImQNiaqsG+uRAyyJhpnDCPjlnjia1lrqxTz3rcMOqI87VI05A48Z43VzNe6aBNWP66yzhfKKmvzWTqCUwhhTUveY/NCJFAqAFbZuQ3FVTqOU9FjTxmUXA64F3C1QIsPYFLDTwv8KQ4vvN4zdOq9CDVrVKbgChW/jSlvAdaEawzX20HC9VXTJU763n6r/6vv/Y1X4P1qCBsCfUg/1/a/rNJsizN78R+zznnKhehU1VmZZbq6q6WM4PhzCyA5Qrbd/wcNFsAhBmNr0jjLlH8RnyzNNtdwAixxAwarapL60oZGRnS9RVH8MVzPDK7MVAzTS+75ZGRHpHu9557HvUXouCqIgyUQ8dOjLze1Hxvd8r3piNeK4SdhDpf5J9dA1dBeNYOfLno+OBswS+fXPDb4xnfXLWcdDCTipUbsXYVTKd4Z+m8ZzwZMWpqNqslI2u5e3RIg1BR0KPoYOLA+bMndKdPeDAu+PO3XuPHt/aZAjJErKnpTcPDdeBffPmMjy82zJpd1s2UVVLVJHFCWRqqAorYYts5jV/w2sjwo1tTfnJnhzcOGt4+HHF/r+KwsYxcpJBAacAZ3aFigBQdKVlaH0jO4VxJu+pgsNzda7g5KTGDZu8I1M4R08B89oI4v2QaA3/v7fv88OYBEiIiLa2xXEnFJxctv/huzlUaM7gp4qYY0xCjJSWLp6ClYOmFy83A2XLF2XrNrFuz8gNdtOB2iNYRgRA9iYFxIRzUNZNRSeEMMSY2baAPlt6rHKJB/ThLgTJ5XBoQE/CZQgKvtqVf5ucJwBjKqiLEQAiBGDzJ+ywDqJXh2AmvTzQQ7wElamFG1mSKkGfUeqOYrSK4KOAgGcPSOC5F+Ph0wdeXGzpXZvH4LObxCpznb3LoTSOUTUk0Hp82FHaAzZyyX/HO0T4/vHuLo1p5vUrv2wbifCOiice2mokidInM0xae95EPjmc8XvXMMPS2wtgKGdQuwmQVjkD2MUa9vkuEQjyEOa5fcCiJd3am/OzOET8+LHitEnZjogqZrZkt+Ew2CtZr5jBSKq1Em7IM2RRCEyp9v3FLO9rWR4JayxndDNUsQTdflcHUjU0TOZ2/1oJuwkWJiGEYPF034INWgzm8aOWbK+CtnKNJuh5TAh8TKSmOoiBRhIFiWDNNHbcbx5u7Dd/bG/HuRBWXprnyqzJAsDCK/9iKP2+lSLdypLzynDfBV3ZMeSkRarZfb2VDVYTGbsNwRo/JVuVmG4TzTmsESqfc5eiFzbKl3QwIDluUYC0+J0Lye0HYbtktuTVrU8DGAdNvsN2aSfLcmTR872iHdw5G3K0Ne2gA3gZhlxNfu02Aja5byPf3NvCKBq3fPR/boGdUoQ+VwTXisOK0l5J0wUhIKu8a83oWg7EqvBQLRxc9m2FD71v1cKbABWHfFdyb1txpoMlyxYWLiFVTIbEWMU7XcbqW9btOdhGdD2fyaU4Ss3F4vo+2NDpEP7pNAWO08Awx0uPopGQtlosIDxfw2fmaCw/RuutzI5lnrYVZJIRcIceAGMmBWNfCNn1TcxmdYwmCfe+/f/992eZ3uXLTbVZnI1UMVP3AaNPxetPwg4Md3p1W3C10vlAnqCRiDXQILzx8cRX5t8dX/OXjY359fMY3y5aL5Ohcg3djom2IriaaAjdqiCESuo5x3dDYgtXFjNoUvH7jJofW0oiaMhjAhYHV1Sn9xXO+f+eInz24y+3RSIUTbIkXyxXCpxct/8sHjzl3U7rpDVauZhMUPERUwnqTIrs2catMvDUt+eO7R/wXD27wp7d3eXNvwg+OpnzvxpT7B7vc3tvjcDph2oxxWPrNQLtJWDNh0wuhrEl1Q5QSkZLNrOX1vRF3JiPcAPWWDiAQ8WzaObOTY944OuJn9x5wazJVnqBLDNJwEh0fPl/xwTdzZn3FamMx3lAEoA9IgNFoh9HuEW68zyZZTmZLnpyec3x5yYv5kvMNbMyUPi8EZy1OEiU9NYHGGfbGIyb1iPmipesCbRcJXiiMo3Fkabs1jg1iPAPajhdeVi26uYhOeEWdjIqqwoc8G8mHExW2SCEwNsK9Ucn3xrCbNxb9NVGTBg0bRBR1qF95xKhYRjCWBQUXaCD+6rKlK0u83QLu/pYHQhQF8rmqYKDDpw1OemRYslfAD+/c5N1bR+zkzX4rPsB2TpytMdWnWO+raIQW3QA2CI9WgV8+esELDytb0JsCxGG8an1bo0gk1bxNiBgKciCOPdJdclhEvnewy0/v3OS9own3CmEaoBgCJg5gcichy2Eq6l8nnOCUi4slYbIPtGpbq6662p8mY3QYay28Ort8ZQVoQNZ1odWa6jFblN5WZ+lZsQVDSAw+MoRESJIRV7n1jrZpt79nGyMS0PoIRrtMJQNuWDEOHTcr4Y3dEd87GPPGpGCPpMAbEZTJjBpfxExPM/pZVNr05TXfPr8MwK8EH2OyPJkG163ln9r+2VyhqdZADEJK+vtEMk3llRo6bil/IsQgLBcdq1Wnfri2IDmnRcO2+v2dAJzPbdJK1qWA8T1sVlS+49ao4vt3bvD9o4Y7pWGcVJCpCS+DsLAtdLcBOFd0qJIexpDyTEJR2/lZNMFAFMjpyWtJdIq+TaheBUoIgi0KUl7HXoz+igw4iCnQd2v6TY8xDUUq2XEFt+uCm7UwcdpRMQYigcFEkrVgsqJaZnHoR8ldlKxtrQmi6BhBRUbzZ9L7O1xrDqS89CMpDXQ+0JmaXkpWCM+HxIfPPV9frZnHhDeajIgxavpgFTENav86DDqag23ekjsjooAu7Y7o+5Yk2O//g/ffJ2e5MX8eRHmPVYyMhsDuELgthh/u7/DD/YJ7lQ7Oy6SZrkhgFQMPV4lfPgv826dr/s2zU357fskTH9mMxjDdxZYTjBQQBOMTxkdsFBgC4iM1DushbQIjSm5WDQ+mJWOjVZQTFaAwcUMVW957cI8Ht+9QWEfKWsHnHr68gl89GvjVsyXt+Ab9eJ+NlCSx7E1HdPOW7mLGJAbeu7nP//7d1/iv3zjiT44mvFE5DhPcICm6VIQDo/zL/XHDTjXF+IJ2FdlsBLG7rGOBbyYM9ZieAkxDtxqYpjGHruGg1ISlzGbgyQJ4Qtvxwzff5u7+LRpTYg0Mkljh+OLFwMePW84XFmP3qaRmv3AclZapMcRVi+8G1l1kHSy+GGHGe8h4j86UnK49j2aB43bEhS8IpaGpDBMx1OK1jR89e9axV5SEWOD7yGbdEnygLi1NCRKXMFxhWCI2MAi6YaMt6TzNyzdnXtQ5SwxBWzzOGiTpTC30Pb7raYzl/qjhh1OlQJi03RnUojFP3AgYAEzWmdVAnOiwzLeB+GzBl7MNbVEzmCLLeFoCVlvtf8MjiWpdDikQzQBmgKByrW/dPuQn927wxm6tVVdCgSPXLb3tOXpZEYMqIHWo0MzCw9fnnp9/94S5KenKhg7tsLig8y2T/aEDkWDUyKPA4nyg8Gt2ZcO7hzv88b3b/OjGPq9VwjRC7bVdKSYH4iLhrfop9xjCFhqXlISaBvBBKdxDHqO0CTYRupStKPPeGoAuJXzKbbktVSOvCc1EgBgR3+cZplbNiO7XYkuiFHQ+0naeZJS1nLXItNuSz9s2ECUSPQFbQOUCRewo+xX7NvL6pOGd/RFvTktuSMKuW0YxUedEwCCEEOlCUA09m/m7or2WmCuk3zlyYP6d7xnlqYdtpyAf2zGEah0LkWysYs2125VCDXXuH/qggdjqOWtbw2zdMW971jEyOIcpnG7S22r41UCcdI9WQ46AGVpGErkxqnlwuMPbRzV3nGixFKDsI1VQrrlcV1s6+9VRUFI6lagGdJKXgxo9N7n6FbUY1dTYEIJVM5FklFKWTS1UGz4HcmMQZxX8S2IAotUOSlE4hEi7WrK8WiFuB0NFGRPjFBkXjrFTfnci0UtQjepMQRSs6jukbbvmZTC2aTufTXkn8ddt9m0177e68kZU6zsFIirksTY1C3E8H4RPLyO/fTbneefZWEu0em+KyWuarAtPxh7kDkhKLy0TRUSVt3IQTylL0ybBvpcDcbh2wdCN1KVE4wOTvuMoRb43bfjRrYq7jVBHCEOWLLDCPHq+PJvxr794zr/6/IxvVnDhKrrxBD+e0hc1XTT4PpG8uoi4ZLNgSKI0hsY6bIikbqASR5mEiSS+f3tKEXXWVEmilMC4CExLw/2jm+yMdzKpXlgBzz385umGf/PtFWdSsSnHxLomYhh6T+w6qhS4vzvlTx4c8BcPxvxst+T10nKQhIkPjKOnMUItglWeEyYJ49KwUxpGVUlR1MTkuNoMbMSycpbOqZnCsPZUQUjnS3aC541bY62GcypqjKF2BQfjMe8evcZEDC4GqrKgxTDH8Ovvzvn8yQpvdhA7pjAW6wO0PcYHyrJQH+SiwruCwan61SCOiCWakl4aLlrDyWzDbNECsDOq2LWWkTGUMdFgGJcVo8ayXg1cLtZ00VPUBUUlDH5FGBYQWzAGL4oXvW4hIi9b09fVxHbDCUpdKSySIsl7fNsS+oGxtbwxrfnRnmGSs/5t6RNFwRa6wWnWfi0yL4BoW36JY4bw6dmMby5WDK4iZqco3bpzUPj3HNv//7v/5U+WqQZtu6QwnsZ43GbGkQ382Zt3+dnRHneNMM10jy09QispLQq0TwAmb3jeyLVpyMzD56cDP//2Gat6wtBM6XGkmE1N8mdXk4tIsoJ1RqVm2w3VZs7rjeGnr93gZzf3eGNkGadE1QcqC84lkgyk0CGlJRqlpA0o5iKgNnHbtvdWFOYyqQjOix5e9IGzELlMwtwIS1HTk0Hyz+aAJCjoxYi6JGl09zAMuhlm/fMhRLBCWWhFsNl4ZvNlDsx6/+iGLwpSym1D0WwMXNKxko0UvqMcWvYdvL474f5Ow81SmIjQiKGU7PTmvV5rYzJtRFH1PUnd17TXgic7JCH0iCYt+ehEaEWlabc2MmoQkwU9crVrcrGtRfIWpKPrgetVB7H3FMZQWb2PWm84X6w4Xa2ZDZG+KClGdU5EFK+gZzmfE1BdbwZcGrDDmhujirdu7PDWQcONwjBNWjA1Bkq0O2LsNnBsjTli7pzruleOrSPg1HUog5Xa/LzF129tF8nNgu1HTGgnYNvZMFZHARuvksMKUtNERnJ1nsLAcjHn4nJFLA/w0uA7T2o3CImidsRya9KztchRhUAki7nk/De/ietz9WoglqRXKYnFm4LOWtqtIxWwEGEpll5KelNxLgVfrwK/PW757fM13121LI0llgXGOWyuaGPMwfbagUkYjUY46/CDp+8HNe6xDusyLiCB93rnWAT7k3/w/vvGgHcwbFUcSYS2pW7XHMaet6eWP3ptwr2pobaBSKAD1kZ41g18eHzBz78+5TdPljxpSxZ2Ql+NiGVDtBUxFaRgITgVMc9iBdq3V2mFgogJAyYMaikXBqoUuHewy35hM68tE8cL2GlKxk0D1tEiLDEsgQ9P1/z82Yzv1gOb8ZhlTDRVQUWim1/RrU55cDTmJ3f2+KObNT/ctTww2h5tIgpMEpVpSbL1kFFgSmGE2sCoNOyNC4oCHs/OaQthaQItASuGJgrj3lPOZox9x/644uCg5LLtidmYobGOG3XDUVkwkh5reoKFBY4TL3zw8JxvT1d4N6KoR1mr1RPDwJB6KC29s3S2oDVWs/wkSBBcTLqRZz7tpt0wX69ZtNr6KkzJuCpojFO92yFTMArLKkbOu46Z7+hMwlQlQ9+SYqBuJgzJErcC+y9DFpKrB70PkmaXMeSbXAfqijLV9uDIOl6fVvxw37KzVZ8x5Io45FxdW70mqT2jE4P1BgZHTCW9MVwE+Op0zpOrBV1KWKN+Pzo/e0k/+f1DuZH5QI1KilxluBCxGRlLGEjtksZvOKLjjQr++GjKn9854vtNyY1M+7A+85uzrVaQREgDIgNGeowMRJNdvsQw6w3fnXo+eLzgi7mnGx3iR1MNAP1AHSOjwjLEgZVvkdpiRgVtu0LaNVPfcbuI/Pkbh/z45i73m4J9q5SRJmtHi3gkDWpOn03SB2AQS8DRAx0wSyitcN7xi2czfvNixW/PlnxwNuOD80t+eznj49mcT+crPp8t+WaxZhYta9H2qTUK1kpEUlKfMmO6jLwVsFUWMdGqyxmTLfeUkhR94vjkHFM3xLphmSK+FNYxkowG7UIiwfdgI85GbBxwfUedPEejhnsHY26NHWNdQlTW6EaJdlmQbeBSwwNSUAClqNdbl13VZsBxC9/Oer64WPPFxYYvLzd8Nev49qrl4WzD00XHeRtopYBC165iGvShFVEeJWtanL/WRZ5SDkJWqZ0IDEZYpciTyyuOly2ta6AokdRROdVgCFFtS/sIQ4y4UmiqROoXNHHDvWnD9w8mvDmxHIqqXlUxqqOd6dVC0hmV0UwDIam7mwlBUeBRgXvWWAYMC4RzhOdJOE7CSRROgzDzwipop6TIHG4dV+n4zSHIIMQhd82cYhy2hrRDTrL0HldaXIqR0/MVxyvDPNQkW4IR1iFx3nuebga+XQ18Nev5+mLFo6slywCucDRO1Bd96794/VAktQhIDEhQMZ1oSnrjOG4jH5xu+Oii5/Nl4tMFfL6IfDkf+OSy44PzNb8+XvLxiw3fzgOXQRjUDUbTopi7Pq+gGjUhNRixiuvLaXhMgve564TBWEtZkNUaE/an//0/eV+MXJs0B5uluFYbdvoNr1fww6OGH96qGZtAoKMVz9IKJwF+e7bg519f8OHTNS+GhrBzk76s6cXio3qgql5zgROnVg0imS2atOWYBogDJnk1CCAS44CTxLSqubdbUiWtxCcWKhNpSoe3kR5DT8UVwplP/OXDcz48nzOvCvqmpAuBSVEwCp64usT4c3721i1+cmPEO5XwuoE7wMjrHMlaiE7wJs+OjJKznclzGSK1eHYKwZaJx6tLFngWyeNJVKZgNznK1Yad0FP5nsTA/msTFiFgnWHkLA2GabLqdON6jPUsSZylks8vN3x2POP5cmAwFVLW9DGqi4gL9MbTmsjawEYMnbEEtJVXROWTVn7QKrsQkMDaD1y0A/NNAFsybUp2nKMOQNciMTHaaVg5y9P1hqfLBRtTUE52GLohz6R36by23bYzPG0h5nR42/EyCTHgQ57JpKQuUmJwom3HkbW8Pql477BgN8/8yO2noF6I16Apg8fFiKNEBgutIaaCWMCLFXx3dsXJ7IpuGHDJYH2k8J7CD7h8FP/O0edjoAyDAhJfeS6DGiOURPZs4o6Dd8eOP7u1x99/7YD3xg23DYy8xwyDdgVE25Y+aWtOW+kD1gwk6egZWCMscTy9go8ervno2YJTM6Ft9hiqUqurrqNJgVFh6XzHKvS4cUUqDd16jmuX3LSJHx5M+C/fucEbI8eegfFWCcmIzoZjr9N2K4C6kHmx+KzqtQBeDJFvlj0fn6/5zcmSf/Pwkg/PNnxytebT2YJP5ys+Xa74Yrnmy8War660MrgcDItB25CFVXMA9XHtgDUiHcagzGJTKUI195m3VipOhMZZXFHxzeNjWuNYu4K5gTByrEIgZcR1QcT3HZjcFPUD1g+MjOHmdMKdvYqDUigziLI02oXY6udqUpAr9cyZTtaxRoE4z9vAw2XLV7MNH5/2fHC85DcnS357uuKT85bPzjd8cbbmy7Ml352veDprudx4Vv1Al6K2cK2GWrtFjaeoVWjSAcsWnJN4tUWpnZLBRDpX8O3pBY9nHWs3wRuLiWvqCowt6KPO67sIfYq4MlGVA3Fzya1aeHNvwtvTmtcLbUlXHmwMJOmItsVbD6KtWHVUU4qSTeQ5qyVGy2ZIHG86vl12fL7q+WjR8sl8w+dXG765bHly1XM2H7ha9ay7Db1EFSQRja4mKKbS5EibEogz9Enfe1A3T3wOxJWxOON4erbgk+ctF6FGmimmLFnExPF64NEq8u0i8OVlx2cnM75+fkafhJ1xw25pqMRjGXIwRjcTyY5wIkiIEAewjl4cKzF8cdXxz7664C+frvnNlfDRDD65Gvj4YsNvz9Z8/GL5EmBMwWBLxUrkYoKoreUtmPBlaWLwQyBFwVqHsQUxG8h0fSQkMNZRFnkPDQn73v/x//5+QFgnVWqKKKe49oHbTnhrWvPmfsNhJVjTMeBZEDn2ns8XGz58Nuebs4ELP6KrdunKit4ZvFVgyna2oiCIDHcn0ztMVEszSWqTZZK2yK0uOFLEhoEHN6bsWEcdhTq3voxAT6LHMVBxGROfn3d8fHLFo9WGuRhCVeNcQTEkyn5gTMd+HfiT+zf50W7FWw5eE9hPUHRqgC02gd2O9bXSM2gQVj9Onz2TEz2GuYm8WK6ZDYHkGipbw9rjhsDEgqFlE9ekacPB4YRJ5ShQp55qSBQhYMxAMMKamsfR8b999ZgvzhYsqRnKMauo6lzRRoILxAJ6F+kddM4wWG0T6fv0lHGgSAMG1RpORhhsSSt6MwuGpijYc5apSRQm4eoCbw1zYznpPc9XLbGe4KOKurvoECnyzaOBd3t2chMoJ1j6JaIOR8ZsATwxg7XU2WriLA92an505NizmtFuE7QoAckVMbmaqEyBpQBvSD7PqCo4X0eeXM64ahdYkyUZU2SEZ8TAiIExA6OkxzgNjFNPE3qa0NHEjib0jGLHmIGpBHaNgvgOS8Pru2Pe2R/zs1t7/OlrB/zxrZ2MyDXUYSD1G0I/YKqGJIbBR9qggLPCOjVEz+dilRKdTHnaJT5/vuTzZ0seLyMXdsSmUpvFZLQ71KQAYcATkbJASks/tDQmsRs895zwJ3eP+OFByQ2rvNBaVAHJxqBSmiiwCaPIeI/Dm4peSpbAk5D4+GzNB0/O+Pj4jG9nLWe+YC4NK1OxsiWbomJTVHSuorcVAyV9sKyWA8vZmnbVk6JQVwUjZ6kNWNlSwCzEWhmaAp6BlNTVx6KccptxPevk+O70guP1Gj9uCGVJzO/bhISLCWIkZhlBR6JKibERjkYNt8aOAyfZgSdRGxA/kIYO/KCdGOvAFZDV11biOA3w5Sbxq+M5P//ymF9++4JPX8x4uOw4HuA0Gs6i5Sxoon8xRC46z8lyxaMXp3x7csHJKjAUNaNJQWOESrYqWxGiV841oujwfI+ovGECAoGBDYllMnx3vuDZOmkgFsGkNcYE1XpKpbZ3nbaDU+hI7RVNWPP9Wwe8vb/DndKxJ1D4LM5kImI9XnTvFtR8IZkMyHMF4iqSU7X5i03gq/MVP3/4gl8cn/OrF5f88uSMj04u+Pz5Gd88v+DpyYwXZwuen8/48vkzZn7A1BXGFbReK7/SQVVrNdq36K4h6sxWWE1WUsrTBmAYIo/P1nx2MXBJTXKlSisn6K2jdzUbU7EMhlXnmc9mjArDrd0Rh41Q01Mmj0lRQX/GaYdN/+nMiQ4ka9gkYSaWL2ct//bRJV/Ne457w6k3XHiYD5FFgHUSWnH0psS7muQyUvrlFvd7h/53/aeMpCcj/kPM+IAIQwDfq1VoZQ32vX/4P7wfRNsMPirCswwwCZ7XCstbezX39goaqzOWFsd5Snyz3PDBk0s+eTzj+cLQ2R1SM6Fzkd4FfHbw8TaqKIjJh7z8euu76a36+fZW6Kyhs1aFGXzArza8ceeA/bqgjtr2cOo8RQf0FLSp4EUX+fC7E746W3DeQ2tKpBlRlhVpvaHoNxwUcLcR/uzeIT8cO17PbkelT0inNojitL0YIAMBDEUyuGiw0VBEi0s6/0iuJFYVT85nnK880Yywdky/jlhxNHWBTx0Xqws2suGNm/vUVYkBxgmKaHAosX8wJZc0fDp4/uknX/J4lQiTQ/pqwmXviVWBN4FgA7FMdGagt1Htxux2yOox9BSpw4qK/fsYVEe6aNhgWXc9fdvjgKkz7NWOcePAJNaSaCvLRQg8m7f0VLRtwsWCUmpiVBrLNX3plf90hb4aiOXfCcQWVBgkRMbOcn+35oc3VIvc5QWu943etNt7KF8JtZgP2gdLVkglbJKwEXBNxa2jfd6+echbR7u8fbTDW0fT6+Pt3//6cMqbR1PeOpzwxuGEN48mvH20wzs3dnjn1h7fu7XHD25M+fFBw48PS3586Hhnx3DHwTRvtEaUTyuF09arNcpTsxm4EkSReckSUsnaNDyXko/Orvjg4Rlfn665TCXtZMqQr6/IQGVVlz10PWIdRTOCBEO7Yc8absTEO+OC/+KtQ94YG/accnVdPr8mek2pjaglpHUEWzKYitY4FgjPQ+Kzs57fPj7n0+MLnix65r5gkBFRapIpMbbEuhJrSpyUFKnARYcZhLjydPM1/WINXWDkCnaagrErqMThKDBUCDUilkjMggdR27Zki0Wj5WOsaz599IyTzQYmY9qYIIvBVBkpHgJ445QmlKCMkZGBo7q4DsSjbO3ZmIgzghQWU5RQVART0omjxbESy2mCX1xs+MXzCz48fsGXZxc8a3sujWPhKhauZGYcc2NZuVLlZauaOBrjq5p5CJxuemYx4auaZtxwWGhSVObk/aXNknZMFOikAQpVnGYg0otlbR3fXax4uozMqehiJIa1ziApCFIRk6GuoHIC/QbZXHF75PjJnSPujyv2TAYOhnw/WUg2EFAfb5tKSAUeSy+OjpJ1xqU8bns+OL3k50+P+eXJKZ8u1zwMnhMxLIqCzjkGDENI9D6yDJ7nmzXPNx3nfWRtStykpKl0j95OasoC1bs2UFuTExVIPuHQcV8I8Hge+PzSc0WpUmFhyIUEqiDoCjBWQZ/rBbd3Gt65ucu9acVUVG5TYlSg01b3VDeQjOQK4DQJa0V4thr49PmC0zbQ2orBFqgkRyClkMFbEMUSjY52dN78H3/orPj6T9ffA5XDDN4zdL2yUwqL/dE/fv/9ZETtolApsDpGxsFzyxnu7zhuT1UZBhFaHM/7nk/Prvjw8SWPZpG12SM2B4SqpDM93nqiCS+DbzbzVn7athLOaL0MEhuMepkO1tJbqzZqISFd4NbOITdqx0EJI6eKP1yrnhRc+Mi3Jws+f3rB87VaJvq6IZWlote6lqLbsMfAm6OCP76zy5u14zCqaosEYND5E4XC9q8DMZlCEVVgQaJgorYfktXm6aOLGc8XPZtQksyIEEtMUeMqS59a5sOclg237t5i3NSMs6ZpA1gRolg2puA4RH5xesUvn55zJQ1MjrQiDkm7BDKQjCe5wCA9PicxatKjgASF4XS5Is7ZYVEzFCP1Fg4w9B0SBnZd4mjs2B07kMg69bRiuBoSzxYtF0tP31sqM6akJiRR7XGznZz/5wXibaCQ60Csrek9q2A8QwbmpByIMxBIf6VRtaEMTBYlkpIcmNqxszPi3v6YN3cb3titeLBbcn+35EE+7v/Onyve3Ct5Y6/iwX7Ng/2K+/s1D/ZLHuyV3N8peDC1vDkxvDUWHjTC7VLYE+1kmKAVp4i+j2QswfCS+pTBKD4pVSiJoTeO8yT8/OSCXz4758sXK85bgx/tkHZ28KUlMEDqcNmlLAwDtqhxZY3vB1wYmISBe4Xjj25M+ZPXRhxZ5Yaq0bxyJU1SVSANxI4oBb04WrEsEI49fH7h+e3TS748W/CiEzZuTKz3iGZEsjWSLfuMKXGmwIl2JGzSo7IVEoTYB0I3QEiUxqovtXOU4jDichWYz02+wEYypzTLRwQDvjQ8u1pz4XXkMu86kljKQn9fgRCiIbos8xkjzvfUybNfCEdNwUFpGEuikkhh8qYpRj3JjaM1wkqE80F4sha+uOr5/3z5kM/Orjj3ia5sYLpHGO/RV2M2rqYvGnzZ0NuS3qiVIWWN1A3eFnTJsI7Cqg/4Tcub+w0HhaW+DsRR9+FMhVOk+stArKE4ZQMQyzdnSx7NvAZiIMRW+fipIEpNCDCqDU0Bpt9oNXx7n3d2JxwawyhB+crAWiy63+YdrYglJqq2WmsMmzwH/q4b+PBsxq+evuC3p5c8HCIvrOOyatiMJ6TJFNOMMUWFMYUCJm1J2tnnRRd4dD7jqu1ppjtMRk5HUzEgoad2CUm50IkBMwzgIzFq1SgGliHxzWXgi0VgJqVS5nzLMPSEFDGuwJWOsrbq1R4G7h3u8O7NHe6WQiNQiGJQFCzmEGuIQee3Qu6XW0sQR4/wfOP56qLnIhhCPYGqwTiDtVq5b++haKyawpCxLHmL+w89dD6croMwKEhXwWNaIccQsCIqA/yDf/z/eB/RwEMm349SZOwHbjjD3anlxsRkdwthDTxeb/jo+IJPn6+YyxSmNwj1Di2Ctx3JDMTrtnMeFGRfVCQiWwnAPORXOkCG++ebJmEx0VAmSzkIt0eOOxPLxG0/WySKY4Pl2XzNh18d83Q2cBlLumpCbMb0AsH3SuYfWnb8hu/vNfzk5i53S8t4ADukPMccwCWiSwySdD6MveYySn4ZCYhbbqC2x4+XG45nPZdrwyA1pmxIhaWTQCcDvhjw0mIdHDUNt8vyJfcU8FGYB+GrxYZ/+e1TnkdH66b0bkwoGrwx9EHxmcZ6MJ4oeo63rX8hYVLAJU8Z+xyIwRY1gxSsTUVfVOAMwask4I6N3JkWHO1UCANd8rRimQfh+WLD45M5MKYyYwSHT1wnWfyBAvEPDgv2jK47q5dVA61oBaFLWTsQ9prWklVqtOuDcYZx5TgqLDec4cgJh044eOU4LISDV44bheEwH0evfL3vhD2nkpAHkjgisZuibnBZV1kTHF0UOnVMJMlKwyHSxZSdq4RoYYPwYhA+mwX+2bdP+PRqzdng6N2UON4hNLV2jpLKTpo4UGhiji1qEIdvO8VHrBe8O634i9cPeWfHZhqhqisZAjYpQA4RNTExlh7LBnWqehHgy6uB3zy65JPnV5x0wrqYEkZ7+HJKn0qlhoianqQkpGz1I1FREiIWVzQYVxISdH3Her0hhURd1ozqQlHRyWB0WVxTWTQIZ2/zlEgBfDL0Blpbct71PLm6Yh0CUhQ4V6oTVdLrHJ2C4dSCc6AMPVMb2a8Me6VlbDSps5IYgmflA6sobKxjA1wCDzeJj45bfvXkjE9fXHDuE0MxgnqHVE1ppWIVLG1yDLZCippoHEEcISpoyocsAysOnyybTU9YLPjx7X1uVo46aTKQo/AWRp1RD3pO5DoUq0L1HMOXJzMezgYWooE+EvApEaUkpJJ+iNSFozaCG9bs2Z6f3LvBa6VjN+8pRRJM0KQHm7LfelTVr1BjgiOI0FlhATxO8OHFil8fn/Pp+ZLjYNhMDliPdlhXIzZFRbAFQwYcxQBGHKloCOMDZqHgfD2waDv6GDEOqu2oIgWVCVY4KfgBul43/qIgOMNG4LiLfPh8yVfLwBynPHXf4b1q1icA53BFQeUsZui5vdPwYK/myEGFp8hypZr8Fa9ITKKzYzQQ92JZIzxZD3z6YsVZl+hszWBdVjILKghktAucrCPZQpMGxYX/RwPxq4+UCwvJOtNbi10BiMrIMT4EQlK5OycKclDk2xbtpzV2TC+RgZshMl95ln2CaoLdGTNUhmXcBjBeAm2y8ouLuklshcSVfaeeKxqQzSv2dKr6GU1DsA2PT684nbe0MUtohkSIeYEnoV33vHh+TrcJxOgwtsa5Gh8im75DCvVaTaFj7NR2r8oVxDW6QF208fR0sctgBnW+yXdMPqv6ZPKm7AQO64o963B9ILYeW6iN4WUIXFmL35nS1wXfPHvC5fwK0fN/LeUaImy6xPlVx+On5xTVFFOOaYdEH8FVDp+i0sUEiKoHa2PAXZ9br0LsmfkHijhNrmATYRMS3hrMqCI1DaskXHQDl4NXOgrKUbUot3FcCHGz1k0NoziXa2vC/5xl+Nc/rpOwvKYS+X9JCe0KBsvyi9eUCgWaJJPDc0iUPjFNiUPUUWgf2Cf9znHwe3/eJ7F7/Xf6c0f5+SD/jt2UmAZPkykybuhwYcARKKyS+CMGnyJDUmeVQKBLnnUMrBMsgFMPXy0jv3je8q++m/Hb0w1PhoJVs4uf7tIXBW3o8b5FUo9NAxIH1astCkQsfojgA1NbMA6B1xrhzb2CcQIXIxI8ErPpvWTXlizC4TF0KGVqAZxs4Nuzlq9PLjmedywoGeodumLCIjnWxrExhjYlOh8Z+kjoI7FPedwpDDhWySjveTThylU82vR8djbjy/OWZ+vELGaaU1L/YgWWKkHGIMorDwM2eAUYAm/cnHBj4gjrOTYOEAOr9Ybz2YrZukfK3Ok3aHVpHD4m1l3PbLVmtmlZxUCH0KJ0l2WEq5i4AJ4n+KaHjy4Hfvl8zm+eXrKSManYJdDQ+YJNb9h0QtcL/WCJwRGTOo8Z4zCmwAfDpo10vSGZBlvukMyITQebDvo+01nIEXebjWzXvi5fyCQfRXcIMYLPTj0ignUlUjRE19Alx6oPLNcds3nPat5hBs9+6TiqC8YCFZFSouowa8ZITFGBgwg2OSQ4xGvnMwJL4NEm8vH5ko8u1jz2juX0BmH/DmnnJr7apU8V696wahPLPrGJ2RimGHM+lLTVIezf48rt8OHxOT9//IKvFyuWInjn2KSeuFXFIwAJcRpoOgNnEb7dRL5brpgH1SqIBshYoT4ElpsNs8Wa2aJnseqV2iiiM2QSHpVexYgibrMmvrFZOCSXsgnwJHoU8NYHzxC8GjcMA50f6IO/3m+TUU2ELQ3rP3XvUwEPHVKnpO3o7aG8e10bQ4ysuh4zDIHgIylqlDeSMBJV8sxkb9C8ntBrqxJ7yWGTwTgHhaE3kTZ6rV6SwUSrDiJR9UO37k5FVOCFy05PNpG1c/V1LlqKYHBB57MpCeu2oxv8dY9d2M5eIlbAiQEPvg2kgexXKgxBgynWkJzoTFqSit8IRJtIyoyHAqKNDBLo00DUqdZLf1STD7udu2w1TQVnhEIsLloka/T2CdYxsQG8s4hzhDBgQriu/FBAMSkHYz9Eho3HBosJhtjr4F5RmCrPV4jB5XNZxkQZEmWAMuTzF3SWrefA0idLl4Q+JVLSxMoZPXRt5qyRgoIaleZXEX9JAzYrUYR8427zkb/9Qxs321vz+ncn7TgQcuWbWcQRUTEAiRqIjVZVZYpMU2SXyJTEmMjo1SP99UeVAlWKNCmqrVp25BmnxCQlJinQyICxLdgNmDWJDZFBEzS2QIzMJcytN2dFufVD4OFq4NenPf/i2xn/9Itj/vWjY56Hgk25y9DsMlQjNsBmaBmGDSZ0qmSWtapxVlvcIWCizkSPmpq705IblV5/F70G4Kg0pWvSbW7rZ38cPLDwcLpsOb1aMG97vHHavbElbYBl39PbSG8jgwkECcrmjmqUvuVhBiKLoWVBYFMVtOOGZVXywgceL9c8XfZc9CoK0icYvOJP9IpvUzldY45AbRIjQX1wy0hjIrVV/uxmvebias7Vck0XE0PQZBxrwBV461j4yOm65dlizbN1y3PvOYuGlW0Ymgl9XXMe4dN15OdPe375ZM1X85ZLqWC8j5RThliw6aEbBJGC0tXURa1MDw+hTVifaBxMKseoKKmtozKO2hWMq5pR3WSV5d/br1+5aXJjQHNO/c71S2OEGF7ZqI0luQopx0RX00XoQmCxWLK4vED6lr2qYAKMCTQEZdeahGQNy7hN+hF1UOsTaI5Dm+DFkPjuYs2352uerxMrOyE1h3SpYfAVEmocDaUZUbkxlRvhXI3Yiiglq1UixIJ6vE85vclaap7M13w9m/Oo3XCREpuyxruCZBypqInNGD9qWBjDiwTfdPDpYuC7tmOBAlNN4SiamqppcGVJAFZty+V8zsXVnMFrF0oLRC3+NFZlwGfaGqa8PNeKUNAOhL4+t8atBaujE6VVqRFHzL9Ta+lIiFo4/qc8RLaiHtqOToksfxkIwefnSMJoFyFt/7WkHyaQGAgakCRrC2d+mE3a+jgsSm41Y3acQ/oN/TDgyUEtWUwssaGkCCWFL6i8o/SWypvrowwKCtseVVC4fT1AMwjNANUQKeLAwbRmf1pQWF2slRNKS9YHiuxPRty/8xoF6tMqEfwQiAmKqmEg0ZHwlePct1ymyAJYWaFT7ALJqUl3VP24XA+rgbdmKDkIO3394KAV6FNivmnpe481JYWp6Xvli5lSNWOHvqOInnfu3ObWzpQa5azGIVfFBspS2J+MuHtwhFn1uM3ABEcdLaaDkZSMcFQ56FZefvd8ekfpC1zQc2+iqmWtPQRbqJBBCkjbUvVL9m3gRlOyX5XUkOd16n/UDZ5lu8ZWliADXgY1MBet/P5Q4Thdt3Z1ses3Xx6StGJAJzx0wTPEkLNlbUtYk2gkMiHQJI8LAeMTsj3Cy8OEdP13ZtBnNaYO1+puJr9OIvoGnIfS4wtPaweWsWcZPW1KJAyFKalNAX1PEQOVCCEOPJ+d8utvv+Gff/oR/+LbL/nVxSkPQ6Rr9hiKKR0Vm6TtbCFp1ygFSkmUVkhZ1KSPkYioOMBmzb0bB9w93M9G7ZEim8GLkLM6vTY6CNr2nfT8zpc9L06vuJxdApFRU1GVFpMChB5hIFpPLAcoPbYYcIWndJ7S6uGsVxSu9aylY+08w9gRdxtWleF4s+DhbM3pRgOxgvvyJc0BQd9gphVJpDRb73I4nE64d2Mflzyhb4lRN9zNIJxdwWwJmz4TkIqCoaiYReHpauDLyxWfnC346GzJJ/OWL33kIfBtgA+XkZ8/WvJvvzvhs/MLzjGknX1aCjov+GiAgsJVNGXFuCpVG1ugDAnZrEnLNbLqqHrPVCITBop+haxnSLugTD2VS5SFcnGvY3GM125VukG/TEpefYhkNDUoyj0khihEW5FcRTQFxpUMfU+7WlKmwNGoZkRgRKRmwDLomO1639IRj2wrh149JGOCxSbx+KTnu2czTuc9XaxIMiH0FZsrT3/RI4tI01qmoWKHmgklZbQwJFIXqVOB65RS6KSmmR7RmYavTmb84tFTPpnPOU8jzqVhaUe0xZh5WfNChEfAB6vEX55t+M18zjMjtHVJKrO3pTPYssDVJaZQb+Z28Kw2HW3f46N+Rq2Rtp0zpUr6GFThK7skKlNHT/J2+yiMwZUFriwoqoqiqnDFVnQjc6xEK+uQIj5u97//+CPGpIYmAsZstab12qakMpgJvT7KK5ZCQTCiIAKfIh2BdVJ7qjZvljbTmibA7bLi3njCgUmYzZywmSOppSiipoKpQFKJxAIbC2wocMFplftKpWyy2bhWeIkyROoQaXxk5AON72lCy+uHU+7uVtQp0G86dT+ShPctKXQcjkree+umKshksYY0eAxCMxrRh8gmRvqi4LjdcBIjl8DCCCtr6AUGo5mVwVKIVVeTLPImGhG0+LEwWA3CG2BN4nS1Zt4NYAusq+la7blOqpJJYTHrNdVmw89uvcYb011GWQQ/Rc26jINRDTd3S7535w5uvaFse3YLx0ggtp7aOSprMUGwAWw0ei6D03McC0wskVhCKkmpIqSS1gviCkalZZR6yvUlo/U5N6TjblNwo9ZALOjGOQCrYeBy0yJ1QS89g+2I5UAwA0l0PvyHeLwSc393ef97/iIkVZnagv5ICgaRoYN2Tdis1E3GGJyxL4/ssevkle9Z3SyNsRjJLMCckEKeTxvB4xlkIBiIpiDZkmScDl4SkFQZpy4KHIGunXNxfsyz48c8efGMF4tLFvT4UYXb2aFopsRUsOkjvY/Xfr1N4Sizop0z2krzaNsbIzhn6FYL7h5abuwWpBApjHY4tqLzvJL96/GyLAvAbD7j7OQZ84sXyLBhZCN17Cj6FU1cMy0CRVph4xKXllSsaVgzYs0oranDksIvKOKKUeExsiHENdH0SAUDA2fzC47PXnAxXzLk4GK3lnWvtGe1TNOulqSgKNrec2Nnyluv3yH2GzarJWVRMN3dA1ty/OKKq/mSdTtoy9tZelcyS45nm8BXs45Pzjd8eLbmVycL/uU3J/xPv33I/+uXX/E///orfv3oOU9XGxZA5yydgXUIdElHahiI0dN3G9rVgn45J7YLyrDh1rRkr4y4bo5szqmGGaO0pPJXuO6CKiyYFoFxnagKsEqi1kfSaJARFHpVkraNIyEjdbWNut2wQ4z03tP5SBQLtkCKgrKu9TQGz8gaDpuakURqPDb2hGFN328YQq/tWiPaUidreVttCQcHyxA5ma04ma3YeIMpJhgZETthx5UcFDW7VIwHS7mJ2I3H9FH3bLFUtqDGUAyQ2oDvA52Hyzbw7cWSj55f8cHpgs9WA49TybkUnIvwNAlft/DBReQvn1zyV0+e8+lswbkxdGVBMEIfBtq+pwtezS8yDS+J8uFniyWz+Yq2C7kiNjrmTFFd30gYs+0OkTE9uXLOyamPkd4PdEOfdfG16g1J6YdsK+ZcNasq2Str+D/wCMGroFFW53POYa1TXWqj6m7GWjCqImecWCTmTcioF+1GIhubWNvEMiVWuYXqvApf3CkNPzwc85PbR9ywPSyPoT+nqQLWWiXwU5JiQYpackoqkVRAtMQo+ABlVWOtxfue5HvGhcP0LXX0TCUwjS1HbuDdWw2vTQomogYTKXTEqA03m6I6+Rw1vHHrkIkV3NBRk3tiCYwrSUXNShzP+8DjTeA8qlPUGkXs+bxQJSbwqvBVElXbOgwQBiAQJDIQWRG4JHAmcDJ4rgJEa6lqQ+UUuVj1nnq1YrfreG93n/emuxymiOtbNSQvtQzwyUPyHI4c37+3w5SBUfI0RGToqKyKH7RtS9f1GFuSkiMEg/cGPxhCcERKMDXJNASp8VKCKSlsQRl73PKMevaM2/6S9ybCe3sVtyuHC2gVn2AFnPWR03XHEk/nAr1r6c2SQVaK2s70pT/EQ/76mPs7ffDt0jfG5jbPKz+h0RC2RbKYLJagamhG8rNRgNfW9SRGHceQyC3wbUGZtZNzkJVs/e6xKu+ZEaNGMggkbZ1lFCBUGdirK14/POBHD+7xR++9ybtv3uVob4KNnrhuqTFUGCQqfSMNnhJDicGo3yAxz7C8aCs4Js90XLM7cYwdWCIx9Tkp2ZoRKMF0u9GkPMYxgPeB9fyS5flz+qsXuG7GyC+oNhcUy+cUixOazSnV5pQyH9X6lHr1gnp1SrN6Qb0+pV7ra+r+Arc+h9Uppr2iCGtkWNAuTpmfH7OcXzIMedy1NSd6eXWvwUsAxEAcOkZEJlbpLI2zmJQYhoF+COrhDKw3K2bzKy7nc5b9wFBWDKNdZsWU57HhcRzxhClf9wWfzYWPLj0fn3V8dbHi+WrNIgx4m5BCj+QSqRAoRbti9PiwJsU1hjUlKyqzZGQXTN2SqZ1T+TPS6jHD7DtMe8xuueDeoeGNu1N2KovjlUWb8vWxGkSuP/42OOiL9Niu97xmRQxiFIsQrs0lsnhKjEyccHtSMRZRCctcNBiVfs6NTh3vGMkORYXS/toSLuPAw4szFiEQXKnYGkqct9TeMQ6OSRBGPlEOHjuoChfZOCNFT5EGquQp8h42pMTGFFxJxaNW+NXJkn/65XP+1y9e8P/+/AX/0ycn/M8fv+B//eQF//LLUz54dsW3sw3Pu8ACtQYN2wo0RYYQ8LmCV0lNPY/94OmGoPacr+4fIoixyqowuVz+vSRw+9pA0sAbQ0amb1MivXdSSoSoAfp6XPCf+Hi1JZ3S9uf1d2yBW9u9LAL2J//w/fdjVjuJTiXUBjwinqYQxs6yYxVRWg1K32gslIXD24qrbsllv6A1HnEF0TtEKpyxGLFIguijgqvEYKsCrKX1nqKpCdmpwgpMm4p+uWRkhToOjPyct/csf/bmAW+OLXsGahMIfgWiyjjJlCAKl1/5hhfLjvkw4J1hjQdncdkDN/ieGD17OzscjSumWypUTK9I7kVS8LgElXHYZCFE0uDxKTCYRCeJJXCcAp+uVnxyuuBk7WhlDGUNVnmxZbeiXp3zwA38d++8zk/3dtiNnip41ZgtLN4k2jioObhzpMrw3fMrloPQJcPGR2xT4Ums1wtS8tSjRsXVsfSpZKAioBrLSRT+oRmgxVYVBQG7uqCcH3NjuOQnuwV/7/5Nfnprn1uVQyKsArQWHg6JD84WfHZ6wSWQRo0qjeGVtmSA38FK/01R04Z7uxU/PFDUtKI9Mzo9r/kkv+sIJiIqXYlk+UK02jC57BIDVltY21/z6kF+jjkwbW+K601TtEoh5cI4y+UlLFFKYnZv3QZul4O/bCtzkyidZVSP2d054MbhDQ6P9qnHE7yHzbKnbwMS9d6w1miwWa9UYUoSMQyEBIMYugjJOJ2FDy1v7o340e0JDxrLngQktZhslpAhnvkaaDDWz62i/V2InF6cc3l1QYyencmIvemIxkItgbGL7FbCpEzsucihCRxK4NAEDoxnz0Z2XGJSJKYlavBuAzs2cVhZbpSGvdizG3pu14439ne5f7DHzlas5fqxHYCg7ze/1957TFlyPni+vrziZNWykZJ1MHSDkHCUZYXIwDCs6fuOkBKmrJCywbuSoajwxZi+nLJMJWsp6W2FdyXBFURjSAaVuswHW3CbRIXxhA6JHSZ1FHSUtJRpje1nVHHJWDaMWFH5OQ1LbozhzdtT3nv9iB/e2ufBqGZiJNPJ8krM9+LL65M343xGAokNhqtk+PL5jEezgZUd4YsaCgUJxSRZ3GSgST0Tv+G9w4o/u7fPLolRtvLQ6i13bbKYhEHHipJHBW0hnBrhk9WGf/3NEy5tTedGRCpcLCmiw/WCHSI2ZhVu8dcU1CToDDZEihhxEhDjiTboeK+wxKKkF8eijZxctTw92/DN8zVfPl/z9VlW6Fr3nCdhWVR0RUW0FVYKRciTsUq5GRyTkNNdla4dOu7tjXn7aMKdWhiRqFCxGDEOVT3RMyygkqYEUmYRrBGergc+P1XUdO9qgi3AoP+uKHgnJrUFDbohYNL27voPPzSR0ldtk/vfD+YvE2bB/vQfv/9+Sir6HgwqlGATZE6q8T2jFLgzrqnzXNcG/eFQWFJlGIrI0m+Yrza0LRhTUZWO0hqI4IceHzxSOKpxhVSG5TCwCT1REq6yFM5A6LFhoEgBNjN24oq/88Y+P7s15dAKdUq4NLDqltiyJtmKQQqCWn3TRsdySFys11x1LcXOWFG5g2ZxRAh+YFw37I4rdiqr2aSx2KgbfGEclaifqKFAooWgycQmDHQONkZYYXnSDvzz7x7xaAXrNGU9VCw3YI1jpxTG/Zybcc1PDxr+/v1b3Ksde4WlsoZIohehlYCxBmsVFRyAZTQ8u1pytloT6jqLzUfEgSutShZaR7Il0amet89E+xh1g7EmURSG0gmyXlAuX3ArzfnRfsnfu3/E37l7i/uThjq3etpCUaW/Pd3wwfMZT7uOMGqIVUmQhHFCURaEkP5ggfj13Yr3fj8Qb9Nb0fgSr0FxunStagNhJLeRYyRt3YJi0lZPPo+/f8TtkTTAizX5UOUB9abdZt76b4YhYiiwotWCoFkuKkeOM0rJIfQv33zSWtSKo0LlPHfqhp16QuwTJ8cnpJQYj8f4YSANntoVFEYgBoaUGKwSPozRCqsJPfdHJT+8WXOvtkxUawmRMtsZboOvHvrI1wVFfiYCVVVw42Cf+3dv8/rtG9w52OHe4Q5v3Nzn7dsHvH4w4a2DKd/bn/Lu/pR38vHmwQ5vHO1y/2iX+zf2ePvODR4c7vDgYIe3Dnd552CXt3cnvLk75XuH+3zvaJ+7Ow0jyckuerlEG/8vxwBJqxxcwWAtMxGebjq+OjljYyqiG5OMGqwYI4xGBmMi3ve0vafziWRLXFNi65JBHMtBdY2jKzBlRVnX1FVJWRqcBExoid2S2K4oUsRFTxGV9lemnjorro1TxyS1TGnZNwMHtudGEbgzsjzYq/n+7X1+dO8GP3z9Ft+/ecCDumHHGKotr/s6JcxJxyuBePtQtH2ixTBLSl96NBtYmobelJDXZ0Q08KXAKPTspp73Dmt+dmvKNAUqhuy3q7oEauqhSbm6NWkAXTuYifA4wG/nS357csqiaOjdGKTGJgdDRJt1yiiJxhNMUIpdVj9MRu96SwAGgg30LjJY6K2ht47BVHip8WbEenCsfUFLRSsNnWvoyxGhGpGqEbZqKMpaR9sxZWW2re1LHhVlcKRLETu0vLY74u3DCXdqGJOoUGDr9eaRkx0NxFFTnt8LxJ+9WHHWxutArElS0E5X3ohSZvT85wTi/7SHvrskYH/8f3r//SHAEPPmVOhNC5EUBmK3poyJ29MpY6PEaZsBB0VjaHbUubmNA+0QCFTq5bjZEPqOwgqTyZjRpCYYuFituNisSXXBJg2kQijqAmMi3XpJ7cCEDtsvuDcV/qv37vH2uGKclDqCwHzo2BghmIZBCgYSBYItwYvhbL7kfDmj3t9lM3i8RzMtDEPXY3yiThW7RcVBo+IaNin5W6LgTKGG6cFCD6lXYI40I4IruZLI47jhw6tL/revn3EeG3qzQ+sd/RBpypJxGphsLninSfz9+zf5390YMR4GDSKupBXhLLT0kkXCleylnODdmq9Pz3g6WyHTKWsjtCZia0Wod35gSJEuRNoo9GIRZ6lqoWmEstBNmn7DMFtQrWfcsS0/Pir5uw9u8Gev3+D+pKbJeuCbCCsHn17Cz59c8enFjLkRGI/oiHRDBynhbKFqfSlX3brF/40D8f2dmh8eFuz/dRWxXFu7anUKahCSEjbpTJcs1tBbR28LkiuV1pLbV68evPrnrCOuFIeXYKYoWZY128AZDG5wWF9gYuaybkFk+T6QzDK4RiwnIERMFCopGYlwYOBWKRw0BkLBw0ePSSJMdnd11IDBWadrIEYNxM7iSTjrqIBJ6Hlnd8QPjiruVoaRKI4cKUkpC0XkU5dy0NOv9f8OoaoK9nen3Dk65O6NA+7sjLi923B3t+H+XsOb05L704q3pjXv7NS8szvi7d0xb+5OeGN/wv39Ma/vj3mw1/DWuOT+pOTBpObNac3bk4p3dse8s7fHWzs73B3X7DlLkQMvma6mX0qeyecear6OKzEsreGk6/jw4VOGYkSqJnhKQlTbOVKHMRFjldPch8QQ1BtXnNFCyEJRQuGUbWBiRPwGO6xww5o6tkxkYMeoZ/GeMdwoHa+NK97YG/P24Q4/uHXAT+7e4Kf3bvJH927yF2/f4e88uMPP7t3mp6/d4Cd3bvDjG0d8b3eP16uKQxHGQL3V0f4DBOLBFurgZF6pQFNgFHtuOPjR0YgfH42YpESRVE0ticFLwYBTZP/2vSTFVsxEOMPw9dDxm4szPjm7ZF1OiOUEMRUSDWnwOKNBOFhP7wYGFxRN72Aw2cdXEiIDyQwMNtC5ROeEzlp6UzBIqYGYGp8qgjSZklrjTUkwBUk0iVR9AMXNkJQnoQr6ul4SmaqC0T1g2HB3d8zbh6MciBW8qCIqWjm/WhFLyqImrwTiZ+uBz09WnHWR3tbqAy0ghFd6SttAnLsLf9BAnN8cYN/9B++/3/tE2I4y8oUXkuqkeq+WiMZRm4JxKVS5yxKtqoVQWWxTkIxluepwxtJYPTEuBtLQM/hekWwGUmlJpdWfLwQxiTh0hM2Cndoh7ZpdF/nZ3QP+4vUD9uxALXonr4JnFhOfPT0m2ZqyHuO3xuMWIpbZpuVyvaR3ar+FFBSuwdkSSYaw6YnrHhcMk6Ji0mhlk7LZt0rr6TxSks7fUuXoK83Yv10t+M3zE3797JzvlsLa7NCGEihoqpLKBNLVc26mFX96e8LffXDE65Wh7BPJWnprOGlb/s23X2MnE1xhMDHhxOFzlfX4cs7xpifUDX1Z0pEwhQUCbbfBDx5BcGVNVVVUheiNP7TQz7H9gqJdUq1X3G8cf3Rnyp89OOCnd/Z4vXE0JFKyeDEsLTzs4dcnnt+czHjarunrGqkreu/pO49EgzMlKYreOH/rQKyCHj/OgbjOvGxdlxrtoo2E3IHe3kxKe8sEZCsEK6yMsBb1+O0yXec/fIgi3vNru3y017Kp2iESEYqkm0TKQgYpgcugTpFEjB7vO1XisXkgFdQC2AahTIY6CaMEtRFsZTifz+kQUlkxJMHYCjCEkLmG1jI4IRApjKGJkanv+eHhLt/fL7lVCnWKuWLQ2kt3kHwdfucm3277qnw1KkqmZcnEWsbGMDWGHWvYM8KeUe/tIyPcMIZDazh0hoPCsF8Ydp1h1xr2jGEnv37fCIf5OLKGo8KyXzptzwY1V4Ctkp4CInXVaCCWHIi7JMxiZG0NJ+s1v/r2MX05IRZjfCyIyeGco+/XiCSsKzC2ICWD94noE0QVfSmzxGQZofCeKrQ0oWUiPYcV3JlU3N+b8ObhHj+4fYsf3Drgvds7/ODWlB8cjfj+QcO7+zXv7pR8b1Ly9rjkjcpxr3C8VhS8VpTccgU3rOXACDsSqdOACZ5CCmzuAvytAnEW9DAWRGJG4UYKAuMwcKcp+PGNET/YKxlHModcC4ZBVF9PwafbijiSDMzEcIHwTbvmo7MzHl2tGYopyY0xUmGjJYWAMZFkA94O9M5fa9t7o+JLYBESBk8ynmCTKiMaVUUMUhApFCtEgbUVxilmJRmNFQp41AQjhUDy4Vq3QcuSazdyXeM4SFYNYPqWu7sj3j4c8VqjgbhGqaGCkFLm8ebJgKL0X1bEm1cq4vPuZUWMoC3+69RWvZj//x6I3/qH/+R9nxF9Ls9Jt44QJFSdJCY2qxbEUhaOwukQfNvyE2NpqoppXTMuC0aFxWyWsLjCtGvKlKidwzkdogeJ9ClQjSuMhTh0pG5NFT17zsJywd1JzV+8c4/v7xS40FLmxXXuE4/XHX/16ZfEZszO/gElqsxU50o9kFgNHSfzOV0SbDHCmhHGlFRFSeg8w2JNWHfEQYcnyRakQquhAWEtapAdndBbwwzhyRo+n6344OSU3z4/55v5wMrt490ubSc4W7AzqUmbS8LlE350NOa/fPs27+1XTIMaVXeF4dwIn1wu+WcffUy5d8C4HDEWS2MsiYggXA6Jsz5y1QcGV9JFFV2RpOYU07qithaHwYaAHVpcv6bo51TdJVV7wV7o+OHhIX/82j5/cm+HHxyNuVkZaglaTeBYW8PzmPjXj3t+83zFN8sVM0mkpgLrCB5MLCilwZlasVG/E37/ZoF4Yi0Pdip+clhwYEQFVrbrUhLRBJXTzHNaIWFiVO56NMSgmIa1oCYVQ2BpLStRkYJVFivYHts/b5/XqErcq69bZSu8NqPH2WoDbAEhoqMnm0X3IZIYiMljrAJrRJwGl2jUhSaKBmWvE66yMYTCcdH3vFitCUWNLcf0AbrOkxBMXTKIImprI4xCYGdo+dnNA97dc9xwUOfpr5FC/71X7+pXnnROpWhSJ4YCbXVrPZkogQqhSIkiJcZo0tAk1E4xRUoCuq1upXbAxUQtQiM5ydj+jIFKwKRA8p3O2rZzxWvJUj227l2I2hAuInRWeLFa88tHzxiqCd41DMERk6MoS0Uax6gjkqTcepcEM3ik7TF9Rzn0jKJnEgMHJnK7Fl7fKXhjr+Kt/TFvH0x5a3/K23s7vHcw5d3dijenJQ9Gjtcry2ul4ZYTjhAViYmRnRCZhsg0Km99EhNNNp5QUCcUWfSDP1ggdlgTMBL0c6dImRJN6Lk3qfnR0Yh3poZR1PMNkSCGQVRLOm7dhVPCRr0Gc9G97PF6zWenF5yuAsFOwIwwlLgcYJN4gvH0LmTApnppB2MhOUzSDo4QSCaqL7VsV5VFsEiyOuLL3uV6F+exz5b5kMGEBlWf2nbAhKgSPgntfuVqWHJF7IaW13ZGvHPU/E4g3gZPUCbQ9X1A7lr9XiD+/MWK821r2hSgKfHLQCy5QBOrlo7XCIw/zEPyObBv/OP/8X2MgpUqBBsE41WYP4ro7CbB5WLJkECMwxUOV2TUaBabaMSyX5bc2h+z6wwj31J3GxrvGQGV0UsRU6IPnnboGE/GCAG/WeGGjn1nmaSIW614+2iHP3v7NrcsmOgxxtFbx/M+8pun5/z6uyd0TcPu3i4HZZF5lVAYqEpHT+LrkxMGCrBjIhUxGpwtMp/OM7Qt682aZTuwiomlSSyJXPnEqYd5gKsBTtrI11eeD09afv3snI8vZjzaBK7SCF/sY9wuw6Ai802RGBYnTOOS/+qd2/zF/UMOBUqvSc26EL7pAv/fpxf88tFTTDPhRrPD7apmarUl41NiKEou+sDj83nWiFbSd5lt7hqgQWgSFEOPrObI4oymv+Jm0fHGRPjR4YS//9Z9fnpnzFu7BYeFSsEBeCmZ4XgyJD487/kXX875cr7mSiKhLqAoiCFhoqOWCZVMMMll0J0uxG0Q/psE4rGzvLGrgXj/lUCsIjKBkAUl4nbqmQImaFuaZElRGAq4jPDZ+YxPzq847iPPlhueLjueLFqeLFqevnrM8/eWLSfrnuNVx9Nly9N5x9N5y7NFx8mm50Xbc77xLLqgdouiybiUWbuXSExqDS8mIlmbPGG11SaKrNYNhK1Sg4rlVFBNRzy6mvH5izNiPUXKCZte6AdtuRZNTY8nRc9IYDx4droNf3rnkLd3LAcOKlTQRBuh11fg5ZHvze3fkVDbjFcCsybfysA0+dpUGJXyTAmTIupDpp9V2bv6cyaiSG8R7VIEcCSsCCKRlNQ722RBGEyuLLR5qN/K7zVmP96NCGsLzzYbfvvkhKEY0UtFHywpOYqyQoylHyJhCFgMI1dod6BdY9YzqnbJThq4U1leq4X7U8s7+xXv7le8vVvzYFxzr6m5U1fcKh23RFXZ9pOwh/qST5KyQ5oAdUxUMVHFqBTL7IuuIxLVoDfJYCkojALCYl7Lf7tAXBOMxcqAyfz9CLgUKfuOBzsjfnSj4cFIfYclqexqMJZBHEOGxFmUGmqj4hZWot2jZ8sNX5/MWLSGkMOYzVa1RhKBIVfDL2e/QSygdNQiFNhoQBSjgeh9KRhssioulJSeaomkGEhRS7eE6j5Lpt8pZVeFcLyAMudVkdFAHoW9DMYuplwRN7xz+Gogjlk6VTQRyPU020Acs8Tlq4E4t6YHm2fEf01FrF/livgPGIg1LdHrZt/4P/8P7xurWXEVwPmEDJEUVHYyOEdvDKvgGTJ6zYqlKiwjq1VoKVADZW5E3B0VvHtzj7eODthzJXG5YXU5o920SkExlk3f0jR11h5taWLk0DnqtmUvwQ9u7fGju7vsiFBZRxLLCuG7Zcu/+uIpz9Y9qwjjpubu/g676OZUCjSFwdvEw8sFm+ToY0kXCvpg6H3CWEddllgLrW+53Mw4Wc95slrxcNXyaDPwvIWHM89XpwOfHG/48NmCT06v+Gbd8SwKV0WjetC+oSwmGTjUI2GJ8zPevTXlv37ziO9Paso+UWY97wsHvzpf8s+/OeEsGdoe7k2mvL3TsGuEikQIHirHVef57mTBsk+EoK3bkREqH1ifnDBOicOyYs8amm5Jtbrghmz4ye0d/pv3HvDfvvs6b+847pSwI4lSdIFFKlbJ8u068fPjjn/9zYIv5hvOEcKoxI4qMIbQBWwoqZhgfI3vIdntRPVvHogJkYmzvLFT89Mjx74IRZ67JoEg2yCsSjZCghiwPmGSVXs9YCjgpId/+/CYf/vdI746n/HRozM+fXrBZ88u+ezZOZ8/veCzZxd8/iw/P73g82eXfHF8xefHV3z2VF/32dMLPj++5PPjGV+erPjqxYrH5x1drOnRXqctdS4W0kDwawSPswIYupjwonrEUSzJ6txePf+SkuWdGmYU1vHV+TkfnV/RujHBTWm9VjCucNjC0UsPcaAhMeo7pu2GP3/9Bm9OHTtWW68m6labQ+0rwTdfG3l5lV7ypUXBZFG1hwt5OdN0QJkEl3KmLpFkAskE4iumLQLaiRGVRLXoRwTl22sbOupmS9L5XK6Ygmgg3r5ctupHVlH7F8A3izWfH5/RlSN6KemD0wDgKgbVo8AZx7goGRmD7dawvGTk19yu4a39ET+5s8/3Dhre3Cl4YyK8ZuGAxE5SLYSRwCglXB8ofKLMWuJFVAGPMkXdTwwUVjI3XT2ERawChxT/o2FXnPLO82z+bxuIV9IQrMXSYUW55ElyNbhZ8+beiPdu1LxeQRPkekMPxtCJzYFYr2mREjZoStsbHeEcX6345tmMbigJqSHFEpsKnFEDmECPN57BBQar5jwk1SwofUnlS5x+U9dbMupUFwxFFB0LRLWOtSlktcZX1pOJ1xrY29FFQA2Aomi35zoQ55qZXGW7FHFDy92d5roiHiFUr1bEKZuDvNKalvR7gXilFfGrYC22gTiDteSVingbiDWA/qEeitC29/4v/7f3RSKVj5RDouwT1gsmqRVhby2ds4S6ZDAG7yPBJyQYanQWXGd/3VGCAxPZJ7AvhiPnuD0acXt3j8PpPpWrGXpPP3jquoEQiF1L6QM7wNQHysWKt/cP+PG9m7y+WzAScOjs77iF3z7r+MXDE7p6ymLoMdZwe2+X1wpDnXql6ogQjGPlKi42gctVpAsFwZRsfESspSgstjQEm1imjhf9kkebGd/Mr3i0WnEaIl9dzPni+SVfny14vB44lYKraszVaMKyGtPLCOkLXFLEawob4jDntYOCP3/vPj893OFG0qzaibBJ8KWHf3485+dPL4l7BywXHXfLKd8bjzkwCRciRYoka1gMhtN54nzRImKpklB5zyQl7o7HlOs1/ekpxXLOW7tj/pufvMP/4af3+fsPbvL2pGKfyGEwjH3mGUrEi9Ikvlr3/OJ4wV9+d84n5ys2kx02VUGqHbY0EBNh4ylCTUWNDAV9D1LojaQ34N88EE9/LxCX2xtGklq2KXtWW1cJbIzYINpYTZYQoS9Vp/ZXj5/zm+MTXgTDXCbMZMKcmgU1c9FjIbV+T2rmVFzFgqtYMqNklipmqWQWS2ap5CqVzKJj5gOnyyuuhjW9hVQ6tbSVDmsGnIlaYYqoIYAp6LHXs2efK71gEtGGzMHu6bF813Z8s+45GyytTBgocM7hrGT1MI8kZSyMuo7pZs1/cf829xunNoxZdcyIHhl7lr/O1Imsd6si89vrtN06jdoQZqUhEbn2TsYog8Ib8BIZSHjIKl359xqnOIrt7zQQrbpO9SR6CUQJuJQdccRk4wSb07jrziRR9N9aCjyarfj42QseXc7p3YjB1PhUkCjAVHQDGOMYlRqEXd9iN3N2YqejjruH/MnrR/zsqOSNRrjtYE8SIwJlGHChx8WeInqqFBk55f07mxQEZkIWBs0SfTnApTBk1TLdhgMGj+ieaE32Ub82PfqbB+IXL1vTwVhManFG9yzEYUJE1iveOhjz3lHDayWMIr8XiB0+XxdNriL22h5QUYbPz1d8890VIVSkmAMxCmgNwRNkIBh/jZROYrDRUfqSeihpekcZrlM+XDRUQRUT65A0nkQ1obHicS4iNoILRBcIxhNE7/NAUGooUX3oDRgiLilYaxuEyVVukRKu3+iM+JXW9HUgTpJf/7IiJrem0yuB+NnqFbDWK63pfwespWkByB86EKfr9WXv/eP/6/vESDEk3JAwQdT31Rl8FuUerCCVJYrB9wPtckO7bIkenC20TZ2T/0oSBYMGZmPZKQ2HE8fNvZKD3Yr9nYa9SUMlQnt5BqsZ4ziwmwL1akm5XPAnD27z09cP2Xc6c9rWYN+db/irr875btkTJzvM+o4hDhyMa97YHePMgNu2cYzBVSXPzje8uOgYYkE12kEKi4+Bvu8ZQiBYSygK+sLSFpauUNH7y83AYjD0psGXOwz1LptizMJWLG1J5yrE1ZTozLl24PyKJsz46esH/N1b+xyEltJ37FQ1XmBWwF+dtvzzhxd8u2wpdvbolhtumYb7owk3KqEKEeccnTGsk1IxXpyeUZBogseuFxSLGQcp8Nqo5L3XjvjTd27yd97a4wc3x9ybFBw5YdfAJGXdbtGWqjeWyyh8cj7nr7495tfPZjzpHe14l2E0YREjHnXvkQixh9qOGBc1VkT1gp2CM/62gfjVingvV2QaiFXlW6thtBUlqrFtPCqwkSx9iAyVcGXho7MZX81a2maPTblL6yb0rmFwNf0rx2Dz17aiM6W+pmgYihG+aOhdTWcrWlvRGccqeJ5fvmC2WdLjkcJQV46JKdQjVxIEzzB4nK1Jon6tW8CXSs4Eogwg6rdpSczCwLEYnkTh4aylTTViayaVoSSwWbbYQjBxoCZSdi1Nt+bP33qNO2PHKHsPq13k9rzpadesPV+C7e0u2ljeAtJagRahkwxOSxpAArpXDwJ9Br51WFp08+pxDPnwqJVcD9fKdH3+fS2iTmyiCagYtYFsxdFj6NF/Y8gBuLUahM8TfHo64zePjnm+6fF5Rhxzr02koChETTf6gbS+wq4u2Esb3jlo+OPXj/jje3u8u1dxWAhTSYzFU6eBIvUUyVOS2+/icGLVtSppK1TkpQ8t2WtaKSJ5lZut5aUhOPDZQ31jYWUUX7Bd/paMqr8Ou0Zvwt8JxJIDMTkQC1++uOLRvGNpKoI1agRikmr6G4sZBmS15O3DCT84GnG7gBGagJGr3V6UOy6ZRlVc+xNbHaNY+O5swccPz+hsTW+y+I84BFRgyfjsJ58rYhFIDhdVsrgeLDaKVrYmqVx/9rIvosr3QyKZRDCqXT4Yryl2dt8DXiaKkkGxWZHMJjUd2q7pl4FYr5kdNry22/z7A3GuiNN2X0kRkgeraVaL4XjV8/nJnLMu0rmGYNV+UTPE7UOBWjEnnRqE/1CBOK8PAfvWP/of31fTBaMtPzFEawlODedDTuSsCDYZbBJIhiEJSw8XQ+ICw8IaYiFUeVdIKDWhMELtYKcUdseWm5OCuzslr42EIxd4MC25U8N0WDHpVtxwwh/fv8M7NyaMjeYiiHDVw2fP5nz8bMallAzNmJVJbOhJdmAydozKikoMJF3czpQMwdB1lk2b6AaPLQwpJkX/poJkSpJtCKYmGYcYR0qGMCQ1NjdTktvBmzGdVHQ4fL4hxVpMaViv16R2xm5c8r0dy9+7f8hPJzX7BEoxSFFwKfCLszn/6njG54uB1hVYa5G2YxwiR03Brf2GxgimsPQieCsMceD8+SNGdNwsDfdHNe/uT/jje1N+enefn7x+wPfvjLk3Mey7QEOiJlHniqcT2Fg4H4Svrzy/fnLBz7874+MXS571llU5pq8nrI2hS1FvkgQpCRIN1hQYESIJL55g+2uZy79NIB47y4Odmh8eOvaMCqBs26GaKZo8/ywwKChNomaoWCEYYVUIlwY+OVvyzSzQVbv0pmGwJcE49RF95QjXhyMaR7T5MJZgHT7/vReroBcS675DipJNH1htBpwtOZiMqI2yil0M4PX7Js/lXjqQ6Z1QMOQDLBWLZDl1FQ+HyDcXVyTbUJqCxgt1l3DB4KyBGHEmYdNAI54fPbjDzYljZMFJwmyF1bdVWy4xr60ic+npRQPdWYQnPvGMxIURngaYmxyYIyx7WASYRz1mSZgnYYZhniwLDAssSywrUQu92RboJlmlLsEiCatoUJuMwMrAQixzCmYI8+wEdSVwmuBpD1+vej45X/HB8TlfXS5YmopY7xLMKFsZOAwGG9Wgo/Qr7OqEUX/Gnz445C/eOOKPbk15Y1KwL9p6LonY5LGijVoreaYbtcW6FRxChGgUoxvEXNuyJpvVrVAFJFVsstcdg1ZgLnAKPOvg+bLDB6GwQmm2CVHetEXbq4mcMen+q/fJ7wTiSx7NNixsqUVC6HGFU03iQav4YrPizf0d3j0ccavSqYc1Wgx5eVmVG6BExz42aicjOFgb+Gqx5KPTC84QumbCxliGEJWeJ5m6ZBQt3RWJaNXximQpvKPyVoNenYhmIMUe65W2J0k1zjsjrAysrbAxkc4aosudlCzRW1JSSIU1Svzahl6bnfu2remEtocTRgNxv+G13Zq3rlvT20Cc2zNYlcPMowJJUT2RrRo/DBiOVy1fPL/krI10bqRVsSjtK4omTkmsor+vaVZp2xf6Az1Eu1M/+Ef/z/edTnzUNNlZbbFYNexGNBdxCWxQio0ra2JRc+UTTzYDx95xaSytREI/4KPyArXPlTOSqDPcHQs3auHBjuONvRE/uLXHvUnBnnhuNY63Dg/4wa0D7kwqagORgBHD8dXA50+veHS2YEFB5xydS7R0rP2CJBsORmOmhcORICQMJdNRBTRcLjoVuzdKejemRkxNpMCnkphKVGgnKGjFlFgpSbHCh4ohFnqZjVFVnqTzjeQMfdtSbS54sw783bsH/PnNHR6UlgNnsc4xQ3jUe/6XL5/x27MZCxGsK5B2Q9lvcP2aaW24c2OH3cZiFHSbE6Aevz7n9qjg+zf2+Nndm/ydB7f5kwd7vLnfcKMxTIynos/oVm3fhmhYBfWffbgKfPxi4BcPZ/zq0QVfXfVcSMOqGLO2JcuY6BKqPCTqeEUSlcVLER88PnqSGQgmKIz4bxmIJzkQv3fo2LPqISuioCwQNZXPQu6SLFZjjc4dXSKWJlMx4JPTFV9fDLR2xGDKPIfU9/LXHvn9peyskqdU+pzn1Gl7AxtHM9ph1UZm847CVtw8GDMpLCMMdUrYEBDRGZnOC7VVbFFAkzIpBwoskkZsTM2JKfhys+Hb83NcUVMkS7FGBfYLVf+OKWjksD11EXn7zhG3Ro6JgYKIfVnHXtODQOd1klVQEtCJ2jF+drXig/mCz9oN33Q9H19tOOk8F2vPi4uep+cDj+c9jxY9j+Y9jxcdj5c9j5cKanuybHm8bHm83PBs0/Fo0fJ43vJk2fFs3fF01fNk3vJ01vN80XKybvluecW36wXfLFd8NV/y9XzNw1XPo3bg29XA51c9H5+3fHS+5DfPzvjiYs5ltIR6l1ROCVLikyJxLQbpAqPkGcc503jB3Wbgv/3xG/zJnV3uV4Yd1ESmMTq3TmxBQQYjhhgEBouJhQLIMHirY7hBMtBJLL0Yhm0LWgy9V42CHmEV4KILHLeeh5ueL2YtH5/M+Pb5KXU5Yqcpaaxef1CXs21Y3m7hSeuLHIgNLcJVhC9Oznm4WLO0Jb4o8CFQlBUk8O1G7Q7bDa9Pp7x9OOZ2o+6ChQMyaFDBTirzUqCgKYOu98Fp8vDNZs1HsyuOY6AdTzUQ+4RLQmUt5NFCXwS6QrmFKQOyXNA2tEgk1APB9ZACNuswRCzeWFpr2RSG1lk6iaTCUbiSmoLCG4rBUkaHSyVCkdWzAFHQlUXHGttgldBC0aSIHda8ttvw1lHDnVfBWmS1nhyIfeavCxGTBrDKJx4wHC9bPn9+wWmbaIsxvWvwWZFsKx6yTQK2bW69gn+oQKyfi2Sx3/+H778vujNlQIUGgZd8Ln0LFiEOQf0yky7KTgybJKzFskmGxarjxYsLuiFiS4tz2UgC0YXsNTssRKgyqGpaGG5MGl47OuDO0QEPbhxyb7dmt9B2pfohGy4WLU+eX/L8fM7G67kOsYO4xg1LXHvFXh25UTn2rKXGUluHM0IbDYs+sBxWbNIKbwbUuVcrn2h0EYv1WDtgXcI5QYxDTAWmVIk6tApxbLCsMckTAzRx4I3a8LPDMX9yc8p705IbJuIY8BK49IFPzmd8/OyYk8VCK3PfU/cb6m7NNPYcNQV3dqfcmhZIbsdboLawNy15+/Ztvn/niDcPxhzVBhcUIe5Eie96+1k8JctguPDwbA1fnHt+9XDFr759wddnM65MST/eZVPULDGsspxicu66LSTojWtSQlLKGrYeTCRuhdSvw+9/fiC+5hHv1PwoV8QlqDCG/oaXFoNoADZIVg7S4DSIYYHhCuHTFyu+uRjoC72RVJc392z/PcfvC378/kF+JzEmjC0IeoppXMGN6ZiD2iq4LqkfsL7fnEEbk29+vYYVgwouJAvUrBCeAV+uVnx9ekYyFTYVVL2l9hYrBYMk+jQQ7ECSloqO793a57VRyY5R9LvKD778PFEUWLLd9CV36VqB403ir776lg+eH/PZbMYvHx/z9ckFj083fPdwzjffXvHwdMUnL6745HTGpy8u+fzFFZ8/v+SL3z9OLvn46TmfPD3j0+NzPnt+yWfPr/jk2QUfPz3ns+cXfHk248vzGR+fnPLB4xf88tvn/PKb53zw8JRPn874/PmSz58v+ez5jC9Or3iybDled1wNid5VSDUFVxOiIUTNngox1CJUoaP2M27Vnj96cMgPbu5wt3RMkoKERjkIppQ7LKLUP1BfYcFhjOoYtAm6XN1uBNYJ5rkTcBUNF9FwPsB5J5x1cLxKfHvp+ex0zYcncz46vuC3T0/46OFjnj1/zvfu3uW13Zqx1bZwni6qqQ6iSa68WhHrvb4BrhJ8eXrBw/mGpa3wriImwblCAXZ+oCZh2zW3J2PeOBhza2ywEXWjy4hjtqjjbSqbBBP13xryZ324XvPR5RVnWJa2YihGGCkxISOY0UKjt5HeqS8vGCQaddILAhLYyJrgAqVzFOK0A5xU+Y/KQWXVD1gU/DaOiYlPjLLjngl6j/Up4ZO2uUXSta+63okaCPVMvloRv2xNT36nItY7L4kWkwmtiE3yiNW2eIfl6arj05MZp52wKSb0rsaLy3FPu7Gaqumf9etX5v5/60fO+DHY7/2jf/L+7//17z9EwNiXQvnGGJwzWKtvL8SIH3qGzYZ2vWDTtsw2nstNYj4Y1sniXRbvsMJgtJ2lMzRdkE4EYxK7lWPHGXVQipEhtiCC7xOhT5S2ZG+6y43pmN0ysSs9u37FzmbOHQv3yoIbRcVYClXTMkIooXWRedxw5c/x5ZCtD1XoXY8eKVuk7Em2pw8tPnn1pYxBEdFxg4kLHJcUaY7pl8TZnKPo+f604o9uTvnR0ZjXK8MoBkxQyMRy0/LhZ19w8uIFhMBuVXBrXPH6uOLBpOaNnYa39ifc359wMCro40AUT5SBaAZGRcnINUxdQZm091QUeg07hDWSg5LlBcKzHp6uhW9mA796eMJXp5ccr5bMSfRVRVs6VgitCKFQGUBNkXQLNyn7RKfMCkyaE5JniOkPFIi3ren960Cca9aEtoXyktdATA7Eqg3sxbDEMkP47MWSby86BlcRjGIZ8s77N37kT6Sbgqg3rgRP4XsOKse9nYKDwlCmgCXm1qMjicucSv09FijwqFSLhViyMsKJwFfLlm9enJNMg0k1dnDYoETljQl09ATbI6ljJD1v7+9yf1RxaA1VitgQkZywbEUHXs3eybK1vdF25AffPOK7qznng+fZxRwpxsRUsFp4VptIWzU8k8SJEc7EcI7lMlkuU8FlKjLArdIj1Vwmfb6g4iyVPPeWZ154nhwvpOTc1FzKlLnZZ1PeZGheY6hvs3H7zOKYWShZUdPZEctg6HCkssE1Y4p6RMIy+KDiNTFRGqGyBulX1HHNW0c1f+9HD3i9qTgQQ+EjEgKl1QJgW12J0YlpwhClIFpLtJLlGLVjMEe7R09aeLiJfLWIfHbl+eSs58MXHb94POPXxys+OFnz2xdzPjlf8O18zfFm4MIH2piojOHHd1/j7rRiapVOaQjXFXFKQkwZzb4t9HIruc2B+IsXFzojtg3e1iAWawv9PEFn3KZtudFUPNgf8drUUUdN2K2kTA/SmYQgSllL8v8j77+eLcmyND/st7ZwccRVITJEysrM0l1VUz0YgiRIg8GMMBAk8E7jC/89Go1PhIFGGswwwBhmprunqrp0ahWRoa88yt234sPa50Z0o62nuzObHM54mOeNzLz33HPct+9viW99H6L8SgqQLDwaAh9eDjwNcFlaSrPA2R4TLZL12ee6x6uzC2RznQ23SYDMVgLZgrUqC7zHB99YnAfJI+zWHEtmMQ60Vyu61ZrZFJgZQ+stpTHVA1tHoTQHfRX0FKx0hEiBWMlafxMQvyRr7TPiAlWII4FR0uGOhoebyB+eXvF0UiAOtqXUIERFQidsUWvJvROftoFe7hPf7LjeZf7uQCxGyEmprc4ZvBfNGkWjvGvTeWfYxcTZesfTyw3PVlvOdxPbbJicY3LCVLWBy144QbcwSo4cVEk/BwiZWIJ6vnrH0bzlzs0Fb96Z8+ZrPa/fmPPm8ZI3Fz13HLw1n/HWYsnNtqPBEpOaq+OE5IXLuOXh88+Y0pYSA3kaSOOGNK3I4wVpOiWP5+TpCgk7TJywU8THQBtH+rxjVjb0ZcW8bJinicNUeGfe8+MbB/z45pzvLA0nIvgQKZNmLCElzq6umPU991+7xftv3OWHb7zGj+8e84M7x3zvtWPevXHInWVXvWgrUUGUvdmbFqLgRR+sWHSDHasV4wrhHMPXIfHhixV/+cVz/uyDh/zy80c82o1snSP2PaHr2BrDFgjeU5qWYlTjWjOpGnsWdP6v7EG4XGdX+9KtPub6z28CxD/6m4AY/g5ArL3Kfywgpq57a5RN7MxLjdsDC+/enHGzc2q7adArV0kdqZa999fTUcEaC9kzGOGZwGfrHZ88PSObHugw0WGyozjLYDNT5T9YGZkReWs54+1lx01n6QrYpIIe15n4Puuqv39/vyYDW4GPHr3g4dWWqywE27E8uYPxc0J0RGlJiyVX84Zt3zJ2HbHtCe2M1MxIzZzkF6RGz9wdEP2CqVkQuwWhWzD2M3btjF3XMfZzxmbBrswZyoLJHJL9IaVZEMycobQM2TMWT7INdrbAtD3SdJimBeOIMasWdx21aqzBG8jDihOf+PFrB/zTu4fcFKHPCZdUtMRZNYwvCBhdRUWgYMniCGIYRPvalwJPQ+HLq4GPnl3xwdNL/vh8xQfPN3zwYssHpwMfnk98uYUHo+HBWHg4Zp6GzHmGjSgRDes48I4f3b3F/UXDgVNLVlOirl1RtaeCAnHRQp8GSxWIzwvaI74aWV0DsarH5FKgKG3NTSMnjeet4xlvHrUsqoiKk3Q9p6vQKRiqoEZt7RjUxvVZKny6iXxxueXKdCQ3x5oWXyxEJV8ZlHeQtSeEKcqObpLgslCkELwS7lJWb28rQuMM3hVMGijDFXZzwU3JHI0DB1t1o5uniMuBKQ5s4o6NBJLV6ySFKkfyzYE41W1Ae8S6H8Xqq/VwG/nD05UCsZsTbKsSw+q1hiUoGFcWvdQARytm33x/+XsDMVTv3Kx5k6l2coVrv2s9KuMyGMsojk0WzofAi/XA8/XA8+3Ii2HiMmaib0hWgdgCM9E+4dwILkWkmltHCmI8nbUcdI7Dmeeod9ycWV6be+4vet5YzHljseD+YsGd+YJF0yEFpqhGE0pAg+Ij3kdeO15y7/CI+4sl95cd95YN95cN95aG+0vH/XnDnc5xr++53815o5vzxqznrXnHG/OGNxeON+aetxYz3j864kc3D/mTW3PeO3Dc3o8TTNqnLgUwhqZtuXvzJm/evsnbN45463DGm7OWe7OWu7OW49bTVRQ0kvFSByRKpK16wsZaoqgi1M7CsxE+u9jxh2en/ObRM373+JQPHl/y2Wng6zWcRsOu9YRZS2gbtsawLoXROmw3B98wpsI4Ttdax5oN15GhoqIRZn+D5aXR+38IQEwNQK0xOKuuLyZMzEl8986S27OGFrU+1DeqvzublxmxYd/PzVWIxDMa4YXAZ+uBT5+ekioQS9LRrGwNkysECRQbcCYwJ3Cn9bx9NOd24+nraLJqJ1mK0dL0futS4NGvQWCdhGfrwMPzNS+GgD+4gVscM+SGbbSMeHbeseuFsakcEatcjyKOIp4sniINWTwJTyjChBCMJTeNGoQ0jtgYordk22BlRggtw2gYx0LKRv1xbTVg92p2L76phCkhlkKsBiY5F4zo9ffW6GY6rXlz2fKnr5/w/aXnSMCNE64UGudBh49AdE0JlYAoaoSwRTgv8Hgq/OHZOX94esEfn5zxweMzPnlxxVdXE492hafB8ix5TmnY9jOu2o4r17JyLVvXMDjHaNQeUxAWAn9y5wZvLByHVsliUsLLjLg+J4Vamn4FiK9L088u+OpqYm16ouspsve+1jvbUPBx5NAZ3jzqeOdkxoFRLQdtUcWaEVfwRJXoTNIauFQG/TmWh6Hwx6enbPyMUVqsODrjKKPgi+4FCKopXf/YIvisX7NAbA0ThRwTkjONCF4yJu5wYcM8T9x28N6y5/35jO8dzHn/aMHd+RwnhWHasso7hqZgugawSBa0tvMtAvG+t2uECcMWz4NN4PfPVjwdDYOfE11TM3IFYgXhUIMp7SUUKnnn/xdAfG3hJArCVEJPikX1cYtmyklgkyK57ZD5AtoZozguh8jz9ZanVxseX255th1ZFVilwGbYwRSYCSyMpTdAHCh5ooioqUMxWDQj9EV1fH2GuYFDB8eN49ZiwXHbMW9anG1qyTypMLAYihT61vDmzVu8e+s2371xm+/fPOYHNw/4wa0DfnjrgB/eOuSHtw75/o0j3j9Y8oOjY354cswPjo/44ckB3z9Z8v2TOe+fLHj/ZMn3To74wc1jvncy550Dy61GZ6ltBlKtFBiDWMd8PuPk4ICjtmVhhQVcq2N1KOjlnNW7tcq7lTSSU6QxHVEsq5B5uo58dTny2eWWPzwb+dXXL/jVg0f87tFzvjjb8mJ0jPYEFq8hB8dsvLCxsC6ZbSkavTcduOpgGjOlCiQYtCSt5gYVhK/hsJoi/IcCxPXHC1kDTxEkZ3yKNGni/XuH3F609EVdX/QaKLNTAVFfw0KV31cSSU6OyQhnBj5b7fjkyRlBOjCtsvgrEAdbiCYiNuFMpC+BY0m8fXzInb5hXlAdbIy+z3pvKkfrJRiL+kxvM0ym4eHZFY8uNnRHt9hJy+VY2GXPaBs2kog+ksxEJkHem9aIThlkQ8n695QKMSZiTOSSaks/a0ulBHIOSCy0yeImgxkzJiRsQhWIJSkjvF7bVDIhRqYUCXVPEYwKkRhVBNNrGOhL4Hu35vzT1w953cEh4MZBWelNoyCOaubrCJFekCKeSYTLAl9PhY/PB/7VJ1/x+8cv+OJ8zaPVyOkkrKVjqNMEU7/Q7L5vGBvH4BumxhN8ZdvXkrctwqEUfnbviDcXKrriyUgOKPWiro9rOVLdz8tfK01//PQlEAfXk8URsyoSWit4KTQpMCfx+kHHuzcXyhkoCiAieyDW3ynF6ETMNX0YpgRbIzwn8/sn52z9nCErYXdmPWXUjNfWV9m/Zb0jCtCmqBzwZHXflwJt9UWWcYsZVhyYyFtHHT+5d8g/uXXEz24f8bM7R/z4zgFvnBwwn1lKI4QGphays+SkfWgD1wpX19fuHwDE1wRGMlIiGMOEZYPj4WbiD8/WPBuFwc0JtiG/AsR2by0pWo7W/WhP5PqG+wvsN0r4uwKxiLzSFzbX+tMasdZ+hFG6f3BC8o5kvbpZuFY3fePZZbiaAqebNV+/eM6zF6e8ePKU4fIKXwpHjWPpjLLbBLJvGaRhNalVn4oX6OaQlfys+38BL2CrBzJ76rnTTGGvztRhOKTlGM8tEe5YuOvgnt+fwl3vuN80fKef8c6s4515w9tzy1tz4c25cH9muNt77s5a7vaeO63hpoelVJnGou8HIxRryd6RnTIvrQhZkm5ydYHl661U2ZNSyWxSAikM5JixvuNySnz8bMWvvjjjX3/6nP/xw8f85ukpX202XIgh9geYxU3M7CbZHjGVnm2BjYms08QISNNp700cu91EmBJt07Gcz8khKUG3gp7RgYF9fqX3oxL5/oMA4hqAxpxwzlZh+kxnBDNuefv2MXeWLUtRFSYjeh3KnlNZNy8NbrTCAJYcDdEJFwa+WO/45PEpkzRk05JLHZ2zlmAKySTEJrxEmjTQTwNvnxxzZ9GzEKGpmyLoNS/13uynNPX91PJ0ATdzPLvc8PhsC/2SdRTWUcjNDJnNyQ6si1hJOiWByhVanJ5FN2srlqYSIZ1RopA3BVsmTBogbPBhRz9N9KuB14zhrYOONw4bbjaFPg7YYYeMO8q4I8dBZTH3JVUjWOdw+xE/DCUnUpgwBI47w0/uzPjZrY6bAouU8VPAGEOxnpQL2VQg1iITFB1RGkV4GuDjq5HfPj3ld8/OeTwVVrQKfO0C6RdIN1dTDueYDGxiqK5nSsDMRp8PA3ixzIzlthP+9P6StxaWpRS1kS3hWlxl/1Ttj79emtaM+JKvLic2dkZwPcU0TEln6r23eMn4NNGGkbuLlndvHWr2LQVTWfRF9jP4osFM1pNK2EoFJgcXJvPF5cgqW8ZsMcXT4ZGoGa9UTkgyhSSqtAhS9aMV5EYKGKGzjpmADyNuWLMk8ObxjJ++dZP/xTtH/Pi45TsLw722cLOBG3M4vtlyePMIt5yxzoGzqxUp+Tqy+O0Ase5VutOaayB2bDE82Ab++GzLs9Ew+BnRthSjv1dPlXQF/ezKpnb1Hn7z/aVulHpN//r/+psOqeL316dR8pa1VtWAnMMYNbrvFh3RWC7HwOkY2IhgD2bM79xkfvd1mlv3mObHPI/CF+cbPnt8xidfPObhg2fEoSDF4l2HcR0TniuEp2Ph6y28CNrXGRykFrKv83xG5xJXwEU9VyIEo8IDsYrWL7H0BQ4S3EjwWoD7Ad4I8FaCN0vmDSL3iNyUzAlwkuAkwNEIywHmI/QBugBdhGUJzPKAi5EUYIg6T7lxsG1g52BnhdEaFT6oVAA1KjSsM1wVnds8HzPnlxMlGjwtM79k2R1R8OyAL1dX/PLJ1/zlxQuezDteHCw5Wyy57BZc2Z6r6LjawnpT2G4y211hTEK0Daad47sF1nXkLOrRnKA1wtyjEfAeiPfBRIXFfab1arb1H8RRM0pxjilnhpigadklON8WtkHtFJWrqQ+maAymwcM+gNhvJBUppQotdBmaXCUlKzEm2MJkMoGsZTXRkbKQ4Hy943wzsQ7KsdjfD+r90t9Xaj9LT4MGASbBzMD9oyV3l0vy1YqyHTApa9Do9eF2MdNNmXbKtFO5FvqxsWBSwcSCjZmmwFyEAxEOySyngcX6kvnFKSerC+4OK95nw39yAv/1dxr+zz9x/F9+Lvyffur4r7875z97q+NPb8C73Y5b5ZKjsubABBYe+sbirNXZ2TrTHbMQi3JGZr1n2TV0QFcKMqhNJyJV5GRfw9E7UvM4SlXOXsWgWt/PzzhzCzbL15gO71AObmPnRzjfYkuEcQXbF8jwjNZc4dwKsVeI6DS1lC2EHWUcKWNAQqK1KoupYWTNGKohA3Uv/dtajNdbc0ENMTDkrHcyW0cUDeo3MXA1BtYBHT28/sn9a+wf4PJK7xBIicZkFg5uN57v37nJsaga4jxn0nbESVGik1E3JZVu9WQchT0Q6crOIWKL6t+3OdFMA8cW3rt1zM/evsWP7855wxmOBfqUke1EOt/AKnBS4Ls9/OjA81bvmQ1bmhQw39Ieo1dPg7Hr+wEV1F9yy1X/3OroZg2WtIalnI8oXo00xFcO9bd//J1etdRecMqQkn6l6ESPc4Kt9Z+cCzFqhCSNA++IdXxoyJboGszigPbkNv7kNVK3JEjLOAlxLPS+Q4ohFFhTeBYSH59P/PkXT/jvf/8J/93vPuV/+Ohr/uzLJ/zh9JIHU+IZcAqcV3GBU+AZqlm7RdghDFEdHZtiaDP0WYXSuwS+KsH4XOiK+onqvKfa3+0ZxI5qrSbQ1CygNRmXB1wZEUlkA6OFtVWhhHOBU6nvby94gOEStSJ7sEv85vEF//KLc/67Pz7h//2Lj/lXv/2ULx5fcrXJpNRgTE8SxySOq1K4MMKqbzhtHOdtw1XXs2tnjF7JHcW0iOh4hncO72d03QJjGsYhsl3vIMLhfMlBPycPmYvnK0yqBI2iZel9XrXPgjUi/nYekP//OQRjDc57YoExF/AtE4bVlBljBUr1qoO6yeo1rFtVoca7ld1cNwgPtBlVUks6N1lEGapRVOFMZ5uFXAxTgqshsAqZTdaeYnhlQ69QX4c8lPVpCBgiXgoLDwcG3r5xzPuv3aIbBxZk5nUmueQAOeGzpc2ONnt8VvlWg0fEKXGo+j2P40gKEy4n+pJZpMAyjNwIA/dK4v3W8fOjnv/Dd0/4z9/q+GeH8OMO/slC+E/vG/733+35T78z47uHhcWoZiVt3ODziKRAioFpCoSYKOjcvfeenKP6DKvNGr4UZHwJxFBq++yV21gBrdSp612MvFhveHh+xWlyXMqclczYlo4hW6aYiVPAxJGmjHSMdLKjlS0NW1rZ0stAz8hMAnOJLCWzsEJXs3BBR/+k7Pu1Gi1JvVmvvr2/Dr57Vyr9o8SzjFRVL1u1/xNXU2QTte0QQed8K2GPGv7pO6nPrWTIA84EOlM48Zbv3p5zkrbcJHJcIrK50pK6qAJWNFXG0ygoFfbmDjVwT4k2J9oYaHZb2t2Gu63nT+4f8NO7C173gokTpgRaG+nbQtsbOom0Sf2g7zWO7x0d8sPbt1lah9Qq6z/8qJ+8PodK/Ip/ZfToeh+7LiPVa64XSttIqJ1jlIYgrQJxrdR928ffqTTNdWAl1wHWPsgq9R+llGtpQqkPw15kXmItJwsUa5DWY7sGJ8IsZG7ZlvdObvH+rRvMvc5+rcTw9VT4y6cDv3t8wadPn/Pl+QUPrlY8uLriq9WaL67WfHq55rPLLQ82kSeT8HiEr9eBp1cjqzFRjMdbQ2sM1mgU50qd8RMdkZrGkQhM3rIWywXClQiXUWX7skWDgykSDGQvFFvABDwTIhCNZ2McZ1lVdr7awFdreLApfLUOfH52xVdnKz55cc5Hz3XW8vePzvj91+d88Hzgkxc7vnp+wfnZJfP5gqPDGbNOje63WR+Gr9YDn28jz7FcOM/ONyTnVOULh63lJUODMZUtbjVDkAwSCyZCI5bOeFwx5CmRp4Q32peRyjClsiVLJWjlKjLy6sa/3yr0kf/3rzQNUKTgvaMUJb40gIxb7ix73j5qudMbfFVx2l+TfflRaoVaN1Z9vZSE7GBn4NHVjo+/PiU2PdG3DFkFI2gasIaCzq17U+ikEFaXHHjH/YMZd+bNtZeEqR+3kMhpwkjCisb55EQME7JnfjeqLLbaBoZcGEshilCsWqC2CWz2SGnItCQaorREs1ceU+WpmBPGCq2DpkTstMUNKw7JvHm05E/u3uaf3j3kT28teavJnEhgWTKHkrjRJG60lkWvfrshBS62azYxMhXVidfZF6s+vCnjBBpbiOOKt28u+d7xgje9cMsU3G6nD/OeD1K0UmH2pWl0TcbKlH64m/jwxRWfnG/Zzm6ycweE7CHty676HBhVXcQ6VGkqDhAHfInMKcxCpB9Hjgrc7zu+e7LgZ3c6bjVG3bHYZ8Ol7pG6uV+v69pGCEVlQTcCf3x0yuenW7amIzdz3fiNUS3vojrYjWTMtGNWEq/NWt446pgZweyZs/U5HKdEyQYnHitGs3IzUHwkGpjEka1wdTUSh8i03pF2E13TkKWobKkr1QJR9wIpgksFn1T/3dtCS6IfdxwMA/cax4/u3OCn95e8M7cspCAl0EmgkYC3CWtUuCfVFiJWq4TbyfD15cRVFDBGuRV1L1GSlEXE4usc8f1DNX14vYeuZHrRPLZaDyPGqDgIsdZCVHgn4FhjeLwrfHEReLZJKqUq2hXX4pAhp0SIhSge/BzjW6jaCt/O7nIdgv3dgfhvOv46KGuiH6+jQEFlMX1W0gT7Dd0KplGJwEXIvNEt+f6t29xfNMxbZWuuxfLVVPjFoy1fbDKPdwPPpoHnaeJ5Dny12fDx2SUfna74+HzHJ5eRz1aZL1eJL08HHjxf8fR8wzAmGoTeq8AIokGDq6Mp0zTx9PSMr1cbHoyBL2LhsynzxS7wxVXifIqsQuDFesvj03MGidAaiisk5YxSjGeQlmcRPrmc+M3jkd88Cfzx+cTHZxOfnG754PEL/vj0jA8eP+fDxy/44PEZH59ueLgtPA6OM1p2xbIZdhwcHnDn1gFHc08uWnqyVngyFD7fBJ6MkbVrmJxX/VkEkwWTRBWVsGAcWQqpRMhZh/6LpRGLz4LEjMSMLdBYW6FDe8GIuq1ohvYShMs+67tePv++A7EqAYuoqIIVSx4G2hy4NWv5znHLvZnDF92MVAWo6ubWX6+bul4rUK5DtjpS9HQz8NnjcybfMtmGTS5MGFzXq5QiBch4C70V0nZDGQZem894/WSpTNkCzoAxRXWS84Q1GStFr2dOxBQwou5LxioY+3bGdopshoEhjvp7jMFOgkkWirKko3iC8URjanakWbtxoq5AcQfjCjdtOJLEW0cLfnjvNX76+k1+fNJzTwrLtKMrI70kZgR8CroOnaNddJi+48vnp1yOgVEsybXYdoaxnpwyOURMyTQmU6YN79w+4LsnM173cFMKdpr0IjstZ6esAhSmykzuy36x6hc83k58drbiq6uJtLjDZBfkYnHF4K3DG3ftZatBKaQcyTHgySyMcAC02y3NZsUNCt+9cchP7x/znUPD0qhdoZKnStU5RsufqF8x+0SgQMgwGWFr4A8PnvPZiw07N4N2QcyC9Z5sCkPQXvqssZgwYnY7Dk3mvTsnzJw2f0upfJ1imELEiMVb7bmWEhA/ke1IIBMrsLW+Y9qMDJcbJGVKyURTiFXMIzrtuRtRH+omFZqQaFKkdxk7rOg2K+5Zy0/v3uLnbxzz9oHjwBY8hc4knKj6uo4GKYchFSXjWWuYQubJ+cQnZwMXyVCsrTKuiiRFhIJDxGpxfNpy76Dn/QrEDZle9AqXhFq4eqtEKwKUoLuJGBKeVVEgfngReHS+IbsOjMNQaK1g0NG5XCzie6TpSaoipaNQ+33qGx3fEhC/ekgtvO0VUfZbj81Kdze1h56ryEAy4FPiOAnvzBZ89+SAN+ZCY1Tp5lLgyzHzi6cTjya4KIVd4wnznnHWs/YNa9ey8T1r23EahcergSebgYuQWI+R07NLHn39lO060nctR4ctApSS8KIl2NV2yydPnvGvP/2Sf/ngOb86Hfn9ReIvH2349HTDo9MND5+c8fDRI07PHyFupF1afCvkMjHkiSwzLqThk9XIv/nyBX/xxTM+eH7JV+sdj3cTT3cj5yFwmTKrYtmall2zZOyOGGbHDLMTQn9I9A1jCiwOZty5Oed45vAv7xUvRsPDVeDJamRrPMl4He0or1rRKVM7G0Oum7POA4tu2lV39pqUVaN/BY793OCemKUP4P7f+SsgrHf433cgFjLWWpXfixmTdQO6czDj/Rsd92aWRgqd7OcM98Scvx606JGNCiqMAqfryNdnG86myE4sg1iCcUjTQBGcNWohmAImRxpRxnFnew67JbfnRjfHyg42pmoOl1x7kgVjDY3zWKPs25j0dRcLj++WjNPEZnPFOG6xMeGmrPeImmlrg41iiqqaVVuLmU/k4Yzp4gl2e8rtFn58/yZ/+s59fnT3gNfnwiFwIAmbxtorzZD1GlL1vydjWIvhq/MNl9mwk4YR1QBHLBSwJaMdyogj8NpixjvLlrd69RB2YaoGDS8zYuuNkkxB3Z8KZBF2As83I188v+Lh2YbUn5CkRbJR1q9RTeuUYUqFKRVCKoSk9pWHfc9R0zJLEX91Rb/bcq9z/OC1I35wZ86hF7UdzErUUhEJTa3FeKRa7VEr6UrkqiJHBT5+fM6Di5Gd7ZFurvO5xpAkE0rASKFxBplGfAwc+oZbB0cc91bJoEUNGoxxON/gXYPFQC7kNCE+kOxIIJBF8NLSe8/MejzV1GccCASiSSSXKbbgTKEh0+VMHxN9iLRpwqUNZnPOcQp8/+iAf/bOXX58Wz2zJWWESGsyhbEmLgUnOrKWqNrdGNZD5tOnaz6+mrgQV4FYO7K6DwgFDRxcyZhhw91lx3s3ZrwxUzvenoSljtomsM7p5kFUw4ccwViSNKyz4ek68MWzKx69uALb6IicJFyayOMOcmI2W9AvliTg4mKLk4KXumd+4+Pl7vDtAnFJ+Kwbv+48BpuFps6dUSPMZAoJ3dBuYfnusuP7J47bXhfo1sC5gU+HxJ8/3PA0WFbWMHYNYT5n6DrWxrM2np20jH5O7pdsimUwjuw7ivMMY2S9HrDScnSw5OSwpbNgTMLWktGI4emY+N3zK355uuOD0fEwz/lqNDwf4OxqzfnZC4bNGbM28NrNnpvHLTOvmU+UnkF6HifDH883/PrrUz6+GDg3Dbtuzq7p2BjLFsNgG0bXMTYzFTtolmz9go2dsTENWwqTCYiHOzd67iwaenSRWWCXLU+vAl+/WDEW7dk5jI5tFKrvq86ARqcZrckJlwu2OqJoz7sSeNAFJej3IpBrNryXOc2imfBe9rFCTD3//QZiIWMkY42QswrauJTpSuLOwYz3jlvuzQyqZr6vBFGNAoyW8l65ZlRv8ygwVZOF03XkwfklW7FMzhOsbtZSwFWt7xQmSorMZi0lRMb1js4U3r6zpDGi4ypZ+8xG651K5LgWNIYpBKzxNNbRWmis0HhD37Y03iFphGFLL9CSsUWV5EhbStkgeYNhg2ONLytkeEGfr3itS7x/a8ZP37zBz9++zQ9udLzRCkcCHQUvhpKMqh7bFqxC6mQaRnEMlWT52WXkLDlW2bHJliQOa6yOf5WML1FPyRw2lrcWju/M/bXrjhiUSVozWbEKxIL2abMoQEURrqbE86uBs/XIJgjTmGAK2FQwlaQTsQRpSNKQbYdvFki2pO1IulzhVmtulMy7h3N+cv82P753wtuHnqUTGtGEwonOrSriGjBOs+KaJEsNnqizvasCnz274sHFwIYGaWfElFRMSTKhRIpkvDOQIi5on7UX4d5xR+fVHjTmyjwXDSpIhRISxmaMU4vDSMYUQycNS2NYdo6+8RiEXCKhTGRJYFTTwcSJJox000g/TSziRJ8H+rLhTu/40e0b/Pzea/zgZsvdXjiw0BnBVhAuRKKqQuBoyTjGJPqcG8PFLvGHR5d8sk1cmObfDsTjhjvLjvdvzHhzpqOgTaouzHXE7hqIS1IQzhExqq42YDkfEk8vd1yu1TdLUsDGgTaPutYotK7FN43OJEdzbbby7zQQ26JG0ALKOqtC+D7VmbQ98cckIgEXRm4Xw3cXDe8dWg7Ra7Z28MzCx7vIL7684iw7Bu8JXUPo1KJuh2XKqghUbAd+RrYNxTdka4mFqtPa0PheZ55j5MaNlla0H2aMQZyjdC0XZs6j0vGkdKz8AhbHFPGw29HFgTsHDT988xbvv36Tm/OWRgyZhq3MeRQNv39xxV8+eM7HL1ac0ZCXx+T5AaPzDAi0HaXpKE1P9p1a9NmO0Xh2OIYCQSK5KZQ88PpRz1uHHUdUm7NSy5lXI188XbFFHYSM7D1/FDiSQHTq3ARqCO5eHUvax0h7oQNRENZqRf26B+FajtaS9B6I97/rPwQg1ofOIOSkSZ0rhbZk7ix73jtpuNcLLaUCcazXwSjq/rVSPrUaFNHZ3ilZVsHw8dNnbBCmpiU45QVYLJK0H0XJ5JJou4aUIrvVBodw784tll5/TanX1RdRclip96MUUs6MMemzYNTqjqxGAUe942jRsuxbZgZ6SXQm4MsOCSuYLjHTJS5f0bNlKTsOzcBNP/HOcctP3rjBn755m5/eOuLdecstV1hKUP9fDCkbQtL5alut/LJRIYwdwho4z/DR+cTzSbhMqlufrccalStxWVWYbEk4Cj2Zt5eedw87WlE2uI6taA9TLfVMvfwFqilGMUrXicUwZU/Klt0YKEl9k33RjEpEAIMYi3Oexuq9yJst+fISv1lzy8IPX7vBP333Hj99/QZvLVsWTjkETpSla69nUHVN6PiNaqxlJatjqxZyQJ2vvjpd8/By4CpZaHtKzohVT+uxqHevtRZTUCWxKWJD4v7NAw5mrmbFul59nb+WVPSx8UKQQV9D6lhaEbxYOmfpGst81jKb90xhB5JUWCgO2GFDO2zppx3LGDgskUMbeOe1JT964xY/vX+TH96c8VpjWOaq9GUEIRHLqB7xJZEoiDhiNgxBFf2CMTzdRf7y4Tmfj7By/3YgttOW1xYt7510vDU3zJC6Rso1Act4FeAu1QJRStGmv/EksQxFGJIhF0OcRuJmhR1XzMrE0oGEke1qxfpqwzgVjDisybXc/e8qENfNUjNfQzKqf2uKaGO/lj2TTUQTSTLiwo47WXh/5nln7pjXfXjt4JEtfHi54/cPLtgUT/SO1Dqi9UzFkJJAdljU0Jqk3shiDSEnQowYa+lmc0Q8F5drLq9W3Lh5wLJ1zIwKoguGpvMwn3MlPaeTZRuh9R02RJbTjjd7x0/v3eRPv3OXtw4PmRndaEc6zvD88TLwlw+e8+GTc55PEPsDyuyAYBt2WWc4xXmNiMWRRR0+0iuyhEihuAxNJk9r3lzMeH854zULy1oVTBaergY+frxhhSFah9TejW44WlaOVshWZ5JdUplK0V1KuzPVMq9I0fLzdRl6TyDUcvRLKbc9COvv+Q8CiAvXwiqGogpyWQVl2pJ0EzhWO8+eQk+oQAzsjRf22ZleDoooMSqis5wFYZvhw0fPuEyFsWlJXkt2jXjCoBKpzjtS2ZPoIE0JyYV+1nN40OCNKAu7CD4bTDJVGtFSSiHkAsaRihBjoqSCt5bWQG9h3lhOZi135y33DlruH/fcO265e+i5d2B5/dDznZOe927O+N7NOd8/WfAnNw/48a1DfnhzyfsHHW94w02TWe6dpkrCFiFQCWhGpysKajEYEAZgA7zImd8+XvN0KKyKZxRPsU1dNwWbE64kNcnLCZ8jbxy2vHMyU/6HqGiK3iQV0Ml579WsD08W7Q+C+gr7pqFrGsI04Um0EnFpxOSRHEdKGCCOuKwCLrK6YhFH7jaO944W/PjOCT978yY/vHPIG/OGhZWaftSKRFYxD8k1e5J6TzRnU32AylMBJYNeJXi8Gvn6cuBsyCq8Q0EMBKPF3UjWMTNjcQnslLBT4mS+4HDWMGsFJ4aclVei9rVgEcQJoUwglcCFJcWIZK2+9N4w6yyH84ajznDnsNO1cNDxxqLnzeWM7xzNeO/mgvduzXn3tQV/cv+Y924d8cZBy51GKyFNAQmRFCZyiRgrOLHqVZDA4MnSMhVHsJarInx6FfnFw+d8nSxb1ypZ628BYh8GbvWOd4873lpaZhRc0tK9qd8ndm+Ho8+NEr9eViaysYjzzPqGk7njZOa5u+x459aCd24vOWo9NiWV/DQtXdsoIZJvS2/65U767QHx/k/R2b9o1NtzL4lmSqGYTLJRTzPh48A9hO/2LW/1nq4yQDceHsSJP55e8sWTFZO0JO9JVp11UlYKZJMcHZ42CTJFGtEh/kKmSEacxTjPlIXVdsd2HGl8x9Gi4aBVEllJqu7TtMIgns1U2K23TFcr2t2G+ybzk5tL/vTNW/zw9pIj4xEg4liVls8G4bdPd3zw+JJnm0BsZjA7IBjHmNUX2RgtR+lmXqUvsy4tQ9G+gy1Ylykuwbji7bble8s5b7TCQpXriA6ebCc+fLbjLBdG55SFXstbFB13SUalCU0RTNYydKnl52IUfNP+66tgfJ0FV+TQG4tQmb/XILz/+u8vEIuGk9dArDPABofQ5MitWcN3jj33Z4YZhZ7pZUZcQVj1u/XqUHvve/4mtUc4lKyeqCEyNi2xaYnZ0JiGaTtixODbliyFXQwY5/DGUmJiGrfMjzpmrWNpDAtjcNkgI0h5abSeEGzTM+bENE2YXOid12se1bP2sBHuzxvuH81442TBmzeXvHNrybs3l3z/9hE/fO2YH98+5kc3jvjx8RE/Ojzk3VnHXVc4JrIksiQzQ/u5pqjnd7KOuLeF3FfN0YAkVCB+Ggu/+OKUp0NhZzui6yjW11GejM0JX9dPCRGXIncOO964OWcm0KLEMcmaDYmx5KRAbCwUSfvtU0HICL0X5q3DCsy8MLeJViZ8mXBlwJeBrkws0OzvpEy8e9DxT14/4T965xY/ff2I75y03GwMHQUhqwyl1Fnxolap+4lUqH66lZmbo7Y8lIxUCAjrDKdD4tHVjqebCVyLqQFzkMJYA7niVLioweAj2JDwUVi2LYdzx8yBEVGddMAVnRRBtE8u4nQcLRdSSJAz3ui68gK9Ldw/6HnreM7bx3Peu7nk/RuHfP/WId9/7ZDv3Tng/TtL3ru95O1Fy0ljWFBYZGFe+Qp5DMRpQqTQ+QYrhpIyJlkcLcZ0ROfYGOHhWPjtiw2/evKcU+mYXPdvB+I4cqM1vH3U8PahtihsmipXQu1TixWmvGfQG23b1B0mYxBjaBrDwczz+s05b9065N3bR3zv7hHfub3gtYMFJ4uew1lP4xpCCEw5EOuc9Tc/6r75bQIxUh/+oplwsM/wpAwAAFtzSURBVIZkdCauyTrfWEyqQBzILtDliTet4/vzjjdaTxNBPKw9fD6s+MOzZzw9m0imI7vqmoIyvVyy9NkyT5ZZFvoaOYvJ2NbgOk+2whATUyrYpsM0HZfrHV0/46hzzKxoOV0yzgjFGYw35Gnk4tEDjgn88GTOn94/4Yd3FtxstOyUcAx4Ho/w548nPni25cl6ZDQeMzugNA27mIi50DQNfddVLVaQCkSSEqaW3FyJ2pMjgo24ccObtvCDueedecssKhiNFr4eEh9fTDwKgZ1zZKczrApUeit0rlVNzyW/zIAVcF+C7x6Mr0vSf6UfvIdXlUN4FVD00fh2gPjH/84Csa5ZV0X7wSKi5DkXJ250jndOPG/MLYtrIN4rptVsuErhSf1cCsTq/iK1LLkrmS/OBx6vBzbWqdFCggavma+xuMaTDeziiHGWzrcQE+vVGWImZrOGo7bhQFQu1WxBIpoCNBZpPAGhWIOzjgaj/dBYNMOvtqQW7Vto+bdwYIQbznLLO25Zxy0x3EA4oXBSCkcIS4F5KfTF0IrO31MMJVlyUZEQqVmZyZmSIqVERIQohqtSeLAN/PLzJ5xOwuRnJN9TjNdgpWRVUirqr1tCwpfEQe85WfSctJZe5HrTtqgSF6Von9hkdCo7knJC3bprX98Ki77lcOE5mlkOe8vJwnFr6bmzbLh/2PD2QcO7Rx0/u3PEz+8f8NM7Hd8/MdzvdC7bC9dGCyI6/uSM0BihsQartW4NxNEkBYSSqc9GUZayGNYFrpLw6Grk0eWO4hqMgUxiMoXJG5JzpKog6IulS4ILibRe09JwMOtZznWeWe1AKidkXyEwHkTH8XLSJ6zxHmfrOi2ZFEY6scxEWCKcALcM3HJw08ORhYVAT6ErSlScU2pWWh9REZy3OGe1X41gk8FnjzcdYi1B4GmCP1xu+cWT53x0uWLjZiTXaSDxtwFxGDhyhTePPO8ctywAmwIOBWLEUQTGohrs+zZHTomUYnXBUoOQ3qp15lEDtzvhpi/MBZaN4dZBw8G8I0yFr588ZQdEp8Yu32yHYb9R8u0CMUA1dk7qvU022pP0GUzJFBO1NG0nohlZSOI7TccP5j33G4cbVelg5eHj1Sl/ePSIqxVk6apfrvZYXHZ02bGMwmIqzEKii5EybQlpR5ZEcTDmyGYcGVKm+I7oes6GwpQ9nbEcNsJBU+hlopFIYwwHc8dBV7C7S9496vn5/Zv85M4B9+dGSy7V3/XZBL99FvgfP3zGZ+cDl2MmiPa/ppQZwqS9J2PwxmKzCmY0FHztR/kU8HmiiTtcGpAyApFZHHk9Tfxg3vDdoyXdVMAIGwcPI3y0zXy+27H2yi6VOqZhM5gsyL40U4RCJaoYKgC/ZK1fk7KuS9JcA6qgTHeDzsC+ZFfr+U2AmJRZVCD+G20Q+XcDiG1JuBJxIsp4NU5N1qeRk9bw7onnzaVjSaFj/J9lxPte8f6dJClMumXjqszHNgmPt4Uvzq+4EkNqe6YkeDyujrpkCsUKI5lUMl4slsI0rJjCFY7EUdNy0nTMC7hYx9iMPk/RFFYx6qiKdbgCeRixIeg4UyX/xHFLqY5qDYZ5PZevntkwT4LZBtps6MTVd+owOFJ2hOSIRZ9Xb4SmgC8RlwZc2mKZsNawAx6udvzhwXM+fnbJCk9oZkTXXQsnCKJ6TlVYxyQdVXF5R2cm7tw4YC5CQ6ExKsZJrLPzRiivAHEpYIrFZ4tP2mbovXDUWW7OW+4ezXnr5pJ3bx3wvdeW/Oi1JT95bc7PbnX87Ibnu0vDPVc4iJk+Z3w1aMmSUc68Y4x6vxujfupCgjoymbP2I7V1oRlrvbskY9UP2VgerUa+OluTnUfIxJKYjBDbhtK2JLGUItgstFloYsYOIzZMNGJYdD2HvSYNUsCkgs06QoWpXt0YRBzO2qqlntUwokyYMNFTmGWYF2GeDXNgCcwrma/afpDCJR2JhdH53jwOEIMGYF7Zt2k3IhE0h28wWLKDK4GPrkb+/PELfnX2jBfGMto5mEZL6n8rEI8cSOT+0vPOyYxDwMbxOiMuWGLS6YRiaoUAtZIkqxaejvRZXP1cS4FDSSxFhVqWxrC0hnkHrhMud5nzmNnWquM322H4K0Cswf63dORXRpMqSRr2F1L0QkLVPA2BlsKiMcwbFUVQ2a6iIvVjYLsekST4JDRJM+s2K5g1UsXWis51Nc7RGIfNQp3TwBqL7xuks2wkck5m1R/whxc7/s1XF3x6NrDFkI2HkpkRuWsKPz7q+d/9+E3+t9+7y8/uL7m/sPgEux2MWVmen15M/OrBJU/Gwto0TI3axUWr2tpt09F6j0mJvNtiwohPI00OOgBvCr2DzooyWI3QlIIdJ7pSyNPINA4kYJRMdIUoIN7Rzrr/eWnkWhlGbc9sVmUweDl+pGD8UiXr+qz3Tu/TX31ZTZKuobbi8Kv/5a9+88ul9cr3w/V/ydXAPomKxu/fw3UQUA999OqrXv9nqT22vdSeAnU2mWwiSZRV+m0dRdTFJxuDWHW/wlSFpqxCDPsc+Pq9S9J0VAKI+kpHKQSBTEGYFIhI+v3GMF8uMdZTskGKhaSly67zWFMI44DkTOsbYszsQiLaltQe8HiV+PDxFb//esWnZ5HTDKEH5pCdCvzHBN5YKBMhbMllwnUO6ZxuwGHClUzfdDTi8Fg8tQyP0BShTUIb9Vl0ydCKCsJIFEw0SFLeRqpmAMWp9zgxYXLAmIjYDA6yt0RjuQqZr16c8+GXDxliRoyOH1GgVNKZVEWNZFSWAWspxnK+2vLwxTmrrIp1oUoVIkJJe7a4MqYNYMVoX9UaBZ66NhuBzhQOXOF2I7zZWt7tDN/thO91ife7wLvdxOvNwM2y4mC6Yp62zEykFc0yIzBi2Bbh89NzPn1xydP1wDYpSxio41WGYo2u+Zqo6HOn86+NgUUH807wNmOMkrNCVpW1xjp63+DFQRJSEgKO0TZM/ZxHu5EPnp/y2eWGS2AEhqLBX7HKJI8TlKCtJicWW1ttOQZyHHEk+sbo/loiNgXNNGPE1f58U1s2jszcebxAKaOOtrWCtILIBGGDpBHjTQ3iAVGVuMsJngf48nLk4+crHq4DoT/QjL8GN6XuSaAbxH5Poe5XQ85sUmZTVGluQtuh+g0ZCVkrPzW2T8WQRcVixDmsVYtSnydmJTLLI23Y0E4b+rClSztmRA4F7vSG9+4esmikOqG83Ku+0VHbNd9aRlzQyEOzL82aDKXKRypIqCqPpQi4EjiMkR/0M743n3EkCtDFG848/PFiy0ePd4zhkGwOyLYhW6NZnaTrM5lMtBCdYTKGaNQVZZ8VmTr/mIkUMRg7Y1jtkO2OuQiHfcvMW33+6yxBbw03Zz03Gs+hEdqisDAYuLTw4Tryrx6e8W+enPPCd2zajsk3BOuIxpHEYYySIUwpmBjx12XooPKDdaFlY4jGE2v/m5Lo08hxmXjzaMZbr51ggORU7eu0CE+HzBfPLknZ4sRWgX7NXJVo5UjGqVD5fisQrsHz1SxWe7+qGvVSVu/lolcGaV12+91r/yoVpK+zz1fKNaVkZXZagxWLlEJK6taDsczahjsLxw9vOA6NyofWoh2UQkyRSKZIdT5C+29SlH0axLIWeDgm/nB2wVe7DaPXa/+tuKPsgwOnxKJQDMaqGtz28oImTbx5s+P145Y2wdyoejhlhDxpU9+o4vOEYaAwlQEb13QmY8SxK5ZnAR6Ols8vJ14Ew46WYjqkZkwlB0oOWFMFOmLCFIsRh0iDmJ5xJ2zXkJKjn/V0CygOJhKJiLeJxkzYssOmQVsx3iC1rZGN0baP98RKHpTr+6FftSJR7w8FESURaWqhJYusVWmdOa7Zoi0R8kjMkUmEnW25tC0Po+V3Z1v+/OtTfvd0xaY9ZGqWBNMqoNYqmmoS7KWSCm3jKDkwbK8gjtw8OODWomUmQpkSZRfwYjQI2P9cyfps4Cj1uUiCKkcJBFGBCYv2yzsSPZGeib5MdCXg4ogpETE6m10aZX5vEK5y5iIlng8Tv/zsK1ZF6GYdfSP0Ri39phhUNcw2TK8Ew0JRYZQ6wlTE8Gyz5fOzC65yZvCGnXNE5xHjMdlhguCC4JPBZn1GTedYxR3n45pBRmxv8X1LY9SxyZAgJXVjKlJbRAmSjvWUrMYl1ljtsSoKVnKTUa6BQDR7P3mVbzLiX46JiWqqiAmQd1AGMBPiVRgnWcvkHJcIX43wmxcDf/7VGb9/tuOSOd3Ra0TRUS0xewDVZ55SZYcRTE6EcUPr4eSw53DZawVCoBejsqcxIUHZ4U7k2oWrGDVVSUZL45EEJdKKQBjIYcIag4glZkioEt2Y4TxkPjpd8SJAshrAfLOjZvryrZamKxHIKlFKHVwUiF1WgFMCl5YDejKLYcsPljPenc9YGO3yRwcvDHx0FfnkKQzpmGSWSvowhWACQSaCmQg2ETxMzrBDCOLIptF6XBbNsPOkW6GJOq5Eq1KPw4QMCZMNXWvpOo+xyjK1JBZi8Clhx4wpQvGGjYdPt5F//fiCP3v8gk+HHevZjF3jmawj4IhFMzaDw2JwuWgkWU2mBc2UkmQmEUZjGUzDaBqKGBoyTdhyIBOvHy9449YJ3ur84xpYCZxtI188uCRnixUlIUjNHJMYolWxjyICVZzhpXZ2PSsI69f/OQjrsQfYl1mpXJ9/9TupC13/WiArCc5Zp7rAwBQiU0yI83St46Qt/ORW+xKIi0DtI4ZYOaJ1VEAfdp1JTdkwOVVJ+vBi4Pfn53w9rdmIUGhVvaiYl2/oH3gUMeAd2xgJSfCuoTGW3cUFMg68dqDlzJnATAqNBG0v5JFSArEUhlKqWIeQy8gsbmjIFNOwLp6nEb7YwYMNPNkUNtHi+zmUQkpKAPOmMnBTwom9LgEX6WjbG0yhYb1NbKbMiCH7RKrBpbeRzgU8WxoC3mTtS1IoYki2qQ5DlrFqMbPH1/29ruxjMXpeZ/0mg80Ul7UEbPaZjIK1IWEkkUtmKsLKeF6Yjk/Hwi9ebPizx5f84XzkeekZu0Mm25NwWoWpZCcp2lMukimmYL3TdkuKlJBgShz3DbPWY2KCKdI1WtKVorPUGjvK9aTChLoGjVVLudRA1KHiONfinlmzQJsTlELxnuQbBmNYFWFlVCrxNEQ+P1vxm4dP+eXDJ6T5kpMbhxy3tlqcBkIMRLFE26INqKJWjyViq/f6RKGI5ekw8snliucxsm1bpqbVql1UIl4TjNpLZg2akoXRwcZGVoxchA2rEMAJnTV0TrBSIAYa77BilDuStUwrKKFUjAqoKJG0Mt2sqlypI5hhkr2CuQ5oab2hBvJa6oQyakZso64PyUzWMDjPubF8GTK/OR34s68u+P2zgbPUI/NbmG5BIJKNqmBJEUw2SHGYvOcfoD15SYjVNYHAbNFy4B09gpsmZBwxGKw6B2hZ2mgyGOoaCGR9Hck0AmWalLzre8Q0jAmC6OcfS+HrzZY/nm44jeZbAWKt6On57QGxoA+LRESSquGUgssGU5Syn2ppVAQ8gXkceG/Z8ca8Y67ccnYGnhv44GLkw6eBdV4wuJ7ghGijnmYi20g29aGX2ggoDikOW5QxbFH1LMP+YXRAS2M9TU7kYcO0W2MEFsuGvrVqlZVGOqPes5042sYTDHy5Tvzq4QW/fPKMT3Zrzp1lbDomHKUo+DppaMTToL04DQYCxiQlq5mkAYUVglUlpSgNWdQP2JNo4sBSAm8cL3j71glqda6OO+sCzzeRTx9cMhUt25U6KpaBKLXqYPSaU+e6X4XZf9ufa7h95a8vi0TXxaK/8dj/P9X11lKJ1KxW+6b1Ac+JAxP5k9szTpyhRfWw85QoMVaHr0IugZInWuvJqTCNOoObGuGyFD46HfntszO+vFoz4LFmXu05XokM/oGHApCoAQCG1npcqZubQJMLh97y1kmD5EhnVIEIoz3B3RQYUmE0DjENvXjmFuI4MhTH5DtWAh+vCh883fBiKCTXIc7rBkHCSKzG5FnvTp1KUJN7xxgKTT/D9x3baeDrZ485XW1wfcti1tI4IYhmBiIqfVqqk04olqnoxppqW2Kf/e7nxQ21vFuVw0zt0e8H0wtZy6dFKxhZyl9ZKSFnoukYXc85js+HxF88OOXPvnjGR2dbLswMObjJrjS6uYsaCuhP68ymljWVUDhW4mU/W2KtZ3W14eJiS9+23Dias+gbUhEkR6QkxArinLYWjCNTmFJkjJGYCq21KsABNKXQ5EKTXwoTCShfwbUk07LJhhch8WRMXBnPKsPDy5Fffv6Mf/HbT3gcDP7wBnePD7g/80ognQY67/GuU7auoBzuEpEwYMIICCOWtXF8tp7448WOM/FsrFcPcSwu6+mz1dZTFY0JBlZhB72nPZhRnHB5dcHl2SkhBNqmZd7OcL7RsRSLUpu9GvOoNKgyvUuM2kf1DnHaT1bzEaqaeiVi1d30uhKXs54la+nEOsR6kmkYpWUrPeel4Ytd5pdPL/mzL57wyWpi2x9hjm6Smo6L3UQyAUxtJ2Sn1Z/stGWDBtdiCsujBZvdiucvnpDSyP3XjrjZWJoCjAEzTdhuViFY13YyypeI1RNBpyIyrYBHsCkrx0Y8OcM2Z5L1YB3rnPh8s+GDsx2nwZJs8023l1f22W8TiKGWLatqU9EMx74CxHHfE5GClYkm7Xj7cMb9+Yxe9CJvDTwT+OPllj8833JpF2x8y9gUgo1EE8lSzQRLxhdoiuCSzlCqnZ8Kiejv1xtpiqdkx5SE+bxj5gpxOGd99ZiYLjk4ajmcd3QONWIXaESwxgOG9Zj44MkFv/zyAR9enXPReFgeEWh0njlZfNJItYkGF0FipuRENolYxdMHB6MXJrt3NNFtz1SHJ2/AxZElE28fzXj39gk9GV/HXrbA813kgwcX7MSTKps8mdp3FZW41NEZlD361+/TP/B4FYj/9kOwVoG4VCFyY9TL2hiVIMzTSBsid2dLltYws9CJ3jsvFuMM1ha8Va1lyYkUIjkZsI7ohScj/P7Rjg+fbTmPDa6/AdJpkfGv99D/nodUlq+ZAk0uzF2LK4awG5g3rUqxXl3gysCb94/pnaPRXBybBckOb+d0/pDezmjquIkV4Xw3spKGje94Egu/eLjls9Mto22ws56IivuLxGpMnjTW1ELmdWZXjOh0gEkMYctmWLEZt+ymgV0M7LIwWU9yHSONjgHSUaQFaUF0g7PoHPJeQtOhWZrNAZMnbJ6wJWLLXqBC76lucNVwUYzOyNeBrwnDDstWHC+S5cG28OH5wO+eXPC7x+d8frHlbILRdRTfE4oO+oD2E/drDVFA1oqbw8yWbKJlzEKxnpALp5eXbGPGzRq6ZUO0QnCWXLU/xewZwWpA2hphbg0LJ8xEaEuhLamqd+nIkT6WFmxDMS2b7NmIZzCe0XrWtuGjM+F/+uAp//KDR3x2OjF0N7gwM4qf89pBzxtLTzsZ5inRiMHkjMSJVmBuhDlCJ4I3DuM6gvE8L4bfX0R+e5p4UTxj3SMMSs7aewFLvfbXhEsrFAu5ZG0BTYHdemB9tWPYZcS0uFnLaHV+exR17wpVbUznrAvGGYyrI5GoOYNJEZNqj7gUGnRkrEE92FViV/NPMQ3ZzAjSs2XGJT2ntDyn4aPVxF88POUXD57x2Wrk3Hh2TcvWKlEtmgRG9e9ttvWsZjY18y61pI+DKQ6EMCAkvHX0fcescXSNo+k6vHWIk6rrW8BEskTUjDbgiFqBzEWf2SKIcRTrmXJmVTKjc1xZ4bPtJX/22Vd8voa19KTaW/9mxz8SEO8fHrMH41r2NEUjq1SjEu0fRdq8463DGffmHX1l3G4EngN/vNjwx+dbrvyCXdNU4XElwWg5R2cLmzqnbNNL0DfF1J6nrf+ukVURS7HQ+IJNGxgvsHnF8dLw+t0jbi1m9Aa8BDp0UxIsOVvWY+bh1Y4vLy95FgO7xiPtDGNaLI6mOJpiVVAhQqlm3jgtawebmWwhOAi1RKJgqe/X1pKxMxYbJ5Z54O2jjvdeO2ZOpNH8gC3wdBv5w4NLtniib4i157EnXtVU7hqIv63j7wPExqiqUylFMxyjs3wAKWdKCLgQmRXLzHkOOsO8ASvaQCtJDQxinogpqomFacF5orO8iPDHZ/Drry758ioSugP6gxuEWD/yNwVi0JLksGPZtMzbnhgjm/UG5x1CYditSWFgPuu4ddDR1LESg0NKgzEzjLSUYBh3sBsypnFsbcNV0/E4Wn77dOTffP6C52OC2QKahmEaMEYjdiEqIAHU8ZeM9jmxhnbm2I1rtsMa42BxsEQaz+nVhqcXay6GrADsGoJVDfJ9vlteUWHKEcia0VvJylitovvGoIYRVXw6F8MuRs32s7rZZOO1n4YlYBkxXCF8tRI+fD7w66/P+c3DUz46XfFkhLVpGZuZKsyhr6k7xstetGbDuY5/oUpys47NLrEdE+I9zWzGNoycbdZcTaMCV9PgGmUna6VICKUQQiCFCWLCZR3TIk5IbQGY+rtEtIy996Hd4ng+GgZjWRvhi13hzz9b8Refn/H5ReSszLiSGWfJM3RLEo6FcdxuW260wrG3NMaRY6bEhHeePE5IiAquOIrznBfDp2v49Vnmw1Xm0jRK0NQtE7sH4bIHpT3ZUbPbkBNjDJQiNE2HlYYwFbbbzHqXWQfIs5bRVzAGBtT5aUQJhUm0ZWFEoU/1OOuzr1hd748SvnJS/fKEjsdlYwli2GI4x/AUw8PJ8LvnO3759Tm/fXLBl5vAynUMbc8aWKdAkKzCSkWz0msQLgZbbRcLQjGQTGYzbTHeMj+YYa2wWl0x7CaapmE+b2iMIRj9/mIyySSCFGLlTeTaMy8hUaZM2kVyABGP+IZgLWvnWDvP05z44PKSXz18xovYMZgZSapC3Tc6/hGA+OUmrSZw+w1b+49aHtjb6RUBIwGfB9486Lnbd3Q12tlWT+GPLjd88GLLyi0YXUMxRT0lSyU95UxTCr6Isjf3jFONHbVoUgygYKyD/mDbTBovKJtTZnnH6yczfvT2a7x3+5ibbUsrEcuEI2tvQTxFLJPAVoSd9WwQ1iEwTAlnGmxxNFga47FGxy5iyUQDpXGU1ipxxtSHppKOrkvo2ah7kljEOGyYOCg73jnseP+1A5ZMtKLm4FuEx5vI7x5csjYtwbUE54jGsPcPlr2KDCp2//IOfbPj7w7EepTaNXj57wrMBZVuNCVTpoA1Wv5vW8G7Wu4SddBJdUNMriPYlsE6ngf46EXklw/WfPBszfNkiP0h0s2YYqrqYa++k7//ofFiwoSRRdeBCLsQGHMiW6P3UzKpRHbjyGzWgHVY6/DG11lGr/OaOrHFZGBoLWvreV4sH54HfvnlBZ+ertiahtJ1qkMdR2wF4n1JGLRnnWtGnMWCZAqBmAashW7W080XZONZjZmLXeJ8WzgfYJ0MFyOsgmGXhbFoqyO+3AtAqsKaqDBMEZ1HL+LJ4ojimHCMWKai/O+dsWyNY4PlMgunQXi6SzxcT3x+MfHrh1t+93THh6dbvlyNPI+GtesY/YzgO5JrKNaTKwlBXoYJFYy1yqagYxizMmPF6YxysUKQwjYFrqaRizGwiolgNGgdxZCMVb5EQbuZYrHVYUmfmUpYM0rMicYxGMdKLBfFcFaE51n4YjXxm6cr/uLBFb95PPBgnTijZWNnrG3HxrWMbU+kYKaJWczcnDUctRaLoWRBnEG8JyYFPIwl4rhIhq928OtnA796vuPzETbWq158qVliBWLNiLUsvZ9AmMhkMYhTQwUxDcZ0iJkRSsvFJvHwbMVVzpyGyHnMrLEMRkmoI4LWGXWNJRxRauBXWyHa7tKpgVKUIR8RghEmq9aeVwVeJPh6hE/XhT+eR37/fODPvjjl4/ORF6Vh43t2rmUQS7QGqr8HJSN7EC5aftfPrAH8fn0mUxjSiOl0KiYLrHdbNtuRUIQoDZM4Rt32yZXZrr1ttVwstXOsswFeRz6Np/iG4B1ra3huLF9F+HC15Xen53x8tmUlc6KZXQuzfLPjHwGIuX6IXn2QQJeMglOqpJ9iCkLEpx1vHM6403f09TVG4Ar47GrLx6c71m5BsA1GVFzB54RLkabO5bqa/ZbKpt2X7mpeXvtqtfMpAWs3xM0z+rDmrcOen79zj3/y5l3e6mcsRPC1b2AqCIt4sjEUJ5i+oennFOPYbUd2q63Oa1axeGsdpnFEaxjIjLaQnJCdkKohgKlGGK4YbDJ10e0XmzJhTQgc5S3vHnm+d/uAA5lopRCxrIrh0Sbyu4eXrEzL5DuC9ZphX5fyNJMRJSC/vOHf8Pj7AHHO1ZO6ZsE6R5krOGvp2giMaWKIiZAKBYP1BmsFvCU6r+QW23GePS9i4eGQ+OB05Fdfr/jdk3MeT4Vtu2BqeoakntjXIfw3PByZzhSsFNbjjqFk/HLBaA2bMGI6T2kcZ6srtiEyxEwxau2mmaEyYbMBaYWxNXy+i3wdEp9cRn73eMVHzy5Y0TD5lqHAlCPWiWpc1z6xyjSiIIwli6OIUSGIcUXrhFnf4XxLSDAmS/Fzkp+zjpZnq8DTVeLJZeT5OnO6y1wMidWU2WXVJy/WEK0wijCJSlOq15FjwjKixiVr1C1pNI61OM6z5ekIX28TX64in56O/PHpmj98fclvH234/fOBLzeZF9mx8TPGbsHQ9OxM7X1aj/GenKuPeQ3kdbvXMrgA1EB0tU10i5bZsiGmzHq7wTQO07WMZM52G043G87GyOkYWKXCJEYt7EyDuAacBk3ROAbr2FnHzjg2xrMqjvNieBYLj6bMwyHzYEh8fLHlLx9v+cVXK/74bMOzZFi7nis8V8UwuAbmc7b7TXC3IV1d0InDCUxTJjpL7j3rLITGEZ1jMJazYPj8KvDBReTfPDrjdxcbnmAZnVPmOUUBuJamr3kc10AMQ4xI42n6GWIapgA5O2yzBLdgPQpPLjY8vljx+HLD823kPAhXCdYps80w5n01wzKIYazTCbFOYUTjCMYyiWEUYYthZ0QJpDHzeEx8uU58cpn43Wnk108GfvX1ht8+2fDR+Y4r25MWx8R2zrZAKIJvvBJlyUy7AVucDs8VW6sFqmcA2tJUKd5M8UKSzJgiAZX9DBmudoEXm8RFcOyy2jkOpbDN+n4HcQRxRDxZGorV9SBNS2garrA8j/Bgyny4jvzmdM1fPrvgg/MVTych2AVFum9lP30ViOW//H3+1mqXUolRkKplWtGya2ooGO1H1FKBkYH5dMr/5vVj/tnJgjtAW0slXwP/3YMX/Dd/fMFDc5OdW2ClqO1WHnFp1H4VRUXkxRGwJDwZT8EjldBgi2jfuASKXBDyI5Z+x7tHS/7JvTv87M4N3myEGeDJtKI9EHLC1NKxEhaUUboDvroq/P7xFb999JQPz9ac4xhcR+4XpNmSwTRcTZldTBQEb4yKoJeEyyow/6q5tG5BmnkY09Ltznk7PeE/f7vn//iT+7zGhk4MV8z4Kjb82ZOB/+tffMkTe8CuWzJ5NfI2ZcSUgBUVrwdDzPut7RsunPp+tUD+ty8ZlfPMOOew1lBKIcZEzvllr1hACJi0o5223EZ4b7HgR7dOeP+44cZMs+NsYKDwfJt5th54crXj4fmWB+c7nm0LcXZEXhyzwbIadjSNuS5lfpNDSqYhsfSF3XbN2WYHsyXH9+5zNUauzs+Y955la0jnT1lOK96et7x/fMC7hwfcm8+50VqWTuhEa4tnMfGLRyseTYGv1zu+vpq4yp44O2IVC6tpQpxluZwTxzVSjQ4EDVIynigNkZYsTsupaUPrBGMdKQtTEkQafNOpf3KIhM2WvF3TkzhyhRMPN1q41Qm35o7bi5Ybi46DzrHshcaC4+XIB3Xth5pFhwK7KKwnuNgWztaR882Oi83I5Xbgajuw2k2skiV0R0yuJ3uP9B5pHcHAmAIhB51SEDW1N6VoK6+WcZTZvVd9U7OG9ZQ4urHANw1XVwO7zSUHh3O6RgjbK+Lmkl4yfRo5aRz35z2vLxfcn815reu40VqOvbBQDg5XITGJBiOhCEMsrMfExS5wMUSupszFmPngy8fkdoFdHrOOwrOrDauY8bMlzWJBsZZNiOxK5LB1LFenHJ4+5ruzhu8ezbh/MOfenSXLkzmrTWYxg85DGIQXZxNfPr/gq13il0/P+CQZVke3iG2rQkM54XPBJQ3ijdZbyWKIRsc2RyOkWiUQMRAzLhaaiM6Ap4JLO4b1Ezwj886xaD0Hveeo99yYt9xa9NyYNxy0cNzDzOheWOdQMBri6l5YIKTCxTZzWa/X6XbixTbybMg832WeD5nTKbNK4A8Oka5TSV6rbQdrdbqGMpHCxBQKiPpp2WyqWU2p60HXQjSZaFVXYcwjMY84A3NraFPCDSN9Kpz4lrszz3s3Wm520Hmh6zr6rqVvLJ1RbfamgMvKjxgnONvAk03m6+3IZ9s1n64veTBsuZBC8T2NXWJparX1mx3XdR8x/xhArLcqmwjVassmD8UqqcNoZGNkpJ9O+U9eP+I/ujHnjqjLUASeAf/8wSn/zR+f82U+YOuWSiip2bBkpbcXgWS1vDGKuWYMg87X+Qw+KbvV5xFfzujMU75/74h/9sY9/uT4iHvGMEsgg5J6XQtDiXx9cUnxDt/2tI2nN8K8MgVjgMtd4ZPzLf/D50/4aL3l4RQ4947d4oDtbMG2WGLQ2p/LjgMcfYQuZpoqLZekEC1MFoLRYXNbPPPdBd8pT/gv3un5r35yn9tc0SCcl57PQ8+/fjzyf/vVlzy2R2y7JcE3ZFOwecSUEU/U/heGmKvU4Dfsmf59gbiUjPe+6mxnNRsoGWOsErZIJDMhXaBMa7r1jqOxcNs03Ot6DpsGkcIQA4MBd3zM0/WGF7uBq5hZR9hloV0c0SwOGVNhtdrgnaudxm94lKykvTaz2lyyChkzP6I7vsk6ZqbtDucMbWNppi3N7pKDOHJcIscCJ85z0nYsnYcps9nsOJ9GrhrPk3HH+ZgIfoZdHBH9jF0qTDlh62vmaYvkqA4+BQqGREMSTxSdtfUUDmwhDxuGMSjzvp2D69nzrJ0TvMs6QxozNgy4sMaFDW3a0DMxc5mZhd4Y5r5T5S4xdZ5S61u5CLEUQla97IBlKpYhCbskjFlnrWM1MknidD7eNfX/Z7IruN5jGiGTCWEkTgMlRjqrCkfmFT39ggKwnlqN8VZlIVNOTEltBl3XkEomTiNCZuYdjAM+RvqcmeXEPBcWIhwYw9I5Zt5iGmF0ickkQnXEGhPsQmYzZdZTYhMzYzYU32pPvAimaWkXC8R5ppQYQyCjYjtTycycZT5saU9f0O82nDjDjaMlRzeOsfOO9TCw223pvMPGwvZizflqQ5kteLQbuexn8NpdHUUbw7WD2v60+eWTmIyOhea2YRO1KmOdZ9a1SBSmdUBGWDaOm8tCQ4RYCEMgDFvytMWkic7BorUsO8vMC94kvGSsFFzlCQgqx5lrdSuVzG5Q5cIhwiYJu+IZTMfkZkQ/J/kZyVl8b9kOme02YE3mYN7RuUIaVoTdWglX3ZxtbgjFq1RoLtiSVbSpMvJVNyIzEkmmoHhYkJxoEqo0lsDHRBNGjl1iYRONFXzjaHxD6z2tsTRiaYtVc5JdICVhyIbzMfB8CpxK4dzCurHEvqObzWE7YSdV5vqmxz8iEO8fItWULpIwWfDJI9ldb+EKxIFuPON/9cYB//TWjLuiLkNF4Bz4Fw9O+W9+/5TP4oy1W6gUWdVqJiudPhpDcpbghEFK7cEWhIxLiS4nupRpY6KJW47smvfuCD9/5w4/ObrBfduwyNAFJdUFgYsAHzw55V9+8HvaGwfcfesN3rx1zB1vWAJdhtmkRLzzXPiL0y1//viUXzx7yufTwMVyznB0wq7pickjwdIGx2KwLCZhFjQ4gEKwMNrCzuscYMHSZMdid8575Sn/xXd6/qufvM5trrAUTkvHJ2PPv3oy8X//9QOe2CM2/UG1zsvYPODySEO4BuKQ3f/XgXh/OOex1uhDm3RC1VrN1ac0sSsbpmZH08A8QrsKuNXEIlkO2hnet0zAlkxZznm227CVgul7inXsdgNWLF3bIdkwDZM6cO1LPt/oyCATYgamMiHdnOxnbMZELA7pO0gZkzOtN9jdinmemKdAH0Z8mGhSoUVLijFmdSE6XPJ8s2UUR7M8hKbnfL2jWEs/64HEdn1J76rE37UYhSWJJ9EQRbnNTYFjJ5TdjnEKJOMwTU92LWMWYtExFeurGlCOSJowWSVVfRlwZcSVSeU8EzSl1bGRKsO4bx5n1FZUK0OGbNSGM1VLuSSOqCwOJUiJBWNxrSopjTEpG9yD2EyuRu2a55eqgKQkTymViFSlBJNoeG8lsXSZuFuTcsa1PeI9q91AQmi6nqZpySlRUkJiwoSAiwmfEm3OtDXDsxSKzewkMFnNiDNW5/CxJPbzstqbNr4hVvAREWxlFpecKEXXtlhDsY4yBZZFOMyFtFpBSrRdS3CGrSnYvuXqasW87ZgVIVyuCLuR45u3WMXA2LXI8THn2wGSckkUhAs2Vze1oks8CUQRhpIVkK26vCkJ1GlGmcBEwaTE3OtYZUmFkoN6DVeanSn7f98rotfxMYNyNq7/KBhDnUkXiEWYsmEsjkk8yXQUP0P8DKyvA1BVLjcnbA7YPKmEbIkImWQcW2kIogObrmRs1oaMkCiSlZdhio4hGe3vi2h70mbBJHBJaKkz3OMOk1R+ZM8dMaIlb1WOU57ObrWjbXuafs42F86nka13TF3D0DgGo0TSNgbalK6rNt/keBWIv+Uesf7ZRy7Z7PuiUhnMukVqm7xgxx13e8+9WcORFPxU1Exa4Gw18uD5mtNxRLw6g0hWT9giHtN0ZN8wimVXhGQNU1JFo95nDnymj2vc7oyDsuH+vPCj12b8x2/d5E9OjrlvG/qkcja+gPVwGeCPj3f8q48e8+snz3k0RS6tI7ctbdfSVuGJeVIj6s4LTdPQzhzSCGMaWY1rdlll3VrvaRB8KMyi0AZwAVypM43WEp1htMJkdNa2K9CPa+43Ez++PeO9GzNkWuGMY2s6Hu3go9Mtn1xMrFzP5NpropZB2eSqSKRONLnU0vQ3BeIKbX/XHrHODr9C0CrKRoXqkVsSsUQmo3rHOibmqyG7Z3QdW99x5VouXcupsZyJZdd2xL5Ttjgqpm8T+FiqylAtw3+Tz1s0qsySiExkB6ZRjd9xjLqCXQtZKEmUHJiLqiIbR5TqtVtUDW1lDZvGs+06Bj9jZxpyO4d2RsCyC1FByzsoiTANKsW4/wjVyUm7hZX9vxdk0QFPHUUyVSkLric/IZFzIpdAKkF12A0UZyjekbwnNC2T6xjcjMEs2dkFWztjY7t6tmzruXOdEm1cy+A6Rtcy+pbJeiar4zajaB8xoSX5UlTUYS8EknPQ2XoiXgpedHO+BmK0W5yNAvreLtSUTFMCEgYcBV8VoOKoamON7bA0xEkgO3JxFBqSaYi2JfiG0Xs21rGyjivjuBDHSlrWpmdjOjamZ2dnDG7G5Oc1q+uZxKn2s3eqmJYjOSrb2knllZSs2gEh4YrBu44oDaNrWfuWFyI8l8KubbmyhsE3DMYz4cmuw3ZzklFSVAbCGGpR2CNUQZ7rELNu4/W6pqyz994adbmKqmznraihTYZpKuQspFzDaWcR3yC+oThV95uMZRDLaDyD9exsy9Y2bGzLxrR1PfRsbMfOdYxNz9R0jL5n8r3qvbuGZK1yayiUoqOHVjKNAUsmh5ESg2KBVaOOUIRg9Oe4Zszr5IDKxqqQByapuAzK6FaDCJ2MIVsVAJEG63oSDUE6RtMzmJattGzEs67nlViusFxh2PmWoWnZVs5AbBqybyliSQmIOr6lT9+3cdSE4dvuEVOBNptMsBPZREyBNjpcajDJqAORAWsyXD3nJzc6/pf3F7w3M3TrxNHckpzwm+db/h9/fMJ///gpu8UJNAtCdIzRUkyP6Toma1hNkSEnXCeEsKJh4LAtHJqJZnNOs73k/mLGj19/jX/y+m3eX7bMY6AxHkmeGHTP3iT46Gnkzz99we+evuCqFy7LgO0Lr9894mdvvMbPj3q+0zjuRZjHwlQKawxXHXw2Rv780TP+pwdf8cFqxbadQ38EZYZMDfM4w+wEOxkcHtN4QiNsTGFltDzWlMJhKBxtX/Afv2b4L98/5ue3G2T7jHm/5Nwu+YvTHf+vj075i3N45g5Z+45gDJDxZcSXCZ8jtuTrvuJeg/cbHf+AjPhvOwqFZCPBhVo5UQU2V+cHKQo8wRhGZ9k5IdZZSVAWmovQh8I8FLpXHKqS+Rs0s/8+RwEkk00g24EkSQGhai7l/cTwtVqZTs/qrO1LbqbyJKopPajuZGkqDayyT6/vixaf1Tpv/1W5BBr+GArqZZ1QUXtTDL5q6e7vifZV69+q65bagr7st+57r/VvdWcXKA6TGkypEod1s9cLsj/rt+7/r2holtERRX2f+pkMBZeV/V3QwLzUzbTmu9c9QJv3ExamKjapHnUU/ZoFXA7M04Y2T9dVAj1VoGSv9JRFg0/VLNgLDWUKahqieuQvr6tCg2a+WfafRdkuen9K5RPrfbFVptYVneLQbFK9kAsOKf5aCaqIBtmDg12TmXxRdxZ01tAFw2wydBGa6h1eJBMlKzlK1GLBoMYNriQNtrXRV9eXSsGmWkUoYinFaiOtWORaHrIq6F0/vvv7W4M20a+vrhO9htoa2K/XXNfAPtDbh37XcSOqiiUaz15XSv/mr3p9obK/rdGRLSn1WuupA1L7z6phZqn3uWDr51QFLhUB2X9uJe7mPeO6ZtT6Gev73oPrKxWZ/dXZf359h3WSoXxbe+A/Uka8v6xZINpMsvqGbTH1AmkUb1GnnbzbceyEu3PP7d6xwNAZwRhI4rmYCh+9eMymRFLJGOuwbUeyDdtQ2IZMLNoH61xh6QrLMtJuT/GXzziOa753Mufnb77Gz+7f4t1lz0mK7FZnJAzStkxeeJQKv3iY+ecfPuf3ZzvWi0OmwxPWznM2TZxuVmx2a5yzHHaeeaPKUCEEfKM2b60zHC5mnCyXNCUznl0Qzi9pQ+LANbhUKElLW9HoPPFotNcxMlFKwIeRbrfitpn407dO+P69A5Yelr4lmYYVjk+vBn79+IpnybO1HcGo3ZchVyEG3eI1dtZFWmrU9U0P2T9kf/1//AMOZbMr8LrkMcVB0aAhiyEYtdKcrBAshKpauU8JJBtcMvTRMp8sfVD2+d505Bu/yQpUSEJQ1x5VNjL4ZGhyNSJJQpPB5VfHSrScGo0hGMtoDZNV9mmWRoMjURLg/nGuj+T19X359vf3cV/Z2H84fYBT9f6ORq43mH3maQg61Su1aFy1mwUqaOxHkzyZhiQtifa63ByN0dKw0V6kikfU8aY9wJkq8FGlAvWrnpaqrV4iRtSJ2ewBrQ7KmKIkLf2UUj+vbp6pzgHvvwpqpyg1KCk0NbDxuglf6wZU0NELex14JJNJtpY1baFIrdRVBSf9mZdjj9faxkUFd2zR3+8qwcfmKmZxPfdqsbnBlAapZxJPNJZg0d/pVHlQRN2QlB3ssNljctWSrsCpk846PqnZ8H6caw8E+6xRv16vkroH2P31rQCyl4YsJr5yaoZZTKp2qOrQVqodqgYk9ZVFA5+/sreIBoelKlhJqdXOCqCuBiy2FvrNdTBUSFIlJ42tpwImooHPPjBQZ6gaKEiuz8u+0vpSq0KnT5Skuw/q9BrudSx0LUejpOFoq9qW1ZGovS0sopm4KWq56Uu8ljs114Hrt3HUJ/3bH1/SsKmIKBAb3cT2M3A21zo+Kl8Yh4GZRG72jtuzhkOrZcacQRoYm8yD7ZbLPLJLgWItfrbA9r0KpBth3luWTSZfnTMf1xxMK27lLe/0hp/fu8H/+t03+entW7zRt8zzCLsti/6QqZ1xKoZPQ+ZfPNzy337wJR+NiWe+4xmWjW/ZGcMoMObAbhoYpx3RFqRtcG2D9xZrhRz04Tx0hnt9yxuHhxwVx2zMNFPEpkzOiSiZ1Bpk0WCWLWZmEV8wJtIQmMUdy2HF905m/PyNA9468qpcIzpC8gzhD6c7fvt4xbnpGayWpWt3Sxc/pYZDLzfw/c3+pkfd/r+VdShFSWz91NHEFpeb2rCo6jkmk00CEyhGS1OlMvHJKAhPjvnkWY6e2aTRcHC60X6jjLj+rG5qBZfVdcgnQ5MMXRS6CG2kZjL8NTCuWWIlGqW6qenmXmcW6y/Zg68p9Su1/1fv4XXEX8HpJQirrvjgLIMzBKtCB9koCIsEjOgG6Eq4zqRsKVU8xmCLq/KBHskKZrpO9ptRLQ1KQqp0rYiCqhEF+WuwV/rW9cCTLxO+BHxRv+3aba2ZnL62ZvK6oapQRZUxrNCRxVaHLgViRAE405KkrdWJFoqvra/9nO0eJrJu/tUNS4zqvGMmLYuXRB+gj4U2FZqsKktNLviUafaEz1zwWa51810WrdwUdw2itngkt5jcYXKLyS1S9lYmRTd2GRB2GEZsDviUaKLQBodPHpcbBfKsUr3grkcxpZLV9uf+/ihoKTDr9d2DcJ0/3mdxJJBAsSPF6ImZQPQUCRooVTU3W39Ws/Bq3ZoLTdpfH30u9tfdFoMr4HOmyYmmqNGN3n+tIIhonzcb1fjWQFuD1NHVmeL6GfQz7YO8WsGowbHU/WMfJKnoh977vTDSy1PXgr5WrVLV/eTVUwg63nq9fgNNnmjzRJcm+jzhS6oM/r2V5Dc9/hGBWLQ1SbSJZHXjdEVUvCLrxdrjRI6RpkwsPRx3DQfeYFTwRF/DC2cC57sVZxcXbLdbUlGxgRBGShhp8kgfB+a7K24x8nYv/PjmAf/0zTv8/PVbvHt0wA3vaEjYVOhcQ2k6tmL4w9WG//bDB/zzL5/w2HecupYL4xlcwyZnIoJtPU3fYqyw2W54cXXJNkVc17JoWx3DEQ3YfIalEW53ntfnM27NFvSuhRQIKRAkEUxilEAoAyFsiOMVjCuacc1h2vH2zPKnb93i/ddmnHjVwB0pjBg+W0V+/WTDpxcjaztjtJ4sVJcb9c61pd6Aa9Xg/c3+63fr739UCPg2XgqDwUdLF1qa1EDZZ16auRSTryUedWN4tYwpFRAdfXD0wdBGBbvRJ4KtGuTf5J3uN/OiLFWXDT6bCsgKvP56ll2Vj65LfvteuOjfdcnvN62XXIk90OtWuy8xcw3CL+/hX72Xpv6aaITRGpITvWbXGemr100JUfvPolmEZg5StdlN0YrEvkyoAcF+Q3wlg91n1vV+7GlNtpZn9dxnQKmCv2Zl+9flunSun1OKaIn/OifWz6rlxCrZWkvM+t9VRlPVxV4C9/6q7N/7vvStAYQGJhqgXFPK8LnQB6GLarHqSlaCUFHwcaVU5u7+FFVLrBnXvgwqxV+fFO3pag9lvzmUusmPWHb4onaoTSo0yeFTg0tNzYr3n2WfkUoF2z3gVvDdg/A1OO0B6tWV8gpwk8Eksg0UM1Fqz/U6wHolu9am0MvP7UpW85oKxr72wm2R68qBQclkeg33976SwPYl9CqekoxOuGilQDPiaJTHsr/2prz8bFBbBPV5qqv4unKwz4hfZscVpHlVnU0Dyv0auK7c1BL/y3Wt69dnPZuaDfs6RpiMraqI32BvuT70Ln27QFxU8szWzSjZRLYREV3AmhFbJGvdPdZr6phoJDJ3hqPO461o58FA9obiPVOMjLsdcZyQrFmfy4E+jyzijpuMvL9s+OHRjJ/fOeDn94/5wa0j7sxb2kLthAnGWKxreR6FXzy94L//4jF/9vySL3JhtzwgzpdE15BERRlKKVirQ+fWWXbTxNnVmssxsI2QjMM3reqmS20JhkIXCzdnnhvzGYezjr5vcF1D03uwmZQG0rRGdle4YcVBGrgpkTd7w0/uHvHTN465M3fMRec5N8BlEX73bMuvH294PMDO9wTrQDTifbnp6cOhqscaC0K959/wePlwf/NDiuCzpQu+lpQLwRWCzUSTdNa8VG3bXLOTpAIuL0HR4LOlSVo6TLYw+ES0+ZtlxNefVSNqXbu1rVJla20d1dtfjz1YKPhCqUIUgs7F6s/oc6CR+qsZyz471D978NVS4D4j3r+jl5tUNjBZLRkruUX7Vy9fs5Z868YEaienQ3h7yf6XJVj9DjV4MHsm7b7a8kpmtQfp67JnvRb7wEKhUQOL6+Diuteo5c7r77oG01dLnnWl7e+h7KMcqe/7GnZgL+V6TQZ7SQoToxuuthf01NYNmuUlDeB8lmrwUEu8VQ9h/xm1xFs/W72WWsbWeV6wlFKft/06qO8NRMFNIpYRz4DPoWaOBpc9NnW1nL1vI+nnLUYTGa0e7AFFQVXX2b6X+/J3XX/dX6NX1uW+ypQl65zYvjFSr/P+J3XN7NdtDRavz3z9Veq+igjySvat13gfNOhrl716WW2nJPOShKc65fpsNUnHOxXk9+vglfVS18r+FKqiYm0LyfU12K+b6hR2HXDs1+/+fera1s+l91mDkFqD2j/nRSszwTjiXqntGx8v79m3BsSCbjSu8hCiVachRGfgTNUOlaLmBTqPZzAyYcqOxiQOupZZZzBO1WIwwsw75o1mn8tufzpuzjz35o43Z4bvHjT8R/eO+dO7R/z0zpJ3lg2HRsvkU0pMYpiMZVcML3bwm6cD/88/PuBfPzvnfDZjOrnBGsG2Hc55TC7MncfmatpQ8nVuEIplNxrOVoGzdUDaHmst3gnOVHe4kOmMMPPC4dxzdDjn8GDJ4bJn0TvmjXBgCzds4W5j+M6i43uHM35wc8mf3DvmrcOGI2to6qOyLcKX28SvH2/48MXAi2iZmhnJGN1cKltaHxp5SV4RW6Phb6ev8crj/Y0PKVrKbZIAhcllBp+ZnM4JImqh2UShTYY2Gpqs7Q2trNQouL6vIoVgE6NPpG8BiKnAdA2ONYvVa/mSCKUTAnV0bu/JK3q95TqjqNlCVlDUh13zOt0A9lnM/sFU8N3nyrrpVKCsICH1fWjZe5/FvawaXANGbaxrT1V/677Xt9/cXv7m/ca0D+r2wUIFplo+fwmDe9W6l79HMyQF1z3Aw768rNmEbsBVNvGVTfXl59zfPP2Me1KSZvP7Tbeux1o+x0SKaN8z7/++J4btg6JS4bOWll3e6xjr79L79vLewj5r2vcq6319ZY2UymgvCMUUigm130qVIa3fKalmxFPNGNF+cO6g9BRU9EjlNhOlltFfDXj0feh70LVXqwW6Ml6um/17up7Bllri14kWBZH6M9f3f//3fVC2v6/UtVavNxqw6PXaEyP3a6Jeq+q1rr//JfhmqaV20b6tAqn+sUUrTF0qNEmDXg1sFDZLBe2Cyq6+XGd/tSqiVQS9Pkrs0v73njipa/yVAGMfdLyyPvbEtnJ9f+tYW1UW2/M7/j/tnduT5Mpx3n9ZVUBfZnZnD+922A49iLb1IPv/f3L4xVaEHbbCoZBtSTapOOS58Vx2dy7dDVRV+iGz0Jg5uyK5s+QOvfVNIIDuaQCFApBfZVZeHg+/D+/Ta1rU4rfGYtrs7WbiOJ5AMmMODGVkmEdCsdR/dwq7LezKS57l7/iXKfPvf/SCf/PDT3gxWEnAdtwJ5VuFz6fKF4fCqzmDBJ6NiR+kyA+D8rMg/GSAC7HI/FPF5s4CvBb4clI+e6n86tOZv/7FZ/xSJr7YCd9sA6fLPbLdMr86sNeBF7sr8vXBNDWpnMpMqYUUhV2MjHNFbm/Z5gN/9uML/u1PX/CXP9vxr58nfibClQrbakHwOSh3wEuEb1C+AV4VOJwqeirEXLhEuEqBq03gahfYhsoWi407YOnj/uMvX/KfPz/yty8LX+SIPruiBCFy8ljQQlBQHcjsKLJxMprc8eH+/fq98Z69poMKYxb2sz3wt6PyegPHZF6NUZX9rFxMNg87mI8GUxRO0fLblmDmqKHYAFBR5mik+GgiXpmJTTtozkXNjGeCqCLuUW0C0PQte3oXzcq1GaXNLxlJr/vSRJnpn01w+VjcjkV1h6tmbi7kAKcYyR7nZAl1fO0ajY3mTcgI4hqcCzmaRmd3VgBZPELVBOqDdSPHRZtq/bRo3b6o2NW4WbqKMHtMcA4uXJ0AxB2JW1atYD3lpGFr89pNUDeuFeMOPKblGFGeha1dR5syWA8YztvWdvFrcRL2bXt+1vfGB0juhWv6km+bK7/NwYaD9Zduoe7Mm5dKkBNBbojy2mr1oigjtV5S9BlVt04yFcIRkTuP7TaLha6K5rRyss3j3e6vD6uWjH1+JbJa+z42yMDuufdB+8rIyI5pfec07/d5IWY1Yp9Dco22fd+e67XG3frRyLn1Z23bPjCIVdhkmwpSsWp9OViZx/U73dq2PC+rti4QPFrAlEHx39u+fiDMOls9Hrt52Rv8jVzOYW2suL/Ce0DrB31fCT3Ub9SYhTGbVnC7nTiMJ1SyCcoyMswbpEZmgUO0lK+b+pr99A0/Kjf8fD/yFz/9Mf/s8jnPYmJXYHuETYLTAK8DfFfhlXf4MxGuBJ6jPMfSR4Ypk+fKIURuL/a8FPiHE/ztbw78r198x6e/uKNuX/DtVvhuX7nbCTc6MU1HrtKGqzASToX59sS42aGbDUcRTnMlaGQftlzUwDAXSr5lKl/xyS7z559s+cufXPHvfnzFzy8GfuC1hWvJzFUtzjJEskUtoP7wBFVLpCAwRCWEmcJEJDFp5Kus/PIa/sP//pz/8RI+LTu+lQ1lu0WDMuiBsR49lCJQdWCWS2bZooDIyePwHnmb3zMRi889jTWTg3IzCtdjZI5mkg058ewUuToG9pM5R4FyGip3Q+EwFE5DdodA1+BqJFQz8blkeBTuv3SFwOzCPsNCEP5yuqmXpZCHDQ6GWknVCEn9hbemeT96V6rIkkfaEu5bhSUjK/waW9jMTFCryrQWZouu7Pudt+2lR4x8/IzQ8jg7WVubrf328Hgoiwvvs1Bvh3HSpUmwM8kD7rcwESieeMJIuGXf0jbX56kMk+oSB2/k2vq5mNalwa1qYWlPETe3BqUu7bWrEi84E1opvWrOVaGaJlYETqmQg2lxTaM7r8+EIt5lixbpXudmlvZnJExovEalUHVPrVegW9DgJv0DUW4I5mqKMlB0T+HCQgwBwokgr4lyzVArm3lrKYLFqgmZx28rXegk5mRqZGRDLGuuDxb9voHNq7ZBU/t2eVEauft73qjCLnyhjdYR6BLe1Pr8vIgT13kA1ORdGzQ0y40f1wkyaELdX2QOHjHh12zvjh9rtX9Uq5nd2mfPqD0PzXciuqKYmsOwmuarPiBo/Wqe3Ku6CKseirUyaCZ5XvTHYunR9xm+JG6ajp4da/GaFtyMaI4NSrAB5MYH42S0nqjziTLNSByQ/Y6UEluBZ2LJMwSTI9tgtTyfBydhUS6pbFQt65ZEwjBwlxK/PBT+62df858+/Yq//uoVv76FO33GtWx4JcKdh2WkGNhIYFeUNM+kUtmkRCmFqVY0DozjnhhG8gnqUczRZRyYNspdPfHy5ppvX73i+uaGooW03TKmRAxWVSlKYBOEHXCBae6XFfal8kwrl8Fy/M5UFKtycy2JXx8y/+X/fMHff3vg8ylyk/bo/pIZN0mSXUOyeQyLUbXMSyZ7LdVoe9ceA3u19N4L986LKEhBZWZOmUNSTkmo0bSNUBNjHhhzYnBBChamM0dlTpUpZnLKlDhTQhPWVmNXeBwRN9Fj81r2rFaxWNgaWnafNmo37bwGfz193vLeqN2vHPDX736PQDMtNrOiC3zfqVGr6ZKmTwa1+Fszc7ogc6IwE6UtrYKOmQmbidKFVWgmPG+Th33IQ4L3uV18cLKYuRfHqdXitcusH0xgVa+CZJ7Q903jTVM1OmvC/jwfaiTpxvrqZO2OWPYMmbCtoWnRlhrTxH0zX56dqUTNJJ5D5JSEKYmFsojNt9s0w4rEGtkspNNunA1SbNvNyfFADdmuE6tatZiuTZ30+zBQZLSFwZ6dUCCcIB4QObjXsslNVtpbu4fN/Gwhbf6EuTOTPUfne2e/iYTFqSwiPnhs5t7FrO332EzabTucSWpZWj/Vc7xtG5j6M/Jw6kFo3s0eBrZM29i8sKiXr8TM6ernXq51eZOc4NsLIva+2z2ypboFoQ1WTS6EeyFq+HvSnP+qWOy6pWj1RZJZqMR8CayH2vDsMUt779/THPH5sNYZVcxxRsVebPNuaxdtZocqSi12QUmCkU8J3OTEjWw5pQEJcOHxo7MfN4plt9r6MuAmB4mcauBVjvzqWPmfL2/5q8+/5a9+/RV/890rvpwrx+GCOj7jVuEYvUyhKDEENiEhpaJzRUIkpIFJKxOgIRJCBIWcM7W4w8OgsLGal3nO3N4deXl9x3c3R67nyl0RJgZKSlZRaBlLOg952roRiBFOIfANwtcMfHqEv3818Tdfvua//+obvsiR12HLadxShpFZfd6qjavWnqfL3KmZ6tye9Dg0pxj74C/Auy3nB9jubfE820bAgViih4uYViluosyxMiVzxjLPah+9e6iChZKYxvRYIr63q5vdbK7Rr92dQ9pclXnRBmJLteehE+L7m3CwZ78JLHzdiNdecRem7Zz3yLfN09pBjRjP+5vwXwvo81VY21vP27YV3nA6dK3KBnMPiOd8u2wY1i7qfBeXOyrtXM1bdUkQcb7mtl+7YhNu/iwv5Ovnk3bUM2nreu6z9Z/fi2aVELU0j81Tve1v5zdtug2qLMHIWTuzXvW/xQnIv10fa2lXe6+bOTYCo4eqtTfF53mlDWTtGOpz1HZ/WpiXtccGlZY8pqziqY1Y7ajt73z/zvcEv1felT5Qa+1pfe3/lzb0tG37v+3X7kA71vnM622XO4vjX/PhWJ/Tz+vtoQ14/Z2o7lG9kPwS0+xtUtu/DUJ9eLOs72G58NY/zbP6/AzZOc8mafvufJzlPcEsNma1aZMq9ot3Xe69Me9zjhiaQLTObaPT5eY2waWComRVlMoQYYxCpFKOB/LxxG6746cvdvz8SviLTeGToGxDYBMim2AhPdG1gJphnivHnHk9w2e3hf/78oa/++5b/uH2mi9L4XocyPtLiBfkw4CqjUCtCLa1w17EJpBMrV8ekKXTmou8P/CipKQkqcQyEU53yOGacTrwo23iX/3wBX/240/4Fy/2/PO9sE82x3yRIvsobD3vbVIz8Xxbhb87ZT4vwmcvJ/7xy5f849cv+eqQOaQdp80F07DlRCKLPXrN2y9VCzGwa7D2VjGzjgmrh3frHeBTAu/jUAYbjZiJax1va/1sptI2R2t7mDnYy6GtTKcmuGxEfX7tH4d2tbbWRVidh1MuJPx39rWdndVcm7WttWj9ohsevvptvX4x7dP52/aZdTvlfAxryvpXD85mjVy+a/JnmT99gHVblkttH964jU9n2GLtuX8FawhmsrTt1upz+5bfrPaxX1jHKi5Ml/+2X67NpP5sOGmZEDYZcK8vlvPZnOf6aPdxPofB5qxtDyNZI2X7vx33bOo+32sjc2tDm+s2n4+gCxP59bX1+Yi29aYWnntDl9+Y7PreL1a723erH1mH3fvvGa3vHvbFg/cBf3281e19WPp6ySBnBNruQrtW9Wf5Ie7dqxWaiX0t98Rf4eUJ9/bZ7x6cz/t5DcGcF1v7H4vlEO+biH8XKFa0Pg1CyUqtELx47jxlTscTCFxuEj/ZFn6abnkRZq7GLS92e662IxfR4vKnOzjcKS+vT3z23UteZSt6/VWe+U0pfCvK7ZA4bQbquLFCh0dFanzYrHeAjfRSiJZEXCuSJ5iOyHRgo4XLpFwm4fkg/GA78IP9yE+fX/CzFxf86HLgWbI8u5qVqcKXd5n/9uvXfFMSL08zX1/f8ZvbA9cV8rClbnbkNPocm5v+WlhBi+HziiWCedTOIa4I7ili/fi9oY1vezrv/fS3HONDw5tngucskB6Ls9B4gMd2wVPuzu+17XtX73hLwx/+/C0/e3d8r4HviNVx7rHJefNPFg/vwT+FP9T1vqkNf6hz/Q74oxMxmNUgBGGaZkqpxNgS3ivTNJNzIYbKJkyk8pqQj4RaGTQwhsgYE0EDZYZprtxNhdfHmduiXJfKrQRO44a83VLGDVNKFEBKZcxtcv9hq35ftJGs5UUOokTBYw4z5AnmIzodiTpzsUnsx8CzzcCz3cB+jCQpUDJlnpjnzDRVrm8rhYGJwF1R7qoySaKMO+qwIcfB54fPRNwcFs6xcKbDVxFmia4Rf8CnrAMWDeAPRMT99nZ0/MnigxCxAlor0zRRVRlSYrMZiRFKqeRsFVtCrEiYOR7vuLu95XB7x+k0U1URCUhIEKzijcaRY1EOBbIkdNwimx2kxKyBec5IntiJxVvec3V/J4g5I2hCqwCe/CNFUhSESskzeT5Sy0wMClpAMyxeoVZGzI5kSd/HyVO8e+B4lmQhAnEkh4T5oAY0tJks29/I+BxziM8gl2B1oNfzhR0fAJ2IOzo63oIPQsRgheOtWLwSU7SC7gFqNXO1AhIEIpzyzOF05OZgy2E+MVU1MooJSRvSuCVXIRdBNRLCSAwDIlY6seQKdWaQaQkfeBwsFCDKgBbxwYEiIRCiLQpUKkUtKUjRQimFUgvVU76J/3YU2JXM7njHpprDmEar+ZrxwQSBrObKITEuV9BCYe4H/ntEpTvwdCL+wOhE3NHR8RZ8GCL24sxVMYcO92Q0EjYSCcE8IadZkSiQYBK4y5Xr04nr05FDycxqXs0xjRbDWT0HbDHv1VQtrCooVKnM3FGDBdQ/BgJEDWxkINRWY1cpValqgwQNAXxti3ht2ZXHnrtvhJrZ5CMX+ZYhT9Ynru1XjeQKuZrvpVqlbhfE5vBkmnHzpLbkEUbRLQtMl9QfFJ2IOzo63oLmrvfHhUKp7pEoTmKlknOmlOLapcVfcsrE2dIdbgV2KbAdN4zDSIzRPG5rQT3zUcKSko+lMJxm0qGwPVb2GXaewP29ySwtaD4geiSFmTEWhmAVb8g2P6zTCZlni5UrELMSZkUmhUNF7wr1JjPfZE7HykTiIJE7hKPXtrEYtkQIA2Ma2aRxCY+xAHmTyE0on+MN7/t5dHR0dHQ8PXwQjbiqknMmiJjmJwJqDuciQghCCoFRYSgWlpLFNOIjcEflrszczhOHPDHlQlWIYjVjQxbiDHGCmGGokRitRN7rNHFKnrLvETBTcCaWE4NADBERD7yvVspRVVbxgrIsqCASLdFHGogxEhPUkLmb75jKCYAYEikMBCI1W0hVCokQIqd5shRuLSbSa3W25AZNI7a4x64Rf3B0jbijo+Mt+CBErGomaAmWeGKBCF6rAYrVvNypoLkwa6XEgI6RMggnUW5OR64Pt9weDpymmSCBSCJpJBWr0tMq9RAiU4RXMXOy3ByPhBJkJoUZ0Wza/SqY3bRUj11UU08te3QkiK89CB6Pj52SckjKoc6oKkkSSRJSoUwFitpgI6bvkbBlt2nJEyydop2/1b7tkvqDohNxR0fHW/BBiHhBcyBqHsyevUlV0VKJxQpyUwqFikZBxgijacjHPHE3nTicjtweDuRcKEWRKsQwMIaBFBIUM4WfFCZPkv/Yi1ZRKzA9ZAozWqsnBHLC9cQfYcmyJJZ16UzBSBWolmEsqzKlwGk3ckJRhUggabBc+7MRcSAQQyCIxV6fk+I7EQdLeGFJLgJS31+Ci45HoBNxR0fHW/Bhifi34F6mK9caLQtT0wTV0ktq5fZ44PZw5PZ4ZMoFlUgcBkIaqBWmKZMLxLB5L1Pj6mX3ppQ9aXzL7HRud5vHtXzDEDyf6nlu14hbFFSEKSQOcSCHuErb6Dm8VxmmTOaaCD5rxJYAf+kX8WN3In4a6ETc0dHxFjxpIgaTNGcZY00Vz59splkoKKeSOcwzN6cTt/PEsRRmsSICGi2peSiCTBDr44m4CswRTsmS/ys2YDBBe06XueSv9cQb5+8aEZ/T3VnM8EjB6jY3Em8k3Mp4LSnWlj44E3JL22douXI7EX9wdCLu6Oh4C54sETfKXazW6m5PTaAt/zBSzKKcVLnLhdfTxKvpyE2ZOQnoMDAMI4MG5PaE151/FFQacQ5Wj9O+dUp9uG75ZS3M6JxvtjVCncYjqBU/eJNmfdaIF/G7rJuVwHIvu7d0J+Gng07EHR0db8HTJmJ1qlqRUDPzNqGmWAUfjVah6aBwnSsvTzOv5hN3NZNDJAyJQYVwOJLq+0hxGaiMFN1a/Q8BXEMHVsXUFfVSbrZun9frJqCFWFuVkLPQbtcbVhoxi+y1bSPf8zaNjDsRPw10Iu7o6HgLniwRg0kace11rRGuiRg3E2u02pOTk/FNVq7nzM1cONRCrhXRSiyWj/nxCEjdEOoW3NTtjtJOiix1Xi2cqHkzr9YrszJOtKk2wl2TbSPg8zZu0rbPb5bCZ0G9qoXW8WHQibijo+MteLpE7CbZWK3cYRNg59Jyy8/QlqHKi3rnADNwLHAzKdeHyZy4ykwcQhNdj4JoINaBlLeEVTWnMxmvHMqWOdxmOjbNeU3GRpetIIUVbTCN+nzO1ur75OwlGdWN0L6L9cs5e1cX1B8YnYg7OjregqdLxECoTsT/VDYsF0YtVaQKeBkkKnCY4OZ25tXtgbv5REnBNOiHx/k9IQixRlIZnIithY08jQhXpItJ4DZwsK3Vtqg5eXlR8PZdu6a2370WOAEvoVIrQm7Hzj6H/vYO7PijoBNxR0fHW/CEibh5Gy8Uu9Iiz2sjPcvQZbmrxTJWhUhAKBmOx5m748z1NPNynsiLc9XjYILVMl61z2+UiAs53i/Kff+3JlKbM1e71nW6yvUA4qwJW8zyObzJ1iBUMY/unuryCaATcUdHx1vwpIkYCiLZiekcH2vxxGdBJCLElKBapUGpQiQS1VhIixVjeH2a+fS7V8xeeOF+RaKzD/ObpdrDblKQSpVylqxuKgbTTNvaSLOFEq201pX2uhxgNciwRB1mcn9IxEbqa21YCKsCF0bEkIMdoxPxB8aKiL/3KL0rOhF3dPx/gSdOxBXE6vbaPKsLnjcRcbC8lWoOyk5SlswiqKASOJbC17c33GVlmjNzLhRVS/ARglVGap7angdbsExfaLU82C5JSykUMrJKl3mWhU3zda21ETFn8l3+v+zTjnOuqtSurxHpWgMSl8JhIfnm5CWWrsQV9RL6HPGTgD8k7TY89na0Z255eR97wI6Ojg+GJ0zEuJixZa3RPRQ+CxEuws7+cd+bWNAgaIKb48zr2wM3dwemuVAlWMlBiSjBTNxAjMm0jpKptRCDMKQIqszzRM4zcUgr/+X7ZPxQ+LZPbzNNKlYesW23A7TLuL+bX2P7uNbG/XNrgt77YccHwxufh3fHw/ego6PjTxNPnIjfHxRTfCUJp1w5nE7cHScOU2YqlVyFolbrt6qQSyXG6ERcjIhFGIZIDEKthVKKS8H3Iwl9VtyJ8x2P+fBuvuNhOjo6Ojr+OHh8rsc/NSgMMbDbbri82HN5sWM7jsQgCNWKN2h1HnRd10mxetWoWhWRQAzpD8N070rCrMYF72980NHR0dHxB8THRcSqaC2glRSEzZDYjgPbzcBmSKQQLB2lVqIIMViloxSt9GAIpi1X9VrDjyHMjo6Ojo6Oj4mIjTIVaoVaoBYCyhgj+83IxW7LbhwYYiC0/NCegStIIKZEiBE8TKqo+lxyJ+OOjo6OjnfHR0PEzcwcgoBWtBgZD1HYbxLPdhsu9lv2mw1DimjJlHmizDO1FlAIEhFxmlZMM354mo6Ojo6Ojt8DHxERm+4aQyAFIbhbVBQYE+w2cLkduNxvudhuCCi1ZPJ0Ik+TmbTFQqVALMyps3BHR0dHxyPxURExfsEBiEGIgmXu8sISKcJ+E7ncb3h+eeFOXIAWd+JyFVgttrjzcEdHR0fHY/HREbFWn/f1pZZCPs3kKSNVGSJc7iI//GTH1eWOzTAQpWnQq7lmddt0R0dHR0fHI/BxEbGHH2kjUDVC1VqhetEFhRTgYhu5utxy9WzPxW5LCkLNM2WeoVZSjAxDclM1aPVjt/KFYqkt22k6Ojo6OjrehI+LiBfuVdQtzSJCioEUgmm8qlAss+ZuE3jxbMfVsws2wwClUPO0EPGYEmHJhKV23DXrdofqjo6Ojo7fgo+KiC1zVcte5RkvPIFz+zaoEqp68QgYAuzGwLP9hmcXO/bbDSlAmU9MpyO1VkQCKSVSGgghouq5qIubwS1BdUdHR0dHx/fwERGxezt7Pue2LFDThgOKaIVSbM44wH4Unl8kXjzb8fxiy3YIUGbm6QTVsnCFEIkxEoKgzQTucchdNe7o6OjoeBs+IiI2jbhKoC7BS0bO9uf6spNxoBJVidq0YuFyF7ncbdhvBjYxkMT2MZO0zQ+badoqN4GbwRdC7ujo6OjouI+Phog96mgxTS9kLOs6xGcT9RCEKBWpBSnmxDUE2A2Bi83I5X5rZuoUAcilkPNMrZUQxLXjaM7V7qnd0dHR0dHxEB8NEQMgpvfW1VxxM1mzCk0SgSFanLHUQs2FOtezqXqTeH6x5fnlns04EkOglkrO2eeMjYhjjIhA7WFOHR0dHR1vwUdFxItWfPbRcvM0TsMWzmQZt4S4zBfP1DyjpSKqjCmw3wxc7jfsdlvGcbSSiVi2LREhhOBOWtJrQ3R0dHR0vBUfFRHTSHhNyO681SDgMU5Gum02OaiamVorQZUkMCThYhfZ77crQg4rZy21eGL56Lq5o6Ojo+N3xMfHEGsr8bJtpuq1d3MpFQVCCG5m9vQcajWLtZphe7cVLnaB/XZgNyZSFNBCLRmthSBq3y30f8Z53vr+f0V/98V2fHiU75+ro6Ojo+Np4qMiYlFPbam+LBowCxmrBKoGigpFBSWC2GKarZO1KlIVyYVNUJ7vIi8uN1ztRnZJSJqROhG0EEWJYrPTqoWqhYpCECQGJEZbQrDhgIKoWHsfLAsJL7Pbblx/I+92Qu7o6Oh46vhoiLgRV1CID4itwYOWqBIo2JIRSvOyloAsi4Aq5ZhJVXk2Bn5wOfLD5zuu9iO7QRgoiE5InYmiBFGgol5lQoIYAacA0Y6LB1NZ+8QJuS0PSbnNcJvrWSPe819HR0dHx1PHR0PEuPa4zPm2uOHFXWutY65/dY43Pi+GKLAbE2OACCRgjMLF1hy5tmMiotQyI1RiS6cZIyHYXHIpmZxtKV73+NzeNy9wVnSbdtzR0dHR8aeJ/wfDhQZs+xThewAAAABJRU5ErkJggg==;" vertex="1" parent="1">
          <mxGeometry x="1039" y="426.59" width="262" height="97.84" as="geometry" />
        </mxCell>
      </root>
    </mxGraphModel>
  </diagram>
</mxfile>
